<svg width="450" height="488" viewBox="0 0 450 488" fill="none" xmlns="http://www.w3.org/2000/svg">
<path d="M296.578 266.363C296.578 265.312 298.716 245.438 305.615 240.248C312.513 235.058 340.334 223.495 340.334 223.495L354.779 219.355C354.779 219.355 358.245 226.122 353.419 229.703C346.115 233.828 338.54 237.439 330.748 240.511C330.748 240.511 391.151 232.068 392.026 234.696C392.583 236.49 392.824 238.369 392.738 240.248C392.738 240.248 398.73 238.967 400.09 241.266C401.45 243.566 402.163 249.084 397.402 250.563C397.402 250.563 399.475 255.457 397.111 257.658C393.103 260.248 388.862 262.447 384.447 264.228C384.447 264.228 389.208 267.513 387.265 269.648C385.321 271.784 336.739 295.928 336.739 295.928L301.955 285.876L296.578 266.363Z" fill="#FFBE9D"/>
<path d="M364.042 244.715C368.695 243.28 373.464 242.269 378.293 241.693C383.057 240.565 387.946 240.079 392.835 240.248C388.191 241.722 383.42 242.745 378.585 243.303C373.824 244.45 368.931 244.926 364.042 244.715Z" fill="#EB996E"/>
<path d="M397.531 250.891C392.342 252.643 386.993 253.864 381.564 254.538C376.243 255.74 370.82 256.422 365.37 256.574C370.569 254.81 375.929 253.577 381.37 252.895C386.679 251.692 392.093 251.021 397.531 250.891Z" fill="#EB996E"/>
<path d="M386.455 264.064C382.231 266.13 377.786 267.695 373.208 268.729C368.787 270.291 364.199 271.316 359.54 271.784C368.179 268.14 377.214 265.548 386.455 264.064Z" fill="#EB996E"/>
<path d="M296.578 266.363L242.847 314.915L211.625 225.663C211.171 223.954 212.726 227.042 211.625 225.663C210.523 224.283 211.366 225.86 210.588 224.349C200.516 204.639 161.715 185.126 156.889 181.644C156.889 181.644 163.367 191.959 135.351 193.01C106.817 194.127 93.8296 178.655 93.8296 178.655L22.5761 217.483L5.02187 267.349L22.317 486.16L211.463 488L203.301 426.407L202.362 391.093C202.362 391.093 229.503 403.872 242.879 402.394C256.255 400.916 327.088 298.687 327.088 298.687L296.578 266.363Z" fill="#80937B"/>
<path d="M202.362 422.333C201.908 422.333 200.71 382.29 199.673 332.917C198.637 283.544 198.184 243.467 198.637 243.467C199.091 243.467 200.289 283.478 201.325 332.884C202.362 382.29 202.815 422.301 202.362 422.333Z" fill="#263238"/>
<path d="M1.45919 246.128C-4.14393 265.838 7.41857 298.03 18.6572 315.309C46.5432 358.014 100.858 413.858 114.979 413.858C133.699 414.022 282.004 343.593 282.004 343.593L248.676 291.723L135.966 339.684C135.966 339.684 61.3121 224.283 50.6565 218.961C40.0009 213.64 19.8879 214.953 11.1107 225.301C6.80014 231.666 3.54033 238.7 1.45919 246.128Z" fill="#80937B"/>
<path d="M82.1699 254.406C82.1699 254.406 82.5262 254.866 83.1416 255.786L85.9269 259.958L96.4207 276.054L134.736 335.348L134.055 335.118L248.417 291.001L249 290.771L249.324 291.296L282.684 343.166L283.202 343.987L282.198 344.283L255.834 356.141C216.969 373.519 179.722 389.747 145.424 403.379C137.108 406.893 128.584 409.877 119.902 412.314C115.671 413.392 111.303 413.813 106.947 413.563C102.69 413.256 98.5368 412.083 94.7365 410.113C87.7735 406.121 81.5486 400.93 76.3401 394.773C71.1796 389.057 66.3647 383.494 61.8951 378.085C47.6905 360.997 34.7025 342.906 23.0296 323.949C18.9163 317.379 15.9042 311.926 13.8637 308.312L11.6289 304.14C11.1431 303.221 10.9164 302.695 10.9164 302.695C10.9164 302.695 11.2403 303.155 11.7909 304.075L14.1552 308.115C16.2604 311.696 19.3697 316.952 23.5801 323.587C35.3921 342.381 48.4531 360.337 62.6724 377.329C67.1743 382.717 72.0326 388.235 77.1822 393.754C82.2948 399.769 88.3989 404.838 95.2223 408.734C98.8711 410.622 102.86 411.739 106.947 412.019C111.174 412.251 115.411 411.83 119.513 410.77C128.111 408.301 136.558 405.317 144.808 401.835C179.042 388.137 216.224 371.876 255.122 354.499L281.485 342.64L281.129 343.823L247.834 291.953L248.774 292.249L134.282 336.005H133.829L133.57 335.61L95.6757 276.021L85.4411 259.596L82.8177 255.326C82.4291 254.932 82.1699 254.406 82.1699 254.406Z" fill="#263238"/>
<path d="M84.3075 267.743C84.3075 268.006 80.1619 269.484 73.5871 272.506C65.0734 276.462 56.9414 281.212 49.2962 286.697C41.6702 292.223 34.5877 298.483 28.1468 305.389C23.1915 310.677 20.4061 314.225 20.1794 314.061C20.6247 313.086 21.2025 312.179 21.896 311.367C23.0619 309.692 24.8757 307.36 27.2724 304.567C33.5444 297.369 40.6077 290.921 48.3246 285.35C56.0507 279.775 64.3732 275.102 73.1337 271.422C75.7823 270.309 78.4847 269.334 81.2307 268.498C82.2135 268.093 83.2505 267.838 84.3075 267.743Z" fill="#FAFAFA"/>
<path d="M122.914 330.387C120.007 332.516 116.979 334.468 113.845 336.235C108.21 339.75 100.534 344.808 92.4045 350.886C84.2751 356.963 77.247 362.941 72.2916 367.31C69.7086 369.834 66.9835 372.203 64.1299 374.406C64.1299 374.406 64.6805 373.519 65.9436 372.139C67.2067 370.76 69.1824 368.854 71.4819 366.456C77.7854 360.389 84.4481 354.717 91.4329 349.473C98.4082 344.242 105.699 339.459 113.262 335.151C116.177 333.508 118.542 332.227 120.226 331.439C121.068 330.961 121.973 330.607 122.914 330.387Z" fill="#FAFAFA"/>
<path d="M169.423 387.283C167.746 384.849 166.355 382.225 165.277 379.465C159.452 366.37 156.154 352.264 155.561 337.91C155.315 334.951 155.424 331.973 155.885 329.041C156.348 331.954 156.63 334.895 156.727 337.844C157.329 344.887 158.411 351.879 159.966 358.769C161.568 365.654 163.646 372.416 166.184 379.005C167.451 381.685 168.533 384.451 169.423 387.283Z" fill="#FAFAFA"/>
<path d="M241.713 362.514C239.593 360.495 237.723 358.223 236.142 355.747C227.926 344.276 221.381 331.663 216.71 318.299C215.593 315.579 214.799 312.734 214.345 309.823C215.672 312.422 216.819 315.112 217.778 317.872C219.819 322.865 222.798 329.698 226.588 336.957C230.377 344.217 234.296 350.59 237.211 355.09C238.882 357.455 240.386 359.935 241.713 362.514Z" fill="#FAFAFA"/>
<path d="M83.4655 237.226C83.2064 237.423 80.842 233.941 75.6923 229.309C69.0293 223.438 60.946 219.47 52.2719 217.813C43.5979 216.157 34.6454 216.87 26.3331 219.881C19.8555 222.181 16.4224 224.677 16.2605 224.415C16.9616 223.671 17.7696 223.04 18.6572 222.542C20.9534 221.064 23.3825 219.81 25.912 218.797C34.3735 215.371 43.622 214.46 52.5755 216.17C61.5289 217.88 69.8169 222.142 76.4697 228.455C78.4859 230.32 80.3091 232.39 81.9109 234.631C82.5635 235.405 83.0885 236.282 83.4655 237.226Z" fill="#FAFAFA"/>
<path d="M197.309 225.466C196.169 225.937 194.97 226.247 193.746 226.386C191.415 226.878 188.046 227.502 183.868 228.225C175.512 229.67 163.917 231.51 151.091 233.153C138.266 234.795 126.606 236.043 118.153 236.799C113.943 237.16 110.509 237.423 108.145 237.554C106.918 237.69 105.68 237.69 104.453 237.554C105.629 237.172 106.848 236.94 108.08 236.865L118.056 235.583L150.897 231.444L183.674 227.043L193.649 225.729C194.856 225.508 196.083 225.42 197.309 225.466Z" fill="#FAFAFA"/>
<path d="M190.443 289.325C189.581 289.851 188.64 290.228 187.658 290.442C185.844 291.066 183.156 291.822 179.852 292.709C171.186 294.905 162.391 296.54 153.521 297.604C144.655 298.674 135.728 299.146 126.801 299.016C123.367 299.016 120.582 298.852 118.671 298.655C117.676 298.662 116.684 298.529 115.724 298.261C119.395 297.914 123.082 297.782 126.768 297.866C133.602 297.669 142.962 297.176 153.326 295.961C163.69 294.746 172.921 293.005 179.593 291.559C183.169 290.623 186.79 289.877 190.443 289.325Z" fill="#FAFAFA"/>
<path d="M49.6848 367.048C43.6857 367.14 37.6908 366.678 31.7742 365.668C25.8013 365.189 19.8829 364.167 14.0904 362.613C20.0908 362.522 26.0866 362.995 32.001 364.025C37.9717 364.504 43.8892 365.515 49.6848 367.048Z" fill="#FAFAFA"/>
<path d="M199.22 433.273C198.68 433.603 198.104 433.868 197.503 434.061L192.516 435.999C190.346 436.853 187.657 437.872 184.483 438.857C181.309 439.843 177.747 441.124 173.698 442.142C169.65 443.16 165.277 444.474 160.452 445.427C155.626 446.38 150.509 447.529 145.1 448.548C121.435 452.574 97.3628 453.545 73.4575 451.438C67.9516 450.847 62.7371 450.387 57.8789 449.566C53.0207 448.745 48.5188 448.055 44.438 447.267C40.3571 446.478 36.6649 445.558 33.4261 444.803C30.1873 444.047 27.4343 443.325 25.1995 442.635L20.0498 441.091C19.4375 440.963 18.8477 440.741 18.3008 440.434C18.9268 440.469 19.5466 440.579 20.147 440.762L25.3615 442.011C27.6287 442.602 30.3816 443.259 33.6204 443.916C36.8592 444.573 40.519 445.46 44.6323 446.117C48.7455 446.774 53.2151 447.628 58.0733 448.219C62.9314 448.811 68.1136 449.369 73.5871 449.895C85.4404 450.802 97.3336 451.055 109.214 450.65C121.145 450.095 133.038 448.889 144.841 447.037C150.249 446.051 155.399 445.197 160.16 444.08C164.921 442.963 169.391 441.978 173.407 440.795C177.423 439.613 181.018 438.66 184.192 437.74C187.366 436.82 190.087 435.933 192.289 435.178L197.406 433.503C197.998 433.346 198.608 433.269 199.22 433.273Z" fill="#FAFAFA"/>
<path d="M244.919 398.78C237.613 388.244 234.05 375.504 234.814 362.646C235.333 362.646 235.559 371.187 238.41 381.206C241.26 391.225 245.373 398.55 244.919 398.78Z" fill="#FAFAFA"/>
<path d="M302.505 329.04C300.422 327.863 298.514 326.392 296.837 324.671C292.574 320.802 288.691 316.522 285.242 311.893C281.769 307.253 278.733 302.293 276.174 297.078C275.001 295.027 274.128 292.814 273.583 290.508C274.036 290.278 278.473 300.363 286.538 311.006C294.603 321.649 302.861 328.646 302.505 329.04Z" fill="#FAFAFA"/>
<path d="M224.288 268.006C220.096 269.437 215.744 270.331 211.333 270.666C207.011 271.578 202.593 271.931 198.184 271.718C202.378 270.29 206.729 269.385 211.139 269.024C215.463 268.13 219.88 267.788 224.288 268.006Z" fill="#FAFAFA"/>
<path d="M201.487 12.8298C190.475 9.01925 178.556 18.7099 167.221 16.1148C160.322 14.5051 155.27 8.72358 149.213 5.01157C144.472 2.17513 139.148 0.491358 133.658 0.0923951C128.168 -0.306568 122.661 0.590138 117.57 2.71211C107.854 7.24536 101.732 12.2056 100.113 22.8161C91.692 17.5273 77.0202 27.9735 71.8058 38.3868C66.5913 48.8002 67.4334 59.7391 69.8301 71.2365C73.9738 90.9546 81.885 109.659 93.117 126.292C94.121 127.738 95.7081 129.38 97.3275 128.691C97.8387 128.36 98.2642 127.91 98.5685 127.379C98.8729 126.847 99.047 126.249 99.0764 125.636C101.084 115.321 100.145 104.71 99.5946 94.2312C99.044 83.7522 98.9793 72.9775 102.574 63.1226C106.169 53.2677 114.137 44.464 124.339 42.7887C132.009 41.9571 139.722 43.9127 146.104 48.3074C152.581 52.3151 158.314 57.6039 164.533 62.1371C170.534 67.0094 177.736 70.1222 185.358 71.1379C189.169 71.5864 193.027 70.9145 196.472 69.2023C199.917 67.49 202.805 64.8096 204.791 61.4801C208.256 54.5817 204.953 44.4968 197.536 42.6244C200.979 42.3787 204.234 40.9383 206.753 38.5452C209.273 36.1522 210.903 32.9524 211.371 29.4837C211.838 26.015 211.114 22.4888 209.32 19.4979C207.526 16.5069 204.771 14.2335 201.52 13.0597L201.487 12.8298Z" fill="#263238"/>
<path d="M161.164 193.174L160.808 170.738C160.808 170.738 190.119 166.073 190.443 136.344C190.605 122.022 188.532 92.4245 186.395 65.6849C185.279 51.8095 179.049 38.8702 168.946 29.4458C158.844 20.0214 145.611 14.8041 131.886 14.8336H129.068C98.5907 16.6732 83.1093 43.9712 85.7651 74.8171L88.7771 194.685C89.0318 204.375 93.0525 213.569 99.9628 220.264C106.873 226.959 116.113 230.611 125.667 230.426C135.237 230.236 144.343 226.211 150.995 219.23C157.647 212.249 161.303 202.881 161.164 193.174Z" fill="#FFBE9D"/>
<path d="M160.84 170.705C147.312 170.996 134.005 167.187 122.623 159.766C122.623 159.766 131.691 181.151 160.937 178.425L160.84 170.705Z" fill="#EB996E"/>
<path d="M178.556 88.0556C178.565 89.1628 178.147 90.2295 177.39 91.0276C176.634 91.8257 175.599 92.2918 174.508 92.3261C173.977 92.3708 173.442 92.307 172.936 92.1384C172.429 91.9698 171.962 91.6998 171.56 91.3445C171.158 90.9891 170.831 90.5557 170.597 90.0698C170.364 89.5839 170.229 89.0553 170.2 88.5155C170.191 87.4106 170.604 86.345 171.353 85.5425C172.102 84.74 173.128 84.2632 174.217 84.2122C174.752 84.1675 175.291 84.2322 175.801 84.4024C176.311 84.5727 176.783 84.8451 177.187 85.2035C177.592 85.5619 177.922 85.9989 178.157 86.4888C178.392 86.9787 178.528 87.5115 178.556 88.0556Z" fill="#263238"/>
<path d="M180.111 80.2042C179.593 80.7626 176.419 78.3975 171.917 78.4303C167.415 78.4632 164.112 80.7298 163.626 80.1713C163.14 79.6129 163.917 78.923 165.342 77.839C167.296 76.4791 169.612 75.757 171.982 75.7694C174.311 75.7575 176.582 76.5062 178.459 77.9047C179.884 78.9559 180.37 79.9742 180.111 80.2042Z" fill="#263238"/>
<path d="M134.055 88.0555C134.073 89.1596 133.662 90.2264 132.91 91.0254C132.159 91.8244 131.128 92.2916 130.039 92.326C129.506 92.3707 128.97 92.3071 128.462 92.1389C127.954 91.9706 127.484 91.7011 127.079 91.3462C126.675 90.9913 126.345 90.5581 126.108 90.072C125.871 89.5859 125.732 89.0567 125.699 88.5154C125.698 87.4074 126.118 86.3417 126.873 85.5401C127.627 84.7385 128.657 84.2629 129.748 84.2121C130.281 84.172 130.816 84.2401 131.323 84.4125C131.829 84.5848 132.297 84.858 132.698 85.2159C133.099 85.5738 133.426 86.0093 133.659 86.4969C133.892 86.9845 134.027 87.5144 134.055 88.0555Z" fill="#263238"/>
<path d="M135.837 81.1242C135.319 81.6827 132.145 79.3175 127.643 79.3175C123.141 79.3175 119.837 81.6498 119.351 81.0914C118.865 80.5329 119.643 79.8431 121.068 78.759C123.017 77.3895 125.336 76.6664 127.707 76.6895C130.03 76.6862 132.296 77.4215 134.185 78.7919C135.61 79.8759 136.096 80.8943 135.837 81.1242Z" fill="#263238"/>
<path d="M152.225 114.992C154.6 114.229 157.058 113.765 159.545 113.612C160.678 113.612 161.78 113.284 161.974 112.463C162.054 111.261 161.784 110.061 161.197 109.014C160.128 106.188 158.962 103.232 157.796 100.144C153.035 87.497 149.602 77.1494 150.12 76.9194C153.858 84.1686 157.03 91.7032 159.61 99.4543L162.848 108.389C163.569 109.793 163.786 111.407 163.464 112.956C163.296 113.37 163.036 113.739 162.704 114.035C162.373 114.331 161.979 114.546 161.553 114.664C160.92 114.847 160.267 114.946 159.61 114.959C157.158 115.267 154.679 115.278 152.225 114.992Z" fill="#263238"/>
<path d="M138.978 118.146C139.723 118.146 139.723 123.073 143.901 126.588C148.079 130.103 153.294 129.545 153.359 130.235C153.424 130.924 152.193 131.187 150.12 131.253C147.257 131.308 144.468 130.33 142.25 128.494C140.118 126.734 138.747 124.2 138.428 121.431C138.104 119.361 138.655 118.113 138.978 118.146Z" fill="#263238"/>
<path d="M136.258 57.7354C135.804 58.9837 131.303 58.3924 126.023 59.0493C120.744 59.7063 116.469 61.1517 115.789 60.0348C115.465 59.5093 116.21 58.3595 117.926 57.1441C120.211 55.6299 122.822 54.6948 125.537 54.4175C128.241 54.1007 130.98 54.4269 133.537 55.3702C135.481 56.1586 136.452 57.1441 136.258 57.7354Z" fill="#263238"/>
<path d="M178.557 66.9988C177.779 68.05 174.67 66.9988 170.945 66.9988C167.221 66.9988 164.047 67.6886 163.302 66.6046C163.01 66.079 163.496 65.0278 164.856 64.0752C166.7 62.8544 168.876 62.2564 171.075 62.367C173.27 62.381 175.404 63.1061 177.164 64.4365C178.33 65.422 178.783 66.506 178.557 66.9988Z" fill="#263238"/>
<path d="M88.1941 96.8262C87.6759 96.5963 68.0488 90.8148 68.7613 111.116C69.4738 131.417 89.4248 126.588 89.4248 125.997C89.4248 125.405 88.1941 96.8262 88.1941 96.8262Z" fill="#FFBE9D"/>
<path d="M82.9796 118.507C82.9796 118.507 82.6557 118.77 82.0727 119.066C81.2283 119.394 80.2937 119.394 79.4493 119.066C78.1339 118.272 77.0487 117.141 76.3036 115.785C75.5585 114.429 75.18 112.898 75.2065 111.346C75.1131 109.609 75.3893 107.873 76.0162 106.254C76.1879 105.615 76.5064 105.025 76.9454 104.534C77.3844 104.043 77.9316 103.665 78.5424 103.429C78.9437 103.3 79.3776 103.321 79.7643 103.49C80.151 103.659 80.4647 103.964 80.6476 104.349C80.9391 104.907 80.8096 105.302 80.9391 105.334C81.0687 105.367 81.3602 104.973 81.1659 104.152C81.0344 103.65 80.7372 103.21 80.3238 102.904C80.046 102.7 79.7312 102.555 79.3976 102.476C79.0641 102.397 78.7183 102.386 78.3805 102.444C77.5611 102.632 76.8043 103.034 76.1851 103.61C75.5659 104.187 75.1058 104.917 74.8503 105.729C74.0493 107.508 73.6933 109.46 73.8138 111.412C73.7741 113.224 74.2632 115.008 75.2197 116.539C76.1763 118.07 77.5576 119.281 79.1902 120.018C79.7414 120.171 80.3195 120.194 80.8807 120.086C81.4419 119.978 81.9715 119.741 82.429 119.394C82.9796 119 83.0767 118.54 82.9796 118.507Z" fill="#EB996E"/>
<path d="M192.58 59.4432C186.094 61.1442 179.302 61.2569 172.764 59.7719C166.226 58.2869 160.13 55.2468 154.978 50.9023C147.82 44.7923 142.314 35.9886 133.375 33.1963C130.325 32.3807 127.146 32.1871 124.021 32.627C120.896 33.0668 117.889 34.1312 115.173 35.7586C109.762 39.0473 105.077 43.4307 101.408 48.6357C107.076 63.7465 103.319 80.5984 99.465 96.2677C99.2283 98.0542 98.4071 99.7084 97.1331 100.965C95.8058 101.641 94.29 101.833 92.8396 101.51C91.3891 101.187 90.0921 100.368 89.1657 99.1913C86.1439 95.4298 84.2448 90.8709 83.6921 86.0514C81.6207 75.1968 81.6758 64.0348 83.8541 53.2018C86.0927 42.2979 91.4426 32.3023 99.2384 24.4583C109.351 14.9585 122.704 9.8118 136.485 10.103C150.225 10.4992 163.489 15.294 174.378 23.8013C179.597 27.47 183.828 32.405 186.686 38.1566" fill="#263238"/>
<path d="M209.94 19.9911C209.984 20.5895 209.918 21.1909 209.746 21.765C209.272 23.4173 208.297 24.8766 206.961 25.9369C204.79 27.5598 202.175 28.4555 199.479 28.4991C197.81 28.5964 196.135 28.4861 194.491 28.1707C192.615 27.8699 190.856 27.0517 189.406 25.8055C188.583 25.1041 187.928 24.2221 187.491 23.2262C187.053 22.2303 186.844 21.1465 186.88 20.0568C187.038 18.8758 187.519 17.7634 188.269 16.846C189.019 15.9285 190.008 15.2428 191.123 14.8666C192.266 14.4181 193.501 14.2602 194.718 14.4067C195.999 14.5599 197.206 15.0975 198.184 15.9506C199.149 16.8508 199.913 17.9492 200.427 19.1727C200.941 20.3962 201.192 21.7166 201.163 23.0461C201.136 24.4445 200.836 25.8236 200.28 27.1036C199.724 28.3835 198.924 29.5389 197.925 30.503C195.922 32.5393 193.416 33.9916 190.67 34.7077C184.912 36.0375 178.882 35.3785 173.536 32.8353C168.271 30.4213 163.304 27.3893 158.735 23.8017C154.491 20.5336 149.984 17.6327 145.262 15.1294C140.997 12.9372 136.278 11.8109 131.497 11.8444C127.313 12.0363 123.222 13.1577 119.513 15.1294C114.128 17.9971 109.557 22.2153 106.234 27.3823C105.309 28.776 104.465 30.2239 103.708 31.7184C103.462 32.2519 103.181 32.7678 102.866 33.2624C102.85 33.1205 102.85 32.9772 102.866 32.8353C102.866 32.5397 103.125 32.1455 103.352 31.6199C104.063 30.0945 104.863 28.6136 105.748 27.1852C109.002 21.8427 113.581 17.4593 119.027 14.4724C122.831 12.476 127.023 11.3544 131.302 11.1874C136.234 11.0993 141.113 12.2266 145.521 14.4724C150.292 16.9743 154.843 19.8866 159.124 23.1775C163.658 26.6937 168.569 29.68 173.763 32.0798C178.902 34.5398 184.705 35.1872 190.248 33.9194C192.827 33.2516 195.185 31.9028 197.082 30.0103C198.89 28.2149 199.935 25.7754 199.997 23.2103C200.058 21.9845 199.852 20.7602 199.393 19.6246C198.934 18.489 198.233 17.47 197.341 16.6404C196.525 16.0009 195.559 15.5863 194.537 15.4366C193.516 15.287 192.474 15.4075 191.512 15.7863C190.53 16.0899 189.655 16.6718 188.99 17.4634C188.324 18.255 187.895 19.2233 187.755 20.2539C187.706 21.2274 187.88 22.1992 188.262 23.0937C188.644 23.9881 189.224 24.7812 189.957 25.4113C191.315 26.5865 192.959 27.3695 194.718 27.6779C196.306 27.9983 197.926 28.1306 199.544 28.0721C202.139 28.0857 204.673 27.2823 206.799 25.7726C208.133 24.7949 209.131 23.4157 209.649 21.8307C209.908 20.6152 209.876 19.9911 209.94 19.9911Z" fill="#80937B"/>
<path d="M68.2431 55.7971C70.2236 56.5457 72.2748 57.0851 74.3644 57.4068C76.635 57.6303 78.9268 57.3844 81.1011 56.6841C83.7624 55.8443 86.2844 54.6041 88.5827 53.005C92.7785 50.0753 95.9081 45.8275 97.4894 40.9163C98.077 38.848 98.5208 36.7404 98.8173 34.6091C98.9134 35.1964 98.9134 35.7958 98.8173 36.383C98.7468 37.9858 98.4859 39.5741 98.0401 41.1134C96.6037 46.3006 93.417 50.8116 89.0361 53.859C86.6262 55.5038 83.9833 56.7666 81.1983 57.6039C78.9156 58.2646 76.5236 58.4435 74.1701 58.1295C72.589 57.8827 71.0511 57.4071 69.6033 56.717C69.1028 56.4889 68.6432 56.178 68.2431 55.7971Z" fill="#80937B"/>
<path d="M69.15 70.5139C69.15 70.3168 71.5143 70.8424 75.3037 70.5139C80.2228 70.2459 84.9818 68.6488 89.0876 65.888C93.1935 63.1271 96.4968 59.303 98.6553 54.8118C100.307 51.5268 100.761 48.9645 100.923 48.9974C100.967 49.5742 100.901 50.1543 100.728 50.7056C100.381 52.2165 99.8934 53.6904 99.2707 55.1074C97.2355 59.845 93.8935 63.8848 89.6471 66.7406C85.4006 69.5964 80.4309 71.1463 75.3361 71.2037C73.8059 71.2352 72.2763 71.1141 70.7694 70.8424C70.2142 70.8351 69.6652 70.7238 69.15 70.5139Z" fill="#80937B"/>
<path d="M120.906 100.571C120.837 100.586 120.766 100.585 120.698 100.569C120.63 100.552 120.565 100.521 120.51 100.478C120.455 100.434 120.409 100.379 120.377 100.315C120.345 100.252 120.326 100.183 120.323 100.111C120.304 100.047 120.297 99.9787 120.305 99.9115C120.313 99.8443 120.334 99.7793 120.367 99.7208C120.401 99.6622 120.446 99.6113 120.499 99.5712C120.553 99.531 120.614 99.5024 120.679 99.4873C120.747 99.4731 120.818 99.473 120.886 99.4869C120.954 99.5008 121.019 99.5285 121.076 99.5684C121.134 99.6082 121.183 99.6594 121.22 99.7189C121.258 99.7783 121.283 99.8448 121.295 99.9144C121.325 100.054 121.301 100.199 121.229 100.321C121.157 100.443 121.041 100.533 120.906 100.571Z" fill="#EB996E"/>
<path d="M129.521 98.5674C129.23 98.5674 128.971 98.5674 128.906 98.0418C128.865 97.9024 128.879 97.7523 128.946 97.6235C129.012 97.4946 129.126 97.3972 129.262 97.352C129.334 97.3428 129.408 97.3483 129.478 97.3682C129.548 97.3881 129.614 97.4219 129.671 97.4678C129.729 97.5136 129.776 97.5706 129.812 97.6353C129.847 97.7 129.869 97.7711 129.877 97.8447C129.975 98.206 129.78 98.5345 129.521 98.5674Z" fill="#EB996E"/>
<path d="M135.286 98.4358C135.027 98.4358 134.768 98.1072 134.703 97.6802C134.638 97.2531 134.703 96.8261 135.092 96.7933C135.481 96.7604 135.643 97.0889 135.675 97.5488C135.707 98.0087 135.578 98.4029 135.286 98.4358Z" fill="#EB996E"/>
<path d="M125.149 106.024C124.857 106.024 124.631 106.024 124.631 105.729C124.631 105.433 124.857 105.4 125.149 105.4C125.44 105.4 125.635 105.4 125.635 105.729C125.635 106.057 125.408 106.024 125.149 106.024Z" fill="#EB996E"/>
<path d="M133.019 104.185C132.892 104.154 132.779 104.08 132.698 103.976C132.617 103.871 132.573 103.743 132.573 103.61C132.573 103.477 132.617 103.348 132.698 103.244C132.779 103.14 132.892 103.066 133.019 103.035C133.09 103.03 133.161 103.041 133.227 103.065C133.294 103.09 133.355 103.128 133.407 103.177C133.458 103.226 133.499 103.286 133.527 103.352C133.555 103.418 133.57 103.489 133.57 103.561C133.579 103.639 133.571 103.719 133.548 103.795C133.524 103.87 133.485 103.94 133.433 103.999C133.381 104.058 133.317 104.105 133.246 104.137C133.175 104.169 133.097 104.185 133.019 104.185Z" fill="#EB996E"/>
<path d="M174.087 99.1588C173.947 99.1702 173.808 99.1299 173.695 99.0454C173.582 98.9609 173.502 98.8379 173.472 98.6989C173.442 98.5598 173.465 98.4143 173.537 98.2922C173.61 98.17 173.725 98.0805 173.86 98.0419C173.931 98.0278 174.003 98.0288 174.074 98.0447C174.144 98.0606 174.21 98.0912 174.268 98.1345C174.326 98.1777 174.374 98.2327 174.41 98.296C174.446 98.3592 174.468 98.4293 174.476 98.5018C174.498 98.6403 174.472 98.7824 174.4 98.9028C174.329 99.0231 174.218 99.1139 174.087 99.1588Z" fill="#EB996E"/>
<path d="M179.949 98.6002C179.658 98.6002 179.431 98.3703 179.399 98.0089C179.369 97.8611 179.396 97.7074 179.474 97.5792C179.552 97.451 179.676 97.3579 179.82 97.3191C180.111 97.3191 180.338 97.549 180.37 97.9104C180.4 98.0581 180.373 98.2118 180.295 98.3401C180.217 98.4683 180.093 98.5614 179.949 98.6002Z" fill="#EB996E"/>
<path d="M168.84 99.2899C168.72 99.3209 168.593 99.3042 168.484 99.2431C168.376 99.182 168.295 99.0813 168.257 98.9614C168.248 98.8984 168.252 98.8342 168.269 98.7728C168.285 98.7114 168.314 98.6542 168.354 98.6048C168.394 98.5554 168.443 98.5149 168.499 98.4858C168.554 98.4567 168.616 98.4397 168.678 98.4358C168.79 98.4358 168.897 98.4808 168.976 98.5609C169.055 98.6409 169.099 98.7495 169.099 98.8628C169.099 98.9761 169.055 99.0847 168.976 99.1648C168.897 99.2449 168.79 99.2899 168.678 99.2899H168.84Z" fill="#EB996E"/>
<path d="M173.245 105.236C173.112 105.279 172.967 105.269 172.841 105.208C172.714 105.147 172.616 105.04 172.565 104.907C172.543 104.817 172.547 104.722 172.576 104.634C172.606 104.545 172.659 104.467 172.73 104.408C172.801 104.35 172.888 104.312 172.979 104.301C173.07 104.29 173.163 104.306 173.246 104.346C173.329 104.386 173.399 104.449 173.448 104.528C173.497 104.607 173.523 104.698 173.523 104.791C173.522 104.884 173.496 104.975 173.447 105.054C173.398 105.133 173.328 105.196 173.245 105.236Z" fill="#EB996E"/>
<path d="M178.265 104.217C178.15 104.194 178.049 104.126 177.982 104.028C177.916 103.93 177.89 103.809 177.909 103.692C177.952 103.578 178.036 103.485 178.144 103.43C178.252 103.376 178.376 103.363 178.492 103.396C178.552 103.408 178.609 103.432 178.66 103.466C178.711 103.501 178.754 103.546 178.788 103.598C178.821 103.65 178.843 103.709 178.854 103.77C178.864 103.831 178.862 103.894 178.848 103.955C178.798 104.062 178.712 104.148 178.605 104.197C178.498 104.245 178.377 104.252 178.265 104.217Z" fill="#EB996E"/>
<path d="M271.445 288.011L283.234 256.476L302.214 227.272C303.757 227.984 305.053 229.152 305.932 230.623C306.81 232.095 307.23 233.8 307.137 235.518C306.586 241.332 296.611 260.385 296.611 260.385C296.611 260.385 351.508 235.419 353.257 237.752C354.418 239.865 354.968 242.267 354.844 244.683C354.844 244.683 362.617 240.675 364.561 245.57C366.504 250.464 362.164 251.121 362.164 251.121C362.901 251.201 363.607 251.47 364.214 251.903C364.82 252.335 365.309 252.917 365.633 253.594C365.957 254.271 366.105 255.02 366.065 255.771C366.025 256.523 365.797 257.251 365.403 257.888C363.388 261.518 360.64 264.675 357.338 267.152C357.338 267.152 362.261 266.068 360.933 269.681C359.605 273.295 335.023 301.053 335.023 301.053L305.55 318.102L278.992 337.812L253.081 297.308L271.445 288.011Z" fill="#FFBE9D"/>
<path d="M278.959 337.713C278.959 337.713 279.542 337.187 280.676 336.267L285.793 332.358L305.226 317.707L334.602 300.527H334.44C339.039 295.304 343.897 289.686 348.917 283.774C351.411 280.784 353.97 277.729 356.496 274.543C357.764 273 358.932 271.376 359.994 269.681C360.219 269.326 360.352 268.919 360.383 268.498C360.387 268.375 360.356 268.253 360.293 268.148C360.229 268.043 360.137 267.959 360.026 267.907C359.189 267.67 358.304 267.67 357.468 267.907C357.37 267.931 357.268 267.935 357.168 267.918C357.069 267.901 356.974 267.864 356.889 267.808C356.805 267.753 356.732 267.681 356.675 267.596C356.619 267.512 356.58 267.416 356.561 267.316C356.527 267.17 356.536 267.017 356.588 266.877C356.64 266.736 356.732 266.615 356.852 266.527C359.51 264.517 361.81 262.062 363.654 259.268C364.641 258.012 365.208 256.47 365.273 254.866C365.273 253.486 363.621 252.566 362.034 252.304C361.851 252.266 361.687 252.165 361.569 252.018C361.45 251.872 361.386 251.688 361.386 251.499C361.386 251.309 361.45 251.126 361.569 250.979C361.687 250.832 361.851 250.732 362.034 250.694C362.584 250.548 363.078 250.238 363.454 249.805C363.829 249.372 364.068 248.835 364.139 248.263C364.24 247 363.844 245.749 363.038 244.781C362.517 244.398 361.919 244.136 361.287 244.011C360.655 243.886 360.004 243.902 359.378 244.058C357.946 244.327 356.553 244.78 355.233 245.405C355.136 245.46 355.03 245.493 354.919 245.503C354.809 245.512 354.699 245.498 354.594 245.461C354.49 245.423 354.395 245.364 354.315 245.286C354.235 245.209 354.173 245.115 354.132 245.011C354.098 244.893 354.098 244.768 354.132 244.65C354.17 243.05 353.963 241.454 353.516 239.919C353.405 239.553 353.253 239.2 353.063 238.868C352.996 238.694 352.909 238.528 352.804 238.375C352.046 238.413 351.295 238.546 350.569 238.77C347.33 239.722 344.091 241.003 340.691 242.252C325.371 248.329 310.732 254.866 296.967 261.042C296.773 261.119 296.557 261.118 296.364 261.039C296.171 260.959 296.016 260.807 295.93 260.615C295.883 260.506 295.859 260.388 295.859 260.27C295.859 260.151 295.883 260.033 295.93 259.925C298.943 254.077 301.76 248.329 304.125 242.613C305.41 239.962 306.18 237.084 306.392 234.138C306.252 232.791 305.765 231.506 304.981 230.41C304.196 229.315 303.141 228.448 301.922 227.896L302.797 227.601L283.753 256.738C278.894 269.517 274.878 280.094 271.769 288.208C271.734 288.306 271.665 288.388 271.575 288.438L257.842 295.008L254.312 296.683C253.919 296.888 253.506 297.053 253.081 297.176C253.429 296.898 253.81 296.667 254.215 296.486L257.68 294.647C260.919 293.004 265.389 290.639 271.251 287.65L271.057 287.847C274.036 279.667 277.955 269.057 282.651 256.213L301.501 226.944C301.588 226.806 301.72 226.703 301.875 226.655C302.029 226.607 302.195 226.616 302.343 226.681C303.812 227.331 305.086 228.362 306.036 229.672C306.986 230.981 307.578 232.522 307.752 234.138C307.577 237.322 306.773 240.439 305.388 243.303C303.023 249.117 300.206 254.932 297.194 260.812L296.157 259.695C309.922 253.486 324.529 246.949 339.946 240.839C343.184 239.558 346.423 238.277 349.954 237.324C350.865 237.027 351.814 236.861 352.771 236.831C352.986 236.797 353.204 236.797 353.419 236.831C353.619 236.952 353.786 237.121 353.905 237.324C354.046 237.536 354.176 237.755 354.294 237.981C354.504 238.407 354.688 238.846 354.844 239.295C355.354 241.02 355.584 242.817 355.524 244.617L354.326 243.861C355.801 243.132 357.372 242.623 358.99 242.35C359.851 242.147 360.745 242.142 361.608 242.336C362.471 242.529 363.281 242.915 363.978 243.467C364.602 244.117 365.048 244.921 365.273 245.799C365.568 246.618 365.668 247.496 365.565 248.362C365.46 249.252 365.096 250.09 364.519 250.769C363.942 251.448 363.178 251.936 362.326 252.172V250.595C363.344 250.757 364.31 251.162 365.144 251.778C365.598 252.093 365.983 252.502 366.273 252.977C366.563 253.452 366.752 253.984 366.828 254.537C366.819 256.527 366.158 258.457 364.949 260.023C362.989 262.982 360.547 265.582 357.727 267.71L357.111 266.298C358.305 266 359.559 266.081 360.706 266.527C361.06 266.722 361.353 267.013 361.553 267.366C361.753 267.72 361.853 268.124 361.84 268.531C361.845 269.172 361.664 269.8 361.322 270.338C360.212 272.143 358.978 273.866 357.63 275.495C355.071 278.78 352.512 281.737 349.954 284.693C344.901 290.639 340.011 296.191 335.347 301.381L305.776 318.299L286.052 332.555L280.805 336.3C280.226 336.818 279.609 337.29 278.959 337.713Z" fill="#EB996E"/>
<path d="M356.69 243.829C349.448 247.97 341.951 251.635 334.245 254.8C326.742 258.455 319.018 261.625 311.12 264.294C318.357 260.133 325.855 256.457 333.565 253.289C341.058 249.62 348.784 246.459 356.69 243.829Z" fill="#EB996E"/>
<path d="M363.816 250.431C362.078 252.042 360.153 253.432 358.083 254.57C354.423 256.903 349.241 259.958 343.379 263.111C337.517 266.265 332.076 268.827 328.092 270.535C326.049 271.635 323.871 272.453 321.614 272.966C323.532 271.596 325.583 270.429 327.736 269.484L342.731 261.633L357.63 253.552C359.574 252.288 361.648 251.241 363.816 250.431Z" fill="#EB996E"/>
<path d="M358.634 266.331C348.172 273.551 337.12 279.848 325.598 285.153C330.69 281.301 336.109 277.915 341.792 275.036C347.148 271.648 352.783 268.735 358.634 266.331Z" fill="#EB996E"/>
<path d="M397.013 347.009C394.92 345.3 393.019 343.361 391.345 341.228C388.107 337.516 383.475 332.293 378.552 326.478C373.629 320.664 369.257 315.342 366.148 311.433C364.334 309.414 362.728 307.213 361.354 304.863C363.428 306.595 365.327 308.532 367.022 310.645C370.261 314.357 374.86 319.58 379.815 325.394C384.771 331.209 389.111 336.563 392.22 340.472C394.019 342.491 395.625 344.68 397.013 347.009Z" fill="#263238"/>
<path d="M450 288.767C441.779 286.987 433.676 284.683 425.741 281.868C417.645 279.579 409.704 276.759 401.969 273.426C410.193 275.18 418.296 277.473 426.227 280.292C434.331 282.569 442.274 285.4 450 288.767Z" fill="#263238"/>
<path d="M447.053 182.925C441.06 189.06 434.677 194.788 427.944 200.073C421.511 205.804 414.716 211.104 407.604 215.939C413.725 209.821 420.216 204.094 427.037 198.792C433.396 193.109 440.08 187.811 447.053 182.925Z" fill="#263238"/>
<path d="M373.435 157.04C373.14 166.641 372.297 176.216 370.909 185.718C370.048 195.273 368.654 204.771 366.731 214.165C367.026 204.576 367.87 195.011 369.257 185.52C370.115 175.954 371.51 166.445 373.435 157.04Z" fill="#263238"/>
<path d="M316.238 211.077C313.084 204.538 310.431 197.762 308.303 190.809C305.639 184.039 303.474 177.077 301.825 169.982C304.975 176.528 307.638 183.303 309.792 190.251C312.468 197.014 314.623 203.977 316.238 211.077Z" fill="#263238"/>
</svg>
