<svg width="720" height="658" viewBox="0 0 720 658" fill="none" xmlns="http://www.w3.org/2000/svg">
<path d="M375.295 56.0751C291.347 42.3161 283.539 114.839 284.11 135.641C284.681 156.443 292.101 174.89 299.772 194.384C307.443 213.877 302.58 240.436 296.119 260.322C288.562 283.588 264.499 304.935 273.106 327.917C279.955 345.928 304.772 354.759 307.831 373.707C310.251 388.687 297.626 401.705 292.968 416.183C284.179 443.483 304.384 470.848 323.242 492.958C331.072 502.095 340.524 512.016 352.921 512.19C369.975 512.409 380.112 494.747 387.806 480.224C409.26 439.832 440.738 405.066 479.493 378.962" fill="#263238"/>
<path d="M323.675 164.664C322.076 165.539 320.331 166.144 318.516 166.452C309.739 168.326 300.544 166.93 292.808 162.548C291.171 161.731 289.701 160.638 288.471 159.321C288.471 159.169 290.251 160.368 293.219 161.851C300.926 165.719 309.743 167.081 318.333 165.732C321.643 165.121 323.607 164.489 323.675 164.664Z" fill="#455A64"/>
<path d="M298.493 349.155C296.739 347.281 295.165 345.259 293.79 343.115C289.145 335.788 286.222 327.585 285.22 319.073C284.219 310.561 285.165 301.943 287.991 293.814C290.147 288.149 292.998 282.747 296.484 277.722C300 272.445 303.95 267.234 307.625 261.674C317.594 246.593 322.515 228.97 321.735 211.152C321.553 206.46 321.004 201.788 320.091 197.175C318.718 190.491 316.527 183.985 313.561 177.79C312.602 175.61 311.575 173.952 311.004 172.797C310.665 172.235 310.382 171.643 310.16 171.031C310.552 171.562 310.91 172.115 311.233 172.688C311.849 173.8 312.945 175.37 313.972 177.594C317.092 183.765 319.393 190.284 320.821 197C321.802 201.651 322.405 206.368 322.625 211.108C322.931 216.541 322.679 221.989 321.872 227.375C320.16 239.797 315.609 251.708 308.539 262.262C304.84 267.888 300.868 273.165 297.375 278.311C293.917 283.257 291.089 288.578 288.95 294.163C285.469 303.706 284.681 313.957 286.667 323.883C287.955 330.577 290.442 337.01 294.018 342.897C296.781 347.04 298.607 349.068 298.493 349.155Z" fill="#455A64"/>
<path d="M575.906 270.003C575.906 270.003 617.982 270.003 646.68 328.637C667.935 372.246 728.55 520.215 718.984 561.949C716.838 571.26 710.72 592.018 695.103 592.302C668.529 592.781 649.899 591.386 649.899 591.386L615.905 516.268L583.097 409.075C583.097 409.075 530.245 280.142 575.906 270.003Z" fill="#E5E0F0"/>
<path d="M628.599 588.922L618.051 521L575.906 270.003L523.579 266.253L425.225 284.896C425.225 284.896 367.19 293.879 337.419 314.18C337.419 314.18 346.255 451.551 346.757 465.899C347.853 497.189 368.263 525.252 388.765 550.087L394.176 556.629L391.39 596.03L628.599 588.922Z" fill="#E5E0F0"/>
<path d="M382.578 294.708C382.578 294.708 341.209 303.299 314.589 336.137C293.128 362.63 192.971 480.639 192.971 480.639C192.971 480.639 141.488 508.178 131.922 536.59C122.356 565.002 132.059 590.187 154.388 590.187C176.716 590.187 234.294 575.599 234.294 575.599L346.414 452.99L348.949 474.119L374.61 366.97L382.578 294.708Z" fill="#E5E0F0"/>
<path d="M572.116 378.33C572.329 378.747 572.49 379.186 572.596 379.638C572.892 380.641 573.281 381.819 573.76 383.476C574.81 386.921 576.226 391.696 577.984 397.54C581.591 409.402 586.728 425.777 592.504 443.81C598.28 461.843 603.577 478.022 607.435 489.971L612.001 503.97L613.165 507.786C613.327 508.224 613.441 508.677 613.508 509.138C613.262 508.733 613.07 508.301 612.937 507.851C612.595 506.892 612.115 505.671 611.567 504.101C610.357 500.677 608.713 495.968 606.704 490.211C602.686 478.458 597.253 462.192 591.476 444.137C585.7 426.083 580.678 409.685 577.276 397.758C575.586 391.784 574.239 386.856 573.395 383.585C573.007 381.993 572.71 380.707 572.459 379.704C572.286 379.261 572.171 378.8 572.116 378.33Z" fill="#263238"/>
<path d="M533.396 514.894C532.449 515.181 531.479 515.393 530.496 515.527C529.358 515.755 528.207 515.923 527.049 516.028C525.679 516.159 524.149 516.377 522.483 516.421C518.473 516.653 514.45 516.587 510.451 516.224C505.544 515.754 500.688 514.893 495.931 513.651C491.226 512.357 486.644 510.687 482.233 508.658C478.612 506.982 475.132 505.043 471.822 502.858C470.384 501.986 469.196 501.026 468.101 500.241C467.005 499.456 466.137 498.737 465.429 498.061C464.652 497.471 463.941 496.806 463.306 496.077C463.466 495.902 466.594 498.628 472.301 502.16C475.631 504.219 479.102 506.062 482.689 507.677C487.12 509.621 491.699 511.239 496.388 512.518C501.074 513.74 505.852 514.615 510.679 515.134C514.629 515.539 518.603 515.692 522.574 515.592C529.195 515.418 533.35 514.611 533.396 514.894Z" fill="#263238"/>
<path d="M354.748 382.909C354.723 383.331 354.647 383.748 354.519 384.152C354.291 385.068 353.994 386.332 353.629 387.663C353.264 388.993 352.738 391.02 352.259 393.201C351.78 395.381 351.14 397.845 350.661 400.593C349.519 406.088 348.378 412.673 347.67 420.021C346.846 427.992 346.45 435.997 346.483 444.006C346.597 452.532 347.214 460.644 348.081 467.992C348.949 475.34 350.181 481.903 351.414 487.355C351.962 490.102 352.624 492.566 353.149 494.725C353.675 496.883 354.177 498.737 354.611 500.241L355.569 503.73C355.709 504.132 355.793 504.55 355.821 504.973C355.604 504.604 355.443 504.207 355.341 503.796C355.022 502.902 354.656 501.768 354.177 500.372C353.697 498.977 353.081 497.036 352.51 494.877C351.939 492.719 351.186 490.276 350.592 487.529C349.245 482.056 348.013 475.471 347.008 468.123C344.87 452.125 344.724 435.942 346.574 419.912C347.465 412.52 348.583 405.913 349.839 400.44C350.364 397.671 351.072 395.229 351.62 393.048C352.168 390.868 352.716 389.036 353.195 387.554C353.675 386.071 353.994 385.002 354.291 384.087C354.407 383.682 354.559 383.288 354.748 382.909Z" fill="#263238"/>
<path d="M585.038 279.248C585.152 279.466 581.522 280.949 576.568 284.634C570.102 289.409 564.972 295.636 561.634 302.761C558.296 309.886 556.854 317.689 557.436 325.475C557.87 331.449 559.126 335.025 558.897 335.069C558.479 334.288 558.164 333.46 557.961 332.605C557.303 330.291 556.852 327.928 556.614 325.54C555.78 317.594 557.137 309.578 560.549 302.288C563.961 294.998 569.311 288.686 576.066 283.98C578.082 282.554 580.229 281.306 582.481 280.251C583.291 279.825 584.149 279.489 585.038 279.248Z" fill="#263238"/>
<path d="M579.65 407.025C579.329 407.787 578.932 408.517 578.463 409.206C577.139 411.23 575.437 413.004 573.44 414.439C570.287 416.712 566.671 418.331 562.824 419.192C557.72 420.322 552.425 420.426 547.277 419.498C541.098 418.328 535.056 416.575 529.241 414.265C522.653 411.577 515.879 409.326 508.967 407.527C505.233 406.64 501.4 406.193 497.552 406.197C493.552 406.268 489.584 406.892 485.771 408.05C477.763 410.731 470.233 414.57 463.443 419.432C456.614 424.339 449.528 428.909 442.211 433.126C435.311 437.115 427.566 439.58 419.54 440.343C415.786 440.568 412.017 440.222 408.376 439.318C404.975 438.43 401.683 437.195 398.559 435.633C393.061 432.742 387.727 429.576 382.578 426.148C373.08 420.043 364.314 416.641 357.921 416.096C354.626 415.782 351.3 415.951 348.058 416.598L348.675 416.401C349.108 416.401 349.725 416.096 350.547 415.965C352.993 415.531 355.491 415.428 357.967 415.66C364.473 416.074 373.423 419.41 383.08 425.494C387.92 428.438 393.08 431.883 399.061 434.805C402.136 436.303 405.365 437.494 408.696 438.359C412.237 439.211 415.896 439.528 419.54 439.297C427.387 438.527 434.953 436.091 441.686 432.166C448.877 428.329 455.635 423.314 462.827 418.495C469.724 413.586 477.36 409.704 485.475 406.982C489.406 405.793 493.498 405.162 497.62 405.106C501.554 405.122 505.471 405.59 509.287 406.502C516.242 408.336 523.054 410.631 529.674 413.371C535.412 415.721 541.387 417.504 547.505 418.691C552.534 419.666 557.72 419.629 562.733 418.582C566.519 417.789 570.094 416.26 573.235 414.09C575.223 412.721 576.946 411.031 578.326 409.097C579.194 407.767 579.582 406.982 579.65 407.025Z" fill="#FAFAFA"/>
<path d="M666.999 375.059C666.999 375.059 666.999 375.386 666.543 375.932C666.059 376.7 665.509 377.43 664.899 378.112C662.579 380.707 659.697 382.79 656.452 384.217C651.645 386.328 646.443 387.492 641.155 387.641C634.743 387.7 628.34 387.138 622.046 385.962C615.822 384.766 609.509 384.037 603.166 383.781C598.004 383.717 592.871 384.529 588.006 386.18C584.747 387.33 581.743 389.054 579.148 391.26C577.344 392.874 576.545 393.964 576.454 393.877C576.363 393.79 576.591 393.572 576.979 393.07C577.526 392.292 578.145 391.562 578.828 390.89C581.36 388.487 584.383 386.609 587.709 385.373C592.631 383.555 597.866 382.637 603.143 382.669C609.552 382.836 615.935 383.507 622.229 384.675C628.455 385.85 634.786 386.441 641.133 386.441C646.287 386.341 651.373 385.289 656.109 383.345C659.293 382.013 662.165 380.085 664.557 377.676C666.223 376.215 666.885 375.059 666.999 375.059Z" fill="#FAFAFA"/>
<path d="M685.789 428.917C685.789 428.917 685.789 429.244 685.401 429.833C685.008 430.693 684.551 431.524 684.031 432.319C682.178 435.317 679.87 438.036 677.182 440.387C675.355 442.001 673.384 443.461 671.292 444.748C668.855 446.237 666.28 447.507 663.598 448.542C657.391 450.84 650.692 451.663 644.078 450.94C637.59 450.047 631.157 448.817 624.809 447.255C619.664 446.043 614.378 445.464 609.079 445.533C605.504 445.597 601.967 446.246 598.622 447.452C596.339 448.324 595.084 449.065 595.015 448.956C595.281 448.74 595.563 448.543 595.86 448.367C596.682 447.847 597.553 447.402 598.463 447.037C601.805 445.65 605.391 444.873 609.033 444.748C614.406 444.554 619.781 445.053 625.014 446.231C631.34 447.729 637.741 448.922 644.192 449.806C650.615 450.53 657.126 449.782 663.187 447.626C665.809 446.652 668.331 445.447 670.721 444.028C672.807 442.773 674.777 441.35 676.611 439.776C679.278 437.507 681.619 434.912 683.574 432.057C685.058 430.073 685.675 428.874 685.789 428.917Z" fill="#FAFAFA"/>
<path d="M354.633 495.771C357.956 494.988 361.023 493.43 363.56 491.236C366.518 488.647 369.33 485.911 371.985 483.037C375.68 479.327 379.898 476.128 384.518 473.53C390.128 470.357 396.332 468.261 402.783 467.36C406.389 466.9 410.044 466.9 413.65 467.36C417.468 467.885 421.197 468.882 424.746 470.325C432.074 473.16 439.06 477.39 446.777 480.661C450.661 482.375 454.782 483.55 459.014 484.149C461.164 484.418 463.337 484.469 465.498 484.302C467.692 484.095 469.862 483.701 471.982 483.124C480.566 480.704 487.963 475.972 495.589 472.222C502.877 468.632 510.526 465.754 518.419 463.631C531.844 460.07 545.781 458.597 559.696 459.27C569.055 459.721 578.33 461.184 587.344 463.631C590.54 464.459 592.96 465.31 594.604 465.811L596.453 466.466L597.07 466.727C596.861 466.725 596.654 466.696 596.453 466.64L594.559 466.095C592.915 465.572 590.472 464.808 587.276 464.045C578.29 461.781 569.073 460.458 559.788 460.098C545.966 459.543 532.14 461.096 518.83 464.699C510.986 466.807 503.389 469.679 496.159 473.269C488.625 476.932 481.183 481.707 472.347 484.171C470.153 484.771 467.906 485.179 465.635 485.392C463.352 485.57 461.056 485.511 458.786 485.218C454.451 484.601 450.231 483.397 446.252 481.642C438.421 478.306 431.458 474.054 424.266 471.263C420.809 469.829 417.171 468.832 413.445 468.297C409.921 467.85 406.352 467.85 402.828 468.297C396.479 469.145 390.362 471.159 384.815 474.228C380.234 476.756 376.04 479.874 372.35 483.495C369.641 486.336 366.768 489.03 363.743 491.563C361.789 493.161 359.545 494.403 357.122 495.226C356.32 495.507 355.484 495.691 354.633 495.771Z" fill="#FAFAFA"/>
<path d="M327.054 472.266C326.004 471.337 324.71 470.697 323.31 470.412C321.648 470.141 319.95 470.141 318.287 470.412C316.324 470.696 314.109 471.219 311.575 471.546C308.768 471.9 305.914 471.655 303.219 470.827C300.164 469.826 297.336 468.28 294.886 466.269C292.199 464.055 289.847 461.494 287.9 458.659C285.896 455.596 284.192 452.362 282.809 449C280.401 442.502 277.611 436.14 274.453 429.942C271.734 424.989 267.664 420.83 262.672 417.906C260.753 416.815 258.687 415.978 256.531 415.42C254.887 415.041 253.198 414.872 251.508 414.919C248.723 415.071 247.262 415.638 247.216 415.507C247.17 415.377 247.559 415.333 248.266 415.115C249.306 414.773 250.388 414.56 251.485 414.483C253.22 414.358 254.965 414.468 256.668 414.81C258.922 415.314 261.09 416.121 263.106 417.208C268.305 420.13 272.563 424.362 275.412 429.441C278.665 435.636 281.502 442.024 283.905 448.564C285.263 451.861 286.929 455.036 288.882 458.049C290.756 460.8 293.014 463.294 295.594 465.463C297.931 467.408 300.624 468.924 303.539 469.933C306.094 470.752 308.804 471.035 311.484 470.761C316.392 470.107 320.616 469.148 323.401 469.911C324.491 470.153 325.503 470.648 326.346 471.35C326.63 471.619 326.868 471.928 327.054 472.266Z" fill="#FAFAFA"/>
<path d="M348.697 408.006C348.697 408.006 348.469 408.159 347.944 408.334C347.205 408.61 346.44 408.821 345.661 408.966C342.731 409.402 339.735 409.17 336.917 408.29C332.754 406.975 328.932 404.827 325.707 401.988C321.897 398.467 318.449 394.604 315.411 390.454C312.4 386.377 308.906 382.645 305 379.333C301.734 376.756 297.903 374.915 293.79 373.947C291.007 373.302 288.103 373.302 285.32 373.947C283.38 374.427 282.375 374.994 282.329 374.885C282.284 374.776 282.535 374.689 283.014 374.449C283.74 374.064 284.505 373.75 285.297 373.511C288.133 372.685 291.143 372.565 294.041 373.162C298.34 374.046 302.36 375.883 305.776 378.526C309.802 381.843 313.383 385.622 316.438 389.778C319.444 393.868 322.821 397.699 326.529 401.225C329.622 403.998 333.272 406.142 337.259 407.527C339.957 408.446 342.834 408.781 345.684 408.508C347.602 408.29 348.675 407.876 348.697 408.006Z" fill="#FAFAFA"/>
<path d="M456.046 90.9847C429.54 33.8122 351.597 67.7843 351.597 67.7843C314.84 80.671 309.635 120.116 318.128 147.089C327.556 177.005 340.296 213.179 352.373 233.72C376.71 274.996 414.015 268.106 414.015 268.106L426.526 297.499C429.125 303.603 432.963 309.154 437.821 313.832C442.678 318.51 448.458 322.223 454.827 324.755C461.195 327.287 468.026 328.589 474.925 328.586C481.823 328.582 488.652 327.273 495.018 324.734C507.518 319.73 517.492 310.282 522.835 298.385C528.177 286.488 528.468 273.074 523.647 260.976L456.046 90.9847Z" fill="#FFBE9D"/>
<path d="M339.748 176.329C340.302 177.8 341.435 179.006 342.907 179.69C344.378 180.374 346.071 180.483 347.624 179.992C348.397 179.783 349.118 179.427 349.745 178.948C350.372 178.468 350.892 177.873 351.275 177.199C351.658 176.525 351.895 175.784 351.974 175.02C352.053 174.257 351.971 173.486 351.734 172.753C351.18 171.283 350.046 170.077 348.575 169.393C347.104 168.708 345.411 168.6 343.857 169.09C343.085 169.3 342.364 169.655 341.737 170.135C341.11 170.614 340.59 171.209 340.207 171.883C339.824 172.558 339.586 173.299 339.508 174.062C339.429 174.825 339.51 175.596 339.748 176.329Z" fill="#263238"/>
<path d="M334.269 168.785C335.296 169.243 338.515 164.424 344.862 162.243C351.209 160.063 357.031 161.393 357.442 160.412C357.647 159.954 356.391 158.907 353.811 158.231C350.363 157.388 346.726 157.586 343.401 158.798C340.102 159.95 337.272 162.072 335.319 164.86C333.903 167.018 333.903 168.567 334.269 168.785Z" fill="#263238"/>
<path d="M399.084 158.166C399.638 159.636 400.772 160.842 402.243 161.526C403.714 162.21 405.407 162.319 406.961 161.829C407.733 161.619 408.454 161.264 409.081 160.784C409.708 160.305 410.228 159.71 410.611 159.036C410.994 158.361 411.232 157.62 411.311 156.857C411.389 156.093 411.308 155.323 411.07 154.59C410.516 153.119 409.383 151.913 407.911 151.229C406.44 150.545 404.748 150.436 403.194 150.926C402.421 151.136 401.7 151.491 401.073 151.971C400.446 152.451 399.926 153.045 399.543 153.72C399.16 154.394 398.923 155.135 398.844 155.898C398.765 156.662 398.847 157.433 399.084 158.166Z" fill="#263238"/>
<path d="M396.596 146.696C397.623 147.154 400.865 142.335 407.189 140.155C413.513 137.974 419.358 139.304 419.769 138.323C419.974 137.865 418.718 136.819 416.139 136.143C412.69 135.299 409.053 135.497 405.728 136.71C402.426 137.867 399.596 139.998 397.646 142.793C396.253 144.93 396.116 146.478 396.596 146.696Z" fill="#263238"/>
<path d="M392.6 199.9C392.486 199.53 388.308 200.293 381.619 201.776C379.929 202.19 378.286 202.408 377.601 201.448C376.846 199.905 376.599 198.179 376.893 196.499C376.893 192.138 377.03 187.777 377.121 183.023C377.258 163.9 376.71 148.419 375.911 148.419C375.112 148.419 374.336 163.922 374.199 183.045V196.499C373.915 198.727 374.457 200.979 375.729 202.866C376.176 203.327 376.727 203.686 377.339 203.916C377.952 204.147 378.611 204.242 379.267 204.196C380.257 204.111 381.232 203.906 382.167 203.585C388.696 201.623 392.715 200.249 392.6 199.9Z" fill="#263238"/>
<path d="M414.107 268.215C435.857 260.866 455.046 247.898 469.539 230.754C469.539 230.754 465.886 266.318 418.33 278.507L414.107 268.215Z" fill="#EB996E"/>
<path d="M403.399 219.721C402.445 219.028 401.733 218.075 401.356 216.988C400.98 215.901 400.957 214.73 401.291 213.631C401.624 212.531 402.299 211.553 403.225 210.827C404.152 210.1 405.287 209.658 406.481 209.56C405.987 208.539 405.865 207.39 406.134 206.296C406.403 205.201 407.048 204.224 407.965 203.52C408.903 202.848 409.991 202.394 411.144 202.194C412.297 201.993 413.484 202.052 414.609 202.364C416.785 202.987 418.687 204.272 420.027 206.024C421.367 207.776 422.07 209.898 422.029 212.067C421.876 214.23 421.051 216.3 419.66 218.013C418.269 219.725 416.376 221.003 414.221 221.683C412.04 222.292 409.728 222.326 407.529 221.781C405.331 221.236 403.327 220.132 401.733 218.587" fill="#EB996E"/>
<path d="M412.874 197.48C411.824 197.785 414.358 204.349 410.294 211.108C406.23 217.868 398.605 219.721 398.879 220.659C398.879 221.116 401.025 221.356 404.153 220.353C408.201 218.978 411.613 216.284 413.787 212.743C415.881 209.345 416.504 205.3 415.522 201.47C414.746 198.614 413.33 197.262 412.874 197.48Z" fill="#263238"/>
<path d="M386.938 138.04C388.217 139.479 394.244 136.448 402.006 134.682C409.769 132.916 416.549 132.698 416.96 130.866C417.12 130.016 415.476 128.838 412.394 128.097C408.403 127.299 404.275 127.378 400.32 128.326C396.365 129.274 392.688 131.067 389.564 133.57C387.235 135.576 386.413 137.386 386.938 138.04Z" fill="#263238"/>
<path d="M325.57 149.618C327.214 150.599 331.027 147.634 336.255 145.715C341.483 143.796 346.3 143.186 346.78 141.354C346.939 140.482 345.707 139.37 343.264 138.737C340.048 138.109 336.709 138.405 333.669 139.589C330.629 140.773 328.025 142.791 326.187 145.388C324.771 147.503 324.771 149.138 325.57 149.618Z" fill="#263238"/>
<path d="M423.627 162.091C423.624 162.271 423.584 162.449 423.509 162.615C423.434 162.78 423.325 162.93 423.19 163.056C423.054 163.181 422.894 163.28 422.718 163.346C422.542 163.413 422.355 163.445 422.166 163.442C421.875 163.442 421.591 163.359 421.349 163.204C421.108 163.049 420.921 162.828 420.812 162.57C420.703 162.313 420.677 162.03 420.737 161.758C420.797 161.486 420.941 161.238 421.15 161.045C421.359 160.851 421.623 160.722 421.91 160.673C422.196 160.624 422.491 160.658 422.757 160.771C423.023 160.883 423.248 161.069 423.403 161.304C423.558 161.539 423.636 161.813 423.627 162.091Z" fill="#263238"/>
<path d="M575.906 270.003C575.906 269.894 571.34 223.45 533.761 191.505C496.182 159.561 547.094 147.089 514.446 104.809C503.693 90.8539 491.616 78.1634 476.251 69.049C473.537 67.4096 470.971 65.557 468.58 63.5105C462.21 58.1247 456.663 51.8667 449.722 47.1568C444.577 43.4528 438.393 41.2969 431.96 40.9642C428.131 39.4371 424.121 38.3607 420.02 37.7589C401.755 35.1205 383.491 42.1199 366.482 49.032C349.976 55.6825 305.594 54.069 319.634 97.4172C322.557 90.1997 333.88 84.3342 342.807 91.3336C348.613 95.3807 352.511 101.454 353.652 108.232C355.638 118.328 358.743 129.514 371.551 132.109C374.682 132.72 377.914 132.675 381.025 131.978C391.733 129.798 400.317 114.251 420.705 117.914C420.705 117.914 440.567 123.801 441.731 135.728C442.896 147.656 435.978 169.81 448.215 180.363C460.452 190.917 462.507 190.611 462.165 199.726C462.165 201.797 462.165 203.258 461.959 204.283C460.407 218.718 457.804 281.385 524.743 270.723L547.254 269.414L575.883 270.09L575.906 270.003Z" fill="#263238"/>
<path d="M435.476 47.2222C438.118 33.8869 445.082 21.6822 455.384 12.3344C465.84 3.32892 480.498 -1.68621 494.196 0.516091C507.894 2.71839 520.679 12.7487 523.875 25.8098C527.072 38.871 519.743 54.1562 506.593 58.8007C496.616 62.3985 485.566 60.0435 474.927 59.8037C464.288 59.5638 451.8 62.8346 448.056 72.3415" fill="#263238"/>
<path d="M478.009 56.7074C477.74 55.3986 477.118 54.1794 476.206 53.17C475.293 52.1605 474.12 51.3957 472.804 50.9509C470.151 50.0916 467.453 49.3638 464.722 48.7704C460.81 47.6222 457.293 45.4909 454.539 42.5996C452.256 40.201 450.567 37.3228 448.33 34.8806C447.296 33.5888 445.99 32.5192 444.495 31.7415C443 30.9638 441.351 30.4955 439.654 30.367C438.313 30.3782 436.998 30.7132 435.829 31.3408C434.661 31.9684 433.677 32.8682 432.971 33.9564C432.265 35.0446 431.858 36.2858 431.789 37.5645C431.72 38.8432 431.991 40.1177 432.577 41.2695C441.161 47.9636 449.836 55.181 459.608 60.1743C462.864 62.2197 466.648 63.3667 470.544 63.4887C474.425 63.2488 478.397 60.3052 478.009 56.7074Z" fill="#E5E0F0"/>
<path d="M601.933 277.112C601.935 276.505 601.988 275.9 602.093 275.302C602.252 274.124 602.389 272.38 602.526 270.156C602.786 263.811 602.071 257.463 600.403 251.316C597.983 242.194 593.45 233.707 587.139 226.481C580.061 218.304 569.833 211.631 558.966 205.112C548.099 198.592 537.665 192.029 530.063 184.07C526.408 180.343 523.368 176.109 521.044 171.51C519.073 167.464 517.867 163.115 517.483 158.667C516.769 152.222 518.233 145.727 521.661 140.133C522.609 138.64 523.743 137.264 525.04 136.034C525.483 135.597 525.956 135.189 526.455 134.813C524.828 136.539 523.354 138.391 522.049 140.351C518.862 145.921 517.562 152.297 518.328 158.602C518.745 162.938 519.967 167.168 521.935 171.096C524.256 175.582 527.265 179.712 530.862 183.35C538.373 191.178 548.715 197.633 559.605 204.152C570.495 210.672 580.815 217.431 587.983 225.826C598.689 238.26 604.05 254.112 602.983 270.178C602.854 271.91 602.633 273.635 602.321 275.345C602.251 275.945 602.121 276.536 601.933 277.112Z" fill="#263238"/>
<path d="M457.348 58.648C457.122 59.207 456.863 59.7531 456.571 60.2834C456.046 61.3518 455.179 62.9 453.991 64.8188C450.643 70.2859 446.702 75.4018 442.234 80.0823C435.593 87.0652 427.898 93.0622 419.403 97.8751C414.413 100.757 409.117 103.125 403.605 104.94C397.631 106.978 391.215 107.541 384.952 106.575C381.774 105.985 378.763 104.759 376.117 102.977C373.574 101.23 371.359 99.0844 369.564 96.6322C366.408 91.9788 363.541 87.1515 360.98 82.1755C359.708 79.9035 358.274 77.7178 356.688 75.634C355.167 73.7391 353.42 72.0195 351.483 70.5099C347.925 67.8655 343.838 65.9437 339.474 64.8624C333.129 63.2653 326.435 63.4623 320.205 65.4293C317.94 66.2201 315.736 67.1599 313.607 68.2422C314.095 67.8677 314.614 67.5323 315.16 67.2392C315.793 66.831 316.466 66.4806 317.169 66.1925C318.095 65.7308 319.056 65.3371 320.045 65.015C325.395 63.2069 331.131 62.6967 336.738 63.5302C342.345 64.3637 347.647 66.5149 352.168 69.7903C354.188 71.3336 356.005 73.1055 357.578 75.0671C359.22 77.1418 360.7 79.3281 362.008 81.6086C364.575 86.5278 367.434 91.3035 370.569 95.9126C372.306 98.257 374.434 100.312 376.87 101.996C379.394 103.673 382.255 104.831 385.272 105.398C391.329 106.313 397.529 105.766 403.308 103.806C408.752 102.047 413.98 99.7298 418.901 96.8938C427.359 92.1708 435.05 86.2943 441.731 79.4499C446.216 74.8472 450.229 69.8457 453.717 64.5135C454.95 62.6165 455.863 61.1338 456.457 60.1526C456.714 59.6307 457.012 59.1278 457.348 58.648Z" fill="#455A64"/>
<path d="M464.037 63.009C464.29 64.0031 464.443 65.018 464.493 66.0399C464.608 67.0211 464.493 68.2204 464.63 69.6377C464.598 71.2273 464.476 72.8141 464.265 74.3912C463.055 83.6218 459.092 92.3258 452.85 99.4668C449.481 103.42 445.445 106.81 440.91 109.497C437.181 111.597 433.288 113.42 429.266 114.948C425.887 116.322 423.17 117.456 421.321 118.285C420.395 118.787 419.425 119.21 418.422 119.549C419.254 118.906 420.158 118.35 421.116 117.892C422.896 116.933 425.682 115.712 428.924 114.229C432.86 112.615 436.674 110.743 440.339 108.625C444.74 105.947 448.663 102.612 451.96 98.7473C458.017 91.7314 461.962 83.2748 463.375 74.2821C463.885 70.5451 464.107 66.7772 464.037 63.009Z" fill="#455A64"/>
<path d="M538.784 266.144C538.718 265.535 538.718 264.921 538.784 264.312C538.784 263.091 538.944 261.325 538.784 259.013C538.685 252.541 537.718 246.107 535.907 239.869C534.606 235.585 532.95 231.407 530.953 227.375C528.604 222.754 525.774 218.371 522.506 214.292C518.885 209.82 514.724 205.772 510.109 202.233C505.314 198.548 499.881 195.256 494.767 191.331C492.205 189.36 489.836 187.17 487.689 184.789C485.627 182.441 483.907 179.837 482.575 177.049C480.231 171.75 478.753 166.139 478.192 160.412C477.507 154.982 477.233 149.814 476.708 145.017C476.281 140.582 475.386 136.198 474.037 131.934C472.266 125.681 468.634 120.054 463.58 115.733C461.605 114.298 459.46 113.09 457.188 112.135C457.82 112.284 458.438 112.481 459.037 112.724C460.75 113.42 462.368 114.313 463.854 115.384C469.144 119.647 472.97 125.329 474.836 131.694C476.269 135.999 477.226 140.435 477.69 144.93C478.26 149.771 478.58 154.917 479.265 160.303C479.858 165.917 481.328 171.414 483.625 176.613C486.402 182.053 490.476 186.796 495.52 190.459C500.566 194.427 505.976 197.742 510.839 201.47C515.513 205.063 519.727 209.169 523.396 213.703C526.675 217.834 529.512 222.268 531.866 226.938C533.837 231.041 535.471 235.284 536.752 239.629C538.491 245.947 539.344 252.459 539.286 258.992C539.279 260.763 539.164 262.532 538.944 264.29C538.96 264.912 538.906 265.533 538.784 266.144Z" fill="#455A64"/>
<path d="M521.455 18.2653C518.066 16.33 514.408 14.8618 510.588 13.9043C501.229 11.8899 491.423 13.1592 482.963 17.4803C474.629 21.9981 467.672 28.5142 462.781 36.3851C461.257 38.7415 459.862 41.1725 458.603 43.668C458.201 44.6228 457.712 45.5421 457.142 46.4154C457.374 45.4064 457.727 44.4261 458.192 43.4936C459.288 40.8972 460.586 38.3827 462.074 35.9709C466.845 27.8079 473.885 21.0621 482.415 16.4773C491.099 11.9985 501.225 10.7925 510.794 13.0975C513.653 13.8197 516.385 14.9441 518.898 16.4337C519.573 16.8312 520.221 17.2681 520.839 17.742C521.273 18.0472 521.478 18.2435 521.455 18.2653Z" fill="#455A64"/>
<path d="M517.643 44.9763C517.529 45.1508 514.949 43.3192 510.223 41.4003C504.105 38.868 497.452 37.7328 490.794 38.0848C484.136 38.4368 477.656 40.2664 471.868 43.4282C467.416 45.8267 465.019 47.92 465.019 47.7892C465.451 47.2007 465.974 46.6786 466.571 46.241C468.117 44.9381 469.783 43.7705 471.548 42.7522C477.362 39.3086 483.983 37.3055 490.813 36.9247C497.642 36.544 504.463 37.7975 510.657 40.5718C512.522 41.4059 514.309 42.3907 515.999 43.5154C517.095 44.4094 517.688 44.9109 517.643 44.9763Z" fill="#455A64"/>
<path d="M369.199 658L167.195 641.712L340.981 593.239L523.807 593.523L369.199 658Z" fill="#E5E0F0"/>
<path d="M369.199 658C369.199 658 370.158 657.542 372.007 656.757L380.203 653.246L411.436 640.164L523.624 593.109L523.807 594.024L340.981 593.828H341.141L325.684 598.189L167.241 642.191V641.21L313.356 653.181L354.633 656.67L365.546 657.607L368.354 657.891L369.313 658H368.377L365.569 657.826L354.679 657.019L313.356 653.792L167.241 642.213L164.387 641.995L167.127 641.232L325.456 597.012L340.912 592.651H341.072L523.898 593.021H526.295L524.012 593.915L411.527 640.621L380.226 653.552L371.985 656.91L369.199 658Z" fill="#263238"/>
<path d="M167.195 641.712L-27.1372 628.018L158.177 594.526H333.835L167.195 641.712Z" fill="#E0E0E0"/>
<path d="M167.241 641.712C167.241 641.712 168.268 641.363 170.278 640.774L179.136 638.179L212.902 628.498L333.766 594.068L333.926 595.006H158.269L141.58 598.015L-27.0459 628.498V627.517L113.567 637.634L153.178 640.556L163.634 641.385L166.328 641.603L167.241 641.712H166.328L163.657 641.559L153.2 640.905L113.59 638.245L-27.1372 628.542L-31.1326 628.258L-27.1829 627.539L141.42 597.012L158.109 593.981H333.766H337.259L333.903 594.918L212.902 628.999L179.136 638.419L170.232 640.861C168.223 641.472 167.241 641.712 167.241 641.712Z" fill="#263238"/>
<path d="M167.241 641.712C167.241 641.712 162.675 601.394 127.653 604.643C92.6312 607.892 46.1027 630.417 7.90741 630.417L-33.1874 627.364L54.2989 610.16C54.2989 610.16 271.462 566.354 271.462 567.728C271.462 569.101 344.519 552.312 341.871 593.654L167.241 641.712Z" fill="#E5E0F0"/>
<path d="M167.241 641.712C167.241 641.712 168.337 641.363 170.46 640.774L179.798 638.157L215.185 628.302L341.78 593.261L341.437 593.697C341.734 589.928 341.205 586.14 339.885 582.577C338.447 578.975 335.97 575.837 332.739 573.528C326.141 568.818 317.534 567.095 309.041 566.397C300.254 565.839 291.43 566.094 282.695 567.161L275.982 567.989C274.841 568.12 273.699 568.273 272.558 568.382C272.232 568.415 271.902 568.415 271.576 568.382H271.371C271.216 568.323 271.087 568.215 271.005 568.076C270.846 567.749 271.005 567.815 271.005 568.076C271.165 568.403 271.302 568.207 271.302 568.251H270.846L269.179 568.491C264.613 569.188 260.047 570.039 255.481 570.889C218.952 577.78 180.3 585.52 140.21 593.479L49.7328 611.577L-33.0732 627.996V626.993L8.02162 630.068C21.261 629.649 34.3993 627.709 47.153 624.289C59.4129 621.28 70.8738 617.748 81.6726 614.695C92.4714 611.643 102.631 608.764 112.197 606.802C116.968 605.821 121.58 605.058 126.032 604.621C130.293 604.047 134.626 604.18 138.84 605.014C145.974 606.551 152.303 610.462 156.693 616.047C159.917 620.107 162.438 624.635 164.159 629.457C165.258 632.42 166.113 635.46 166.716 638.55C166.939 639.609 167.099 640.679 167.195 641.755C167.195 641.755 167.195 641.472 167.036 640.948C166.876 640.425 166.807 639.618 166.556 638.594C165.907 635.524 165.014 632.506 163.885 629.566C162.117 624.797 159.574 620.324 156.351 616.309C151.984 610.842 145.732 607.026 138.703 605.537C134.549 604.766 130.29 604.662 126.101 605.232C121.694 605.734 116.968 606.497 112.402 607.413C102.882 609.397 92.7682 612.231 81.9694 615.393C71.1706 618.555 59.7326 622.044 47.4498 625.096C34.5703 628.551 21.3009 630.505 7.93031 630.918L-33.2101 627.996L-37 627.735L-33.2786 626.993L49.5959 610.552L140.096 592.411C180.186 584.452 218.861 576.733 255.367 569.864C259.933 569.036 264.499 568.185 269.065 567.466C273.631 567.357 278.06 566.485 282.558 566.07C291.37 565 300.27 564.751 309.132 565.329C317.739 566.049 326.506 567.793 333.355 572.699C336.715 575.134 339.281 578.431 340.752 582.206C342.11 585.89 342.646 589.804 342.328 593.697V594.046H341.985L214.911 628.694L179.57 638.266L170.3 640.774L167.241 641.712Z" fill="#263238"/>
<path d="M364.93 644.524C361.254 644.524 231.349 634.778 231.349 634.778L364.93 644.524Z" fill="#E5E0F0"/>
<path d="M231.349 634.778C231.805 634.735 232.263 634.735 232.719 634.778L236.623 634.952L250.938 635.803L298.151 639.095L345.319 642.693L359.633 643.914L363.514 644.306C363.978 644.331 364.437 644.404 364.884 644.524C364.429 644.577 363.969 644.577 363.514 644.524L359.633 644.328L345.319 643.478L298.06 640.207L250.892 636.718L236.577 635.497L232.696 635.105C232.232 635.062 231.778 634.952 231.349 634.778Z" fill="#263238"/>
<path d="M386.413 636.086C382.76 636.086 252.855 626.361 252.855 626.361L386.413 636.086Z" fill="#E5E0F0"/>
<path d="M252.81 626.361C253.264 626.308 253.724 626.308 254.179 626.361L258.061 626.535L272.398 627.408L319.611 630.678L366.825 634.298L381.117 635.519L385.021 635.912C385.475 635.935 385.926 636.001 386.368 636.108C385.92 636.161 385.468 636.161 385.021 636.108L381.117 635.933L366.802 635.061L319.566 631.79L272.261 628.193L257.969 626.972L254.088 626.579C253.655 626.552 253.226 626.479 252.81 626.361Z" fill="#263238"/>
<path d="M420.431 626.361C416.755 626.361 280.686 618.599 280.686 618.599L420.431 626.361Z" fill="#E5E0F0"/>
<path d="M280.686 618.598C281.157 618.56 281.63 618.56 282.101 618.598L286.188 618.707L301.164 619.362L350.57 621.935L399.975 624.835L414.929 625.859L419.015 626.187C419.493 626.199 419.968 626.265 420.431 626.383C419.96 626.43 419.486 626.43 419.015 626.383L414.929 626.252L399.952 625.598L350.524 623.025L301.119 620.125L286.165 619.1L282.101 618.773C281.624 618.77 281.148 618.712 280.686 618.598Z" fill="#263238"/>
<path d="M449.699 615.72C446.046 615.72 308.562 610.858 308.562 610.858L449.699 615.72Z" fill="#E5E0F0"/>
<path d="M308.562 610.858C309.039 610.802 309.522 610.802 310 610.858H314.109L329.246 611.207L379.13 612.755L429.038 614.652L444.174 615.35L448.284 615.589C448.761 615.6 449.235 615.659 449.699 615.764C449.229 615.821 448.754 615.821 448.284 615.764H444.174L429.038 615.437L379.108 613.867L329.337 611.97L314.201 611.272L310.091 611.01C309.578 611.003 309.066 610.952 308.562 610.858Z" fill="#263238"/>
<path d="M475.817 603.64L336.438 603.095L475.817 603.64Z" fill="#E5E0F0"/>
<path d="M336.438 603.095C336.438 602.79 367.647 602.659 406.116 602.79C444.585 602.921 475.817 603.313 475.817 603.64C475.817 603.967 444.608 604.076 406.116 603.924C367.624 603.771 336.438 603.4 336.438 603.095Z" fill="#263238"/>
<path d="M134.753 594.613C135.622 594.252 136.535 593.996 137.47 593.85C140.013 593.312 142.606 593.02 145.21 592.978C153.877 592.792 162.407 595.064 169.722 599.508C177.037 603.952 182.807 610.368 186.305 617.944C187.381 620.206 188.214 622.565 188.793 624.987C189.054 625.868 189.199 626.776 189.227 627.691C188.196 624.492 186.969 621.354 185.551 618.293C181.941 610.969 176.225 604.777 169.071 600.437C161.916 596.098 153.617 593.791 145.141 593.784C141.665 593.865 138.196 594.142 134.753 594.613Z" fill="#263238"/>
<path d="M156.1 589.227C156.972 588.849 157.894 588.585 158.839 588.442C161.375 587.911 163.961 587.626 166.556 587.592C175.224 587.4 183.757 589.67 191.073 594.115C198.389 598.56 204.159 604.979 207.651 612.559C208.715 614.823 209.54 617.182 210.117 619.601C210.377 620.482 210.523 621.39 210.55 622.305C209.523 619.098 208.295 615.953 206.875 612.886C203.261 605.571 197.547 599.386 190.397 595.052C183.248 590.717 174.956 588.41 166.488 588.399C163.01 588.466 159.541 588.743 156.1 589.227Z" fill="#263238"/>
<path d="M178.2 585.455C179.065 585.095 179.968 584.825 180.894 584.648C183.385 584.075 185.919 583.689 188.473 583.493C192.285 583.168 196.125 583.336 199.889 583.994C204.528 584.812 208.952 586.502 212.902 588.966C220.053 593.45 225.697 599.81 229.157 607.282C230.216 609.515 231.034 611.846 231.6 614.237C231.861 615.103 231.999 615.997 232.011 616.898C231.01 613.734 229.805 610.631 228.404 607.609C224.799 600.422 219.22 594.303 212.263 589.903C205.166 585.695 196.847 583.762 188.519 584.387C182.127 584.626 178.245 585.673 178.2 585.455Z" fill="#263238"/>
<path d="M201.806 580.81C202.63 580.445 203.496 580.175 204.386 580.004C206.784 579.389 209.226 578.945 211.692 578.674C215.37 578.228 219.099 578.338 222.742 579.001C227.222 579.874 231.461 581.634 235.184 584.168C241.988 588.685 247.34 594.921 250.641 602.179C251.621 604.352 252.385 606.608 252.924 608.917C253.173 609.762 253.303 610.634 253.312 611.512C252.331 608.451 251.172 605.444 249.842 602.506C246.415 595.503 241.115 589.486 234.477 585.062C230.889 582.615 226.82 580.887 222.514 579.982C218.97 579.289 215.338 579.105 211.738 579.437C205.596 580.026 201.852 581.029 201.806 580.81Z" fill="#263238"/>
<path d="M226.075 577.191C226.855 576.811 227.684 576.532 228.541 576.362C230.139 575.904 232.468 575.272 235.39 574.662C238.86 573.866 242.46 573.733 245.983 574.269C250.267 575.181 254.279 577.007 257.718 579.611C264.086 584.123 269.069 590.185 272.147 597.164C273.073 599.278 273.799 601.468 274.316 603.706C274.536 604.511 274.658 605.338 274.681 606.17C274.453 606.17 273.836 602.703 271.371 597.448C268.143 590.742 263.205 584.917 257.01 580.505C253.709 578.002 249.876 576.216 245.778 575.272C242.381 574.714 238.904 574.766 235.527 575.425C229.728 576.493 226.121 577.387 226.075 577.191Z" fill="#263238"/>
<path d="M214.957 515.766C221.121 516.791 227.399 515.243 233.632 514.982C239.865 514.72 246.988 516.203 250.207 521.327C251.292 523.328 251.858 525.549 251.858 527.803C251.858 530.057 251.292 532.277 250.207 534.279C248.005 538.265 245.136 541.881 241.714 544.985" fill="#FFBE9D"/>
<path d="M258.745 561.597L161.873 443.091C161.12 442.171 159.729 442.007 158.765 442.726L150.883 448.603C149.919 449.322 149.747 450.651 150.5 451.572L247.371 570.078C248.124 570.998 249.516 571.162 250.48 570.443L258.362 564.566C259.326 563.847 259.497 562.518 258.745 561.597Z" fill="#263238"/>
<path d="M159.653 445.814L152.277 436.791C151.944 436.382 151.327 436.31 150.9 436.628L147.354 439.272C146.927 439.591 146.851 440.18 147.185 440.588L154.561 449.611C154.894 450.019 155.511 450.092 155.939 449.773L159.484 447.13C159.911 446.811 159.987 446.222 159.653 445.814Z" fill="#263238"/>
<path d="M245.184 567.226L261.097 578.914L262.718 577.692L258.061 561.6L245.184 567.226Z" fill="#263238"/>
<path d="M183.474 497.995C183.43 497.993 183.387 497.982 183.347 497.964C183.308 497.945 183.273 497.919 183.245 497.886L152.584 460.36C148.84 455.781 149.091 449.589 153.155 446.536L154.639 445.446C154.664 445.421 154.694 445.402 154.728 445.389C154.761 445.375 154.797 445.369 154.833 445.369C154.869 445.369 154.905 445.375 154.938 445.389C154.971 445.402 155.001 445.421 155.027 445.446C155.056 445.47 155.079 445.5 155.095 445.534C155.111 445.568 155.12 445.605 155.12 445.642C155.12 445.679 155.111 445.716 155.095 445.749C155.079 445.783 155.056 445.813 155.027 445.838L153.566 446.928C149.73 449.785 149.525 455.65 153.063 460.011L183.747 497.538C183.796 497.593 183.822 497.662 183.822 497.734C183.822 497.806 183.796 497.875 183.747 497.93C183.714 497.966 183.67 497.991 183.621 498.003C183.572 498.015 183.521 498.012 183.474 497.995Z" fill="#263238"/>
<path d="M200.962 503.992C200.962 503.992 191.008 495.902 183.542 496.84C176.076 497.777 151.168 523.485 150.164 538.705C149.159 553.925 142.698 562.974 154.159 569.232C165.62 575.49 183.542 585.411 195.482 582.075C195.482 582.075 216.578 584.386 218.952 579.001C218.952 579.001 237.445 584.648 238.815 572.568C238.815 572.568 252.079 570.562 251.28 562.821C250.481 555.081 200.962 503.992 200.962 503.992Z" fill="#FFBE9D"/>
<path d="M238.814 572.481C238.586 572.721 227.057 562.429 213.062 549.52C199.067 536.612 187.948 525.949 188.131 525.709C188.314 525.47 199.889 535.783 213.884 548.692C227.879 561.6 239.043 572.263 238.814 572.481Z" fill="#EB996E"/>
<path d="M218.952 578.914C218.156 578.746 217.388 578.474 216.669 578.107C214.759 577.268 212.899 576.329 211.098 575.294C205.167 571.861 199.553 567.951 194.318 563.606C188.154 558.57 182.903 553.707 179.067 550.175L174.615 545.944C173.565 544.941 173.017 544.353 173.086 544.287C173.752 544.672 174.372 545.125 174.935 545.639C176.076 546.533 177.675 547.82 179.638 549.586C183.588 552.966 188.953 557.719 195.094 562.669C200.298 566.969 205.797 570.932 211.555 574.531C216.098 577.322 219.043 578.739 218.952 578.914Z" fill="#EB996E"/>
<path d="M196.076 581.181C194.104 580.695 192.208 579.962 190.437 579.001C186.063 576.836 181.845 574.396 177.812 571.696C173.745 569.013 169.849 566.1 166.145 562.974C164.539 561.762 163.097 560.363 161.853 558.809C163.555 559.872 165.173 561.053 166.693 562.342C169.638 564.522 173.771 567.575 178.474 570.693C183.177 573.811 187.606 576.406 190.825 578.216C192.635 579.104 194.389 580.094 196.076 581.181Z" fill="#EB996E"/>
<path d="M667.981 511.1C653.214 504.445 636.594 502.51 620.585 505.584C593.44 510.642 536.501 523.616 516.821 525.775C497.141 527.934 414.084 545.683 414.084 545.683L422.828 592.847L694.076 592.302C698.962 563.868 708.117 528.61 667.981 511.1Z" fill="#FFBE9D"/>
<path d="M404.678 592.847H422.942L452.279 537.746C448.512 537.135 370.09 526.08 365.523 527.279L346.734 591.037C346.734 591.037 402.874 592.847 404.678 592.847Z" fill="#FFBE9D"/>
<path d="M351.003 592.04C351.003 592.149 351.506 592.236 352.305 592.324C358.766 593 388.651 591.255 388.651 591.255C389.998 587.57 387.418 576.515 383.696 575.861C379.975 575.207 348.195 577.256 348.195 577.256C348.195 577.256 343.195 577.889 341.94 585.978C341.163 590.928 351.003 592.04 351.003 592.04Z" fill="#FFBE9D"/>
<path d="M340.889 575.817C340.889 575.926 341.414 576.035 342.214 576.101C348.675 576.777 376.916 576.493 378.126 573.201C379.496 569.516 377.327 560.292 373.56 559.638C369.793 558.984 338.058 561.033 338.058 561.033C338.058 561.033 333.036 561.666 331.803 569.755C331.072 574.683 340.889 575.817 340.889 575.817Z" fill="#FFBE9D"/>
<path d="M335.889 559.987C336.298 560.167 336.741 560.263 337.191 560.27C343.675 560.946 371.916 560.641 373.126 557.348C374.496 553.663 372.327 544.44 368.56 543.808C364.793 543.175 333.036 545.203 333.036 545.203C333.036 545.203 328.036 545.835 326.78 553.925C326.072 558.831 335.889 559.987 335.889 559.987Z" fill="#FFBE9D"/>
<path d="M331.186 544.222C331.186 544.331 331.712 544.418 332.488 544.505C338.972 545.181 367.213 544.876 368.423 541.583C369.793 537.92 367.624 528.675 363.857 528.043C360.09 527.41 328.333 529.438 328.333 529.438C328.333 529.438 323.333 530.07 322.077 538.16C321.369 543.066 331.186 544.222 331.186 544.222Z" fill="#FFBE9D"/>
<path d="M375.455 575.665C375.455 576.122 369.245 576.668 361.756 576.886C354.268 577.104 348.058 576.886 348.172 576.406C348.286 575.926 354.359 575.403 361.871 575.185C369.382 574.967 375.478 575.25 375.455 575.665Z" fill="#EB996E"/>
<path d="M375.592 559.812C375.592 560.27 366.871 560.924 356.049 561.252C345.227 561.579 336.46 561.448 336.438 560.99C336.415 560.532 345.182 559.878 356.003 559.551C366.825 559.224 375.592 559.333 375.592 559.812Z" fill="#EB996E"/>
<path d="M374.267 543.633C374.267 544.113 365.523 544.745 354.725 545.072C343.926 545.399 335.113 545.29 335.113 544.832C335.113 544.375 343.835 543.72 354.656 543.393C365.478 543.066 374.245 543.175 374.267 543.633Z" fill="#EB996E"/>
<path d="M419.586 533.646C419.586 533.646 366.277 511.013 362.944 514.284C359.61 517.554 354.474 528.064 354.474 528.064L419.586 533.646Z" fill="#FFBE9D"/>
</svg>
