<svg width="296" height="300" viewBox="0 0 296 300" fill="none" xmlns="http://www.w3.org/2000/svg">
<path d="M10.2008 299.637L33.6 240.987C10.2671 212.615 -1.60983 176.541 0.303376 139.857C2.21658 103.173 17.7815 68.5306 43.9392 42.7395C70.0968 16.9484 104.955 1.87371 141.663 0.478355C178.371 -0.916995 214.273 11.4679 242.313 35.1988C270.353 58.9297 288.503 92.2903 293.196 128.724C297.888 165.157 288.784 202.028 267.672 232.089C246.561 262.151 214.969 283.229 179.105 291.181C143.242 299.133 105.702 293.383 73.8624 275.062L10.2008 299.637Z" fill="white"/>
<path d="M10.2006 299.637L73.6877 274.539V275.541L70.4197 272.36L74.385 274.626C96.7217 287.401 122.032 294.059 147.763 293.929C155.463 293.924 163.147 293.239 170.727 291.881C174.605 291.097 178.613 290.443 182.579 289.528L194.475 285.999C229.66 273.788 258.904 248.686 276.306 215.758C285.945 197.534 291.589 177.466 292.864 156.89C294.097 135.169 290.511 113.444 282.363 93.2718C273.942 72.1737 260.618 53.3837 243.495 38.4559C226.081 23.1224 205.256 12.1717 182.753 6.51629C161.211 1.22409 138.755 0.836918 117.044 5.38336C96.5301 9.65166 77.197 18.3516 60.3978 30.8741C30.2011 53.5682 9.81339 86.9397 3.40312 124.166C0.982463 140.051 0.982463 156.211 3.40312 172.097C7.51028 197.367 18.195 221.111 34.384 240.943L34.6021 241.205V241.51C19.482 278.504 12.1616 296.282 10.6801 299.942L33.5564 241.074V241.641C17.058 221.748 6.11399 197.846 1.83453 172.358C-0.611508 156.358 -0.611508 140.079 1.83453 124.078C8.13103 86.2994 28.7275 52.3934 59.352 29.3925C76.3746 16.5369 96.0317 7.60857 116.913 3.24825C138.962 -1.41115 161.776 -1.05376 183.668 4.29402C206.52 10.0398 227.673 21.1536 245.369 36.7129C262.529 51.8701 275.875 70.8589 284.324 92.1389C292.567 112.637 296.182 134.702 294.912 156.759C293.593 177.649 287.829 198.016 278.005 216.499C260.326 249.87 230.597 275.252 194.867 287.48L182.797 291.01C178.744 291.925 174.736 292.578 170.77 293.319C163.102 294.663 155.331 295.334 147.545 295.324C121.519 295.367 95.9514 288.479 73.4699 275.367L74.167 274.452L74.8207 275.105L73.9491 275.454L10.2006 299.637Z" fill="#263238"/>
<path d="M123.841 98.8928L125.018 96.7141L126.194 98.8492C127.156 100.58 128.593 102.001 130.334 102.945L132.512 104.078L130.334 105.298C128.626 106.257 127.222 107.676 126.281 109.394L125.149 111.573L123.929 109.438C122.981 107.721 121.559 106.314 119.833 105.385L117.654 104.209L119.789 103.032C121.509 102.069 122.915 100.632 123.841 98.8928Z" fill="#80937B"/>
<path d="M38.7415 101.115L39.3952 99.8513L40.0925 101.071C40.6478 102.07 41.48 102.888 42.489 103.424L43.7526 104.122L42.489 104.819C41.49 105.374 40.6727 106.206 40.1359 107.215L39.4824 108.479L38.7851 107.215C38.2299 106.216 37.3977 105.399 36.3886 104.862L35.1251 104.165L36.345 103.468C37.354 102.931 38.1863 102.114 38.7415 101.115Z" fill="#80937B"/>
<path d="M153.341 202.076L153.994 200.812L154.692 202.032C155.247 203.031 156.079 203.848 157.088 204.385L158.352 205.082L157.132 205.779C156.123 206.322 155.303 207.158 154.779 208.176L154.082 209.44L153.385 208.176C152.829 207.177 151.997 206.36 150.988 205.823L149.724 205.126L150.988 204.429C151.993 203.902 152.814 203.081 153.341 202.076Z" fill="#80937B"/>
<path d="M197.35 211.575L198.527 209.44L199.703 211.575C200.725 213.326 202.241 214.735 204.061 215.627L206.239 216.76L204.104 217.98C202.343 218.989 200.93 220.508 200.052 222.338L198.875 224.473L197.655 222.338C196.708 220.621 195.286 219.214 193.559 218.285L191.381 217.109L193.516 215.932C195.196 214.89 196.53 213.374 197.35 211.575Z" fill="#80937B"/>
<path d="M223.059 115.189L225.02 111.573L227.024 115.189C228.643 118.066 231.046 120.423 233.952 121.987L237.612 123.948L233.996 125.952C231.12 127.571 228.762 129.974 227.198 132.88L225.238 136.541L223.233 132.924C221.621 130.032 219.217 127.659 216.305 126.083L212.645 124.166L216.261 122.161C219.144 120.53 221.501 118.112 223.059 115.189Z" fill="#80937B"/>
<path d="M80.2675 62.6829L82.2284 59.0227L84.2326 62.6393C85.8341 65.529 88.2413 67.8907 91.1609 69.4368L94.7776 71.3977L91.2046 73.402C88.3034 75.0029 85.9274 77.4091 84.3634 80.3303L82.4026 83.9905L80.3983 80.3739C78.7791 77.4978 76.3764 75.1405 73.47 73.5763L69.8533 71.6155L73.4264 69.6111C76.3275 68.0103 78.7035 65.6041 80.2675 62.6829Z" fill="#80937B"/>
<path d="M55.7354 146.824H43.9704V140.07H75.9101V147.042H64.1015V176.977H55.3867L55.7354 146.824Z" fill="#263238"/>
<path d="M109.07 160.506V176.759H100.878V161.857C100.878 157.5 98.7426 155.19 95.126 155.19C91.5094 155.19 88.3285 157.587 88.3285 162.816V176.846H80.2675V137.63H88.503V151.356C89.704 150.217 91.1207 149.329 92.6697 148.745C94.2186 148.162 95.8687 147.894 97.5228 147.957C99.1474 147.879 100.769 148.159 102.274 148.777C103.778 149.395 105.129 150.335 106.23 151.532C107.331 152.729 108.156 154.153 108.647 155.703C109.138 157.254 109.282 158.894 109.07 160.506Z" fill="#263238"/>
<path d="M141.576 160.55V176.759H133.907V173.23C132.943 174.609 131.624 175.702 130.09 176.392C128.556 177.082 126.863 177.345 125.192 177.151C118.525 177.151 114.604 173.491 114.604 168.437C114.604 163.382 118.133 159.722 126.761 159.722H133.297C133.297 156.192 131.162 154.145 126.761 154.145C123.815 154.122 120.941 155.055 118.569 156.802L115.649 151.051C119.285 148.719 123.532 147.521 127.85 147.608C136.608 147.957 141.576 151.966 141.576 160.55ZM133.384 167.783V164.864H127.719C123.885 164.864 122.665 166.302 122.665 168.219C122.665 170.136 124.408 171.618 127.327 171.618C128.613 171.706 129.894 171.382 130.984 170.693C132.073 170.003 132.914 168.984 133.384 167.783Z" fill="#263238"/>
<path d="M178.004 160.506V176.759H169.768V161.857C169.768 157.5 167.676 155.19 164.06 155.19C160.443 155.19 157.262 157.587 157.262 162.816V176.846H149.027V148.48H156.87V151.791C158.086 150.55 159.547 149.576 161.16 148.931C162.773 148.286 164.502 147.984 166.239 148.044C167.873 147.935 169.51 148.189 171.035 148.787C172.56 149.385 173.933 150.312 175.057 151.503C176.181 152.694 177.029 154.119 177.538 155.675C178.047 157.231 178.206 158.881 178.004 160.506Z" fill="#263238"/>
<path d="M197.612 165.604L193.647 169.526V176.759H185.455V137.543H193.559V159.678L205.586 148.305H215.346L203.538 160.332L216.392 176.672H206.632L197.612 165.604Z" fill="#263238"/>
<path d="M216.523 174.101L219.268 168.219C222.252 169.985 225.649 170.932 229.116 170.964C232.907 170.964 234.344 169.962 234.344 168.35C234.344 163.731 217.22 168.35 217.22 157.151C217.22 151.748 222.057 147.957 230.292 147.957C234.085 147.893 237.836 148.745 241.229 150.441L238.484 156.28C235.982 154.882 233.158 154.161 230.292 154.188C226.632 154.188 225.02 155.365 225.02 156.802C225.02 161.683 242.144 156.802 242.144 168.132C242.144 173.404 237.264 177.151 228.767 177.151C224.489 177.226 220.266 176.174 216.523 174.101Z" fill="#263238"/>
<path d="M246.066 172.358C246.066 171.018 246.599 169.732 247.546 168.784C248.494 167.836 249.78 167.304 251.121 167.304C252.461 167.304 253.747 167.836 254.695 168.784C255.643 169.732 256.175 171.018 256.175 172.358C256.175 173.699 255.643 174.985 254.695 175.933C253.747 176.88 252.461 177.413 251.121 177.413C249.78 177.413 248.494 176.88 247.546 175.933C246.599 174.985 246.066 173.699 246.066 172.358ZM246.066 139.852H255.87L254.258 163.949H247.722L246.066 139.852Z" fill="#263238"/>
</svg>
