<svg width="200" height="200" viewBox="0 0 200 200" fill="none" xmlns="http://www.w3.org/2000/svg">
<path d="M44.1055 50C31.9773 63.5455 25.1871 81.0381 25 99.2188C24.5391 140.762 58.457 174.922 100 175C141.484 175.078 175 141.473 175 100C175 59.1641 142.363 25.9336 101.758 25C101.529 24.9927 101.302 25.0314 101.088 25.114C100.875 25.1965 100.681 25.3212 100.517 25.4805C100.353 25.6398 100.222 25.8305 100.134 26.0412C100.045 26.2519 99.9994 26.4784 100 26.7071V59.375" stroke="#8FA38B" stroke-linecap="round" stroke-linejoin="round"/>
<path d="M91.164 108.84L60.3046 64.6992C59.8777 64.0876 59.6797 63.3453 59.7452 62.6024C59.8107 61.8594 60.1357 61.1632 60.6631 60.6358C61.1905 60.1084 61.8867 59.7835 62.6296 59.7179C63.3726 59.6524 64.1149 59.8504 64.7265 60.2773L108.867 91.1367C111.575 93.0867 113.406 96.0241 113.964 99.3136C114.522 102.603 113.763 105.98 111.851 108.714C109.939 111.449 107.027 113.32 103.745 113.924C100.464 114.528 97.0768 113.816 94.3163 111.941C93.0957 111.096 92.0295 110.047 91.164 108.84Z" fill="#8FA38B"/>
</svg>
