<svg width="600" height="492" viewBox="0 0 600 492" fill="none" xmlns="http://www.w3.org/2000/svg">
<path d="M207.962 63.1114C210.26 62.3739 204.969 53.5956 204.59 51.3713C204.211 49.1469 198.642 48.9923 196.205 48.9209C196.998 48.5824 197.652 48.0077 198.065 47.2852C198.479 46.5628 198.629 45.7325 198.493 44.9219C198.356 44.1113 197.941 43.3652 197.311 42.7984C196.681 42.2315 195.871 41.8752 195.005 41.7841C195.763 39.0959 192.151 36.3601 189.537 37.6566C189.668 37.1388 189.665 36.5992 189.531 36.0823C189.396 35.5655 189.133 35.0862 188.763 34.6841C188.393 34.282 187.926 33.9686 187.402 33.7698C186.878 33.5711 186.311 33.4927 185.748 33.541C186.771 31.3167 183.4 28.7831 181.291 30.1273C182.351 30.3889 183.223 29.0805 182.869 28.117C182.627 27.6534 182.272 27.2502 181.833 26.9401C181.394 26.6301 180.884 26.422 180.344 26.3328C174.029 24.6676 167.286 29.6634 160.972 27.9505C158.964 27.4034 157.183 26.1901 155.062 26.0474C152.94 25.9046 150.541 27.6888 151.273 29.5087C150.799 29.1146 150.228 28.8386 149.611 28.7058C148.995 28.573 148.353 28.5877 147.744 28.7485C147.135 28.9094 146.578 29.2112 146.125 29.6266C145.672 30.0419 145.336 30.5575 145.149 31.1264L134.97 34.9327C132.176 35.8215 129.553 37.1311 127.204 38.8104C126.036 39.661 125.101 40.7623 124.477 42.0225C123.854 43.2826 123.559 44.665 123.617 46.0543C121.955 46.0906 120.371 46.7288 119.195 47.8364C118.019 48.944 117.342 50.4358 117.303 52.0017C116.442 51.9112 115.571 51.9831 114.739 52.2131C113.908 52.4432 113.134 52.8268 112.461 53.3416C111.789 53.8564 111.232 54.4921 110.823 55.2117C110.414 55.9312 110.162 56.7203 110.08 57.5327C107.971 56.3433 105.496 58.4011 104.031 60.2804C102.971 61.4518 102.187 62.8223 101.733 64.3008C101.525 65.0443 101.569 65.8304 101.859 66.5492C102.148 67.2679 102.67 67.8833 103.349 68.3094C102.149 69.3846 101.355 70.8008 101.091 72.3411C100.826 73.8814 101.105 75.461 101.884 76.8379C100.176 77.6754 98.674 78.8426 97.4769 80.2636C96.8927 80.986 96.5607 81.8613 96.5268 82.7688C96.4929 83.6763 96.7586 84.5714 97.2875 85.3307C95.482 86.1795 94.1054 87.6655 93.4574 89.4655C92.8094 91.2654 92.9423 93.2336 93.8273 94.9417C90.3924 94.4778 90.2535 93.895 86.8565 94.5848C86.4073 94.8428 86.0482 95.2192 85.8237 95.6674C85.5992 96.1156 85.5193 96.616 85.5937 97.1065C85.8343 98.5029 86.2939 99.8579 86.9575 101.127C86.9575 101.127 84.836 102.471 85.5937 103.97C85.9786 104.716 86.5495 105.363 87.2576 105.856C87.9657 106.349 88.79 106.673 89.66 106.801L89.4706 111.428C89.3569 114.021 89.4706 117.114 91.8321 118.493C91.5833 119.56 91.6626 120.672 92.0608 121.698C92.4589 122.724 93.1593 123.622 94.0799 124.286C93.4523 124.591 92.9091 125.03 92.4936 125.568C92.078 126.106 91.8015 126.727 91.6862 127.384C91.5709 128.04 91.62 128.712 91.8295 129.347C92.0389 129.983 92.4031 130.563 92.8928 131.042C91.4279 132.6 91.8194 135.015 92.514 136.99C93.1672 139.176 94.4269 141.159 96.1635 142.735C97.0438 143.511 98.1375 144.04 99.3205 144.261C100.503 144.481 101.728 144.385 102.857 143.984C101.505 146.149 100.116 148.539 100.533 151.014C100.95 153.488 104.195 155.569 106.329 154.07C105.673 153.404 104.523 154.511 104.751 155.391C104.978 156.271 105.812 156.913 106.127 157.77C106.582 158.959 105.95 160.268 105.812 161.528C105.731 162.861 106.193 164.173 107.103 165.196C108.014 166.22 109.304 166.877 110.711 167.036C110.797 168.105 111.123 169.145 111.666 170.088C112.209 171.03 112.958 171.854 113.863 172.505C114.769 173.155 115.81 173.618 116.919 173.862C118.027 174.107 119.178 174.127 120.296 173.923C120.33 175.147 120.623 176.353 121.157 177.469C121.691 178.586 122.456 179.591 123.407 180.426C124.358 181.261 125.476 181.909 126.696 182.332C127.916 182.755 129.214 182.946 130.512 182.891C131.325 184.004 132.484 184.852 133.83 185.319C135.175 185.785 136.642 185.847 138.026 185.496C141.272 189.945 147.7 190.897 153.395 191.444C157.575 191.848 162.891 191.67 164.533 188.042C169.925 189.136 175.406 183.439 173.726 178.526" fill="#263238"/>
<path d="M202.039 65.6213C201.095 62.7014 201.044 59.5899 201.893 56.6442C202.742 53.6986 204.456 51.0381 206.838 48.9686C207.949 48.0408 209.944 47.3509 210.714 48.5523C210.707 48.0235 210.847 47.502 211.121 47.0406C211.396 46.5791 211.794 46.1939 212.277 45.9237C212.76 45.6536 213.31 45.508 213.871 45.5017C214.433 45.4954 214.986 45.6286 215.475 45.8879C215.577 45.1986 215.854 44.5427 216.283 43.9761C216.712 43.4094 217.279 42.9487 217.938 42.6333C218.597 42.3179 219.326 42.1571 220.065 42.1646C220.804 42.1721 221.53 42.3476 222.181 42.6763C222.244 42.3284 222.387 41.9976 222.599 41.7067C222.812 41.4159 223.089 41.1719 223.411 40.9917C223.733 40.8115 224.093 40.6994 224.466 40.6631C224.839 40.6268 225.216 40.6671 225.57 40.7814C225.925 40.8956 226.249 41.081 226.52 41.3248C226.791 41.5685 227.003 41.8648 227.14 42.1932C227.278 42.5215 227.338 42.8741 227.317 43.2266C227.296 43.579 227.194 43.9229 227.018 44.2345C227.301 44.0802 227.616 43.9859 227.942 43.9583C228.268 43.9306 228.596 43.9703 228.904 44.0745C229.212 44.1787 229.492 44.3449 229.724 44.5616C229.957 44.7782 230.136 45.0401 230.25 45.3288C230.585 44.9659 231.004 44.6806 231.475 44.4949C231.945 44.3091 232.455 44.2281 232.964 44.258C233.474 44.2879 233.969 44.428 234.412 44.6673C234.854 44.9067 235.232 45.2389 235.516 45.6381C236.24 45.1991 237.067 44.9318 237.924 44.8593C238.782 44.7868 239.646 44.9112 240.441 45.2218C240.664 45.1731 240.895 45.1763 241.115 45.2309C241.336 45.2856 241.539 45.3901 241.707 45.5354C241.875 45.6807 242.003 45.8625 242.079 46.0648C242.156 46.2672 242.179 46.4841 242.146 46.6967C242.474 46.3823 242.884 46.1543 243.334 46.0355C243.785 45.9166 244.261 45.9111 244.714 46.0194C245.168 46.1277 245.583 46.3461 245.919 46.6528C246.255 46.9594 246.5 47.3437 246.629 47.7673C246.709 47.3005 246.922 46.863 247.246 46.5016C247.569 46.1402 247.991 45.8685 248.466 45.7157C248.941 45.5629 249.451 45.5348 249.942 45.6343C250.432 45.7337 250.885 45.9571 251.251 46.2804C254.61 44.5557 257.022 53.1199 249.673 56.0341L251.074 54.0358C252.337 56.4147 253.903 55.0587 256.631 55.713C257.751 56.0208 258.731 56.6703 259.416 57.5594C260.102 58.4486 260.455 59.527 260.419 60.6255C261.253 59.436 263.084 60.6255 263.943 61.815L268.413 67.7623C270.556 70.4148 272.409 73.2641 273.944 76.2671C275.299 78.9991 275.878 82.0157 275.624 85.0216C275.465 85.7266 275.491 86.4574 275.699 87.1507C276.066 87.9715 276.962 88.4473 277.455 89.2442C278.894 91.873 273.944 94.5731 274.929 97.3564C276.098 96.9655 277.382 97.016 278.512 97.4972C279.642 97.9784 280.53 98.853 280.991 99.9376C281.21 100.962 281.489 101.975 281.824 102.971C282.67 104.695 285.007 105.683 285.221 107.574C285.335 108.537 284.842 109.572 285.221 110.464C285.6 111.357 286.686 111.725 287.33 112.439C288.492 113.724 287.999 115.71 287.141 117.197C286.282 118.684 285.057 120.075 284.893 121.753C284.893 122.205 285.752 121.182 286.156 121.419C286.56 121.657 286.408 122.728 286.156 122.359L282.178 123.644C283.05 123.931 283.784 124.502 284.248 125.255C284.711 126.008 284.873 126.892 284.703 127.748C284.29 129.447 283.297 130.972 281.875 132.089C282.23 132.325 282.532 132.625 282.764 132.971C282.995 133.318 283.152 133.704 283.223 134.108C283.295 134.512 283.281 134.925 283.181 135.324C283.082 135.723 282.9 136.099 282.645 136.431C282.153 137.014 281.382 137.418 281.066 138.084C280.41 139.369 281.433 140.808 281.748 142.2C281.852 142.876 281.793 143.566 281.577 144.219C281.361 144.871 280.992 145.47 280.498 145.971C280.004 146.472 279.397 146.862 278.722 147.113C278.046 147.364 277.32 147.469 276.596 147.421C277.922 148.849 277.417 150.99 276.823 152.834C276.495 153.88 276.154 154.927 275.826 155.962C275.258 157.722 273.767 159.923 272.037 159.162C272.572 159.864 272.843 160.715 272.808 161.578C272.773 162.442 272.433 163.271 271.842 163.932C271.251 164.594 270.443 165.051 269.545 165.232C268.647 165.413 267.711 165.307 266.885 164.93C267.175 169.082 261.518 172.377 257.717 170.283C258.512 173.364 254.067 176.29 251.264 174.53C251.212 175.054 250.977 175.548 250.596 175.934C250.214 176.319 249.707 176.574 249.155 176.659C248.584 176.688 248.012 176.652 247.45 176.552C245.901 176.393 244.336 176.643 242.929 177.273C241.522 177.903 240.329 178.888 239.482 180.12C235.984 180.441 233.269 182.999 230.175 184.581C227.081 186.163 222.307 186.21 220.994 183.141C220.817 184.747 218.228 184.545 216.751 183.748C213.359 181.912 210.413 179.428 208.1 176.456" fill="#263238"/>
<path d="M229.114 101.008L229.581 92.3963L174.951 80.9417C158.067 78.7531 139.213 94.2162 137.622 110.203C135.841 127.962 134.414 149.717 136.22 163.051C139.832 189.886 161.477 193.918 161.477 193.918L160.719 220.431L223.381 223.001L229.114 101.008Z" fill="#A36957"/>
<path d="M147.965 128.045C147.92 128.939 148.249 129.814 148.882 130.481C149.515 131.148 150.401 131.555 151.349 131.613C151.811 131.664 152.279 131.627 152.725 131.504C153.171 131.381 153.586 131.174 153.945 130.897C154.305 130.619 154.601 130.276 154.817 129.889C155.033 129.501 155.163 129.076 155.201 128.64C155.246 127.746 154.916 126.871 154.283 126.203C153.65 125.536 152.765 125.129 151.816 125.071C151.355 125.022 150.888 125.06 150.443 125.184C149.997 125.308 149.583 125.514 149.224 125.792C148.865 126.069 148.568 126.411 148.352 126.798C148.136 127.185 148.004 127.609 147.965 128.045Z" fill="#263238"/>
<path d="M143.242 121.717C143.671 122.181 146.487 120.337 150.402 120.468C154.317 120.599 157.12 122.514 157.562 122.074C157.777 121.884 157.335 121.063 156.123 120.171C154.463 119.015 152.465 118.371 150.402 118.327C148.368 118.26 146.364 118.806 144.681 119.885C143.456 120.718 143.027 121.515 143.242 121.717Z" fill="#263238"/>
<path d="M184.41 130.019C184.368 130.914 184.701 131.789 185.336 132.456C185.971 133.123 186.858 133.53 187.807 133.588C188.263 133.629 188.724 133.584 189.162 133.456C189.6 133.329 190.007 133.121 190.359 132.844C190.711 132.568 191.002 132.228 191.214 131.846C191.426 131.463 191.556 131.044 191.595 130.614C191.641 129.72 191.311 128.845 190.678 128.178C190.045 127.511 189.159 127.104 188.211 127.046C187.754 127.005 187.293 127.049 186.854 127.177C186.415 127.304 186.008 127.512 185.654 127.788C185.301 128.065 185.009 128.404 184.796 128.787C184.582 129.17 184.451 129.589 184.41 130.019Z" fill="#263238"/>
<path d="M181.669 123.537C182.099 123.989 184.927 122.157 188.83 122.276C192.732 122.395 195.548 124.322 195.99 123.882C196.205 123.692 195.775 122.871 194.55 121.979C192.897 120.821 190.902 120.177 188.842 120.135C186.808 120.067 184.803 120.613 183.122 121.693C181.884 122.526 181.455 123.323 181.669 123.537Z" fill="#263238"/>
<path d="M166.566 150.443C166.566 150.228 164.179 149.765 160.252 149.182C159.254 149.051 158.32 148.837 158.168 148.183C158.115 147.211 158.38 146.248 158.926 145.423C159.936 143.163 161.001 140.784 162.121 138.286C166.553 128.199 169.799 119.897 169.369 119.73C168.94 119.564 164.987 127.605 160.529 137.691C159.456 140.177 158.433 142.544 157.461 144.828C156.79 145.943 156.562 147.245 156.817 148.504C156.952 148.84 157.167 149.144 157.444 149.391C157.722 149.638 158.056 149.823 158.421 149.931C158.965 150.089 159.53 150.177 160.1 150.193C164.091 150.561 166.54 150.645 166.566 150.443Z" fill="#263238"/>
<path d="M161.464 193.989C175.116 194.589 188.683 191.664 200.7 185.532C200.7 185.532 190.522 203.91 161.262 200.65L161.464 193.989Z" fill="#7C3B29"/>
<path d="M167.93 159.364C168.706 158.506 169.7 157.847 170.82 157.45C171.94 157.053 173.148 156.929 174.332 157.092C175.194 157.188 176.026 157.449 176.777 157.858C177.528 158.267 178.183 158.816 178.702 159.471C179.203 160.101 179.488 160.86 179.517 161.647C179.546 162.434 179.319 163.21 178.866 163.872C178.217 164.515 177.378 164.961 176.457 165.152C175.537 165.343 174.577 165.27 173.701 164.942C171.87 164.28 170.199 163.277 168.789 161.992C168.36 161.683 167.992 161.304 167.702 160.874C167.569 160.663 167.504 160.421 167.516 160.176C167.527 159.93 167.614 159.694 167.766 159.495" fill="#7C3B29"/>
<path d="M177.995 153.321C177.363 153.321 177.224 157.27 173.499 160.006C169.774 162.742 165.265 162.171 165.215 162.718C165.139 162.968 166.187 163.527 168.094 163.634C170.585 163.744 173.037 163.019 175.014 161.588C176.905 160.217 178.159 158.209 178.512 155.986C178.727 154.32 178.272 153.309 177.995 153.321Z" fill="#263238"/>
<path d="M181.126 113.105C181.48 114.116 185.407 113.747 189.966 114.402C194.525 115.056 198.212 116.352 198.806 115.472C199.096 115.044 198.478 114.08 197.013 113.093C195.055 111.849 192.822 111.039 190.484 110.726C188.145 110.413 185.762 110.604 183.513 111.285C181.859 111.856 180.975 112.617 181.126 113.105Z" fill="#263238"/>
<path d="M143.772 109.085C144.429 109.941 147.156 109.156 150.402 109.204C153.647 109.251 156.362 109.941 157.019 109.085C157.309 108.668 156.905 107.824 155.756 106.991C154.176 105.998 152.32 105.468 150.421 105.468C148.521 105.468 146.665 105.998 145.085 106.991C143.885 107.824 143.481 108.668 143.772 109.085Z" fill="#263238"/>
<path d="M198.818 81.8695C198.104 83.9867 196.836 85.9008 195.131 87.4362C193.287 88.816 190.294 89.0896 188.817 87.4362C188.136 88.0436 187.32 88.5004 186.428 88.7736C185.536 89.0468 184.591 89.1294 183.661 89.0155C182.731 88.9016 181.84 88.594 181.052 88.1151C180.264 87.6362 179.599 86.9979 179.106 86.2467C177.651 87.3724 175.846 88.0189 173.964 88.0877C172.083 88.1564 170.23 87.6435 168.687 86.6274L160.138 87.8169C157.044 88.2689 153.218 88.4354 151.488 85.9732C151.096 85.4022 150.818 84.7004 150.225 84.3793C149.53 84.152 148.781 84.1149 148.065 84.2722C146.84 84.2753 145.634 83.9869 144.559 83.4338C143.484 82.8807 142.575 82.0807 141.915 81.1082C140.619 79.1505 139.688 76.9982 139.162 74.7445C138.152 71.3307 137.458 66.9773 140.488 64.8838C141.748 64.1558 143.171 63.7158 144.643 63.5992C147.611 63.1591 150.692 62.719 153.584 63.4802C157.145 64.4199 159.898 67.0486 161.982 69.9747C161.742 69.0436 161.892 68.0614 162.399 67.2312C162.907 66.401 163.734 65.7863 164.709 65.5142C166.707 65.0494 168.818 65.3488 170.582 66.3468C173.216 67.6347 175.406 69.6028 176.896 72.0206C179.258 72.1497 181.536 72.8942 183.476 74.1711C185.416 75.448 186.941 77.2072 187.882 79.2526C188.981 78.6513 190.199 78.2692 191.462 78.13C192.724 77.9909 194.003 78.0977 195.219 78.4438C195.655 78.5314 196.067 78.7022 196.429 78.9457C196.792 79.1892 197.098 79.5001 197.328 79.8593C197.431 80.0413 197.489 80.2425 197.499 80.4484C197.509 80.6543 197.47 80.8596 197.386 81.0497C197.301 81.2398 197.173 81.4098 197.01 81.5474C196.847 81.6851 196.654 81.787 196.444 81.8457" fill="#263238"/>
<path d="M171.403 81.9052C172.025 83.7296 172 85.6951 171.331 87.5048C170.663 89.3146 169.387 90.8703 167.697 91.9369C166.007 93.0035 163.995 93.5231 161.963 93.4172C159.932 93.3112 157.993 92.5855 156.438 91.3497C155.632 93.1239 154.181 94.5698 152.346 95.4286C150.512 96.2873 148.412 96.5027 146.424 96.0362C146.289 98.3148 145.51 100.518 144.167 102.417C142.823 104.316 140.965 105.842 138.784 106.837C139.677 109.211 139.582 111.816 138.519 114.128C137.894 115.634 136.664 116.848 135.096 117.506C134.127 117.765 133.111 117.834 132.112 117.709C131.113 117.584 130.152 117.268 129.287 116.781C127.983 116.234 126.813 115.44 125.85 114.447C124.887 113.454 124.153 112.285 123.693 111.012C122.935 108.419 124.148 105.243 126.799 104.267C124.477 102.01 122.713 99.2964 121.635 96.3217C121.25 95.4998 121.04 94.6146 121.019 93.7166C120.997 92.8186 121.163 91.9254 121.508 91.088C122.367 89.4941 124.88 88.6495 126.244 89.8985C125.585 88.5545 125.342 87.0625 125.544 85.5943C125.745 84.1261 126.382 82.7413 127.383 81.5992C128.383 80.4571 129.705 79.6042 131.197 79.1386C132.689 78.673 134.29 78.6136 135.816 78.9672C135.914 77.7253 136.387 76.5357 137.18 75.5392C137.973 74.5427 139.052 73.7811 140.291 73.3444C141.529 72.9077 142.874 72.8142 144.167 73.075C145.459 73.3357 146.646 73.9399 147.586 74.816" fill="#263238"/>
<path d="M200.195 81.9291C196.154 88.7804 200.397 98.665 208.353 100.961C206.829 101.38 205.497 102.268 204.571 103.483C203.645 104.698 203.177 106.17 203.242 107.665C203.308 109.159 203.903 110.59 204.932 111.729C205.961 112.868 207.365 113.65 208.921 113.95C207.276 116.449 206.616 119.414 207.057 122.326C207.498 125.237 209.012 127.91 211.333 129.877C209.995 130.479 208.867 131.428 208.08 132.611C207.293 133.795 206.88 135.165 206.888 136.562C207.078 139.333 209.995 141.867 212.887 141.32C212.746 143.352 213.303 145.374 214.473 147.087C215.644 148.8 217.367 150.114 219.39 150.835C218.574 151.965 218.091 153.279 217.991 154.642C217.89 156.005 218.175 157.369 218.817 158.594C219.459 159.819 220.435 160.862 221.645 161.616C222.855 162.37 224.256 162.808 225.704 162.885C223.696 164.181 224.113 167.274 225.793 168.939C228.962 172.079 234.973 171.318 238.004 168.047C241.035 164.776 241.414 159.899 240.151 155.748C242.247 156.64 244.823 155.117 245.606 153.083C246.21 150.973 245.976 148.728 244.95 146.767C243.906 144.829 243.061 142.802 242.424 140.713C242.235 140.077 242.271 139.401 242.525 138.786C242.98 137.882 244.104 137.501 245.051 137.002C248.549 135.122 249.673 130.745 249.104 126.998C248.536 123.251 246.667 119.778 245.568 116.126C245.247 115.368 245.211 114.528 245.467 113.748C245.846 112.879 246.844 112.415 247.677 111.88C248.984 111.031 250.023 109.866 250.686 108.507C251.349 107.149 251.612 105.648 251.447 104.161C251.281 102.674 250.694 101.256 249.746 100.057C248.799 98.8576 247.526 97.9207 246.061 97.3447C248.397 96.2266 248.587 93.015 247.387 90.8501C246.187 88.6853 243.914 87.2817 242.007 85.5332C238.434 82.3454 235.782 78.0395 231.311 76.0174C229.049 75.0688 226.532 74.7963 224.1 75.2365C221.668 75.6768 219.438 76.8087 217.711 78.4796C214.718 76.8738 211.396 75.4227 207.974 75.6724C204.552 75.9222 201.079 78.4677 201.142 81.715" fill="#263238"/>
<path d="M268.35 88.1143C268.819 87.0926 269.006 85.9753 268.893 84.8671C268.752 83.5667 268.13 82.3543 267.137 81.4414C266.475 80.8381 265.677 80.3828 264.803 80.1089C263.928 79.8351 263 79.7498 262.086 79.8594H261.707L261.859 79.5382C262.15 78.7232 262.173 77.8442 261.925 77.0165C261.678 76.1888 261.17 75.4508 260.47 74.8993C259.627 74.2896 258.657 73.8539 257.624 73.6203C256.59 73.3866 255.516 73.3604 254.471 73.5433H253.991L254.168 73.127C254.45 72.3793 254.48 71.568 254.254 70.8037C254.028 70.0395 253.557 69.3595 252.905 68.8567C252.16 68.3492 251.254 68.0961 250.335 68.1393C249.417 68.1826 248.542 68.5196 247.854 69.0946L247.387 69.4991L247.324 68.8924C247.214 67.7316 246.723 66.6319 245.918 65.7465C245.114 64.8611 244.036 64.234 242.835 63.9526C241.635 63.6712 240.371 63.7495 239.22 64.1765C238.068 64.6035 237.087 65.3581 236.413 66.3351L235.844 66.0377V65.9187C235.978 65.5722 236.019 65.1999 235.964 64.8349C235.909 64.4698 235.76 64.1231 235.529 63.8253C235.088 63.1832 234.429 62.701 233.66 62.4574C232.042 62.1165 230.352 62.2579 228.823 62.8618L224.125 64.3367C223.409 64.5832 222.746 64.9499 222.168 65.4192C221.898 65.6077 221.696 65.8691 221.587 66.1687C221.479 66.4683 221.47 66.7919 221.562 67.0963L220.968 67.2034C220.893 66.5607 220.611 65.955 220.159 65.468C219.708 64.981 219.109 64.636 218.443 64.4795C217.814 64.2814 217.145 64.2223 216.488 64.3069C215.831 64.3915 215.204 64.6174 214.654 64.9672C213.62 65.6701 212.826 66.6414 212.369 67.7624C211.927 68.8067 211.667 69.9112 211.598 71.0335V71.3665L211.282 71.2238C210.305 70.7784 209.243 70.5217 208.159 70.4685C207.074 70.4154 205.99 70.5671 204.968 70.9145C203.392 71.458 202.042 72.4626 201.117 73.7812C200.52 74.6116 200.091 75.5393 199.854 76.517C199.702 77.1831 199.69 77.5518 199.652 77.5518C199.638 77.4611 199.638 77.369 199.652 77.2782C199.666 77.0625 199.696 76.8479 199.74 76.6359C199.916 75.6233 200.312 74.6556 200.902 73.7931C201.81 72.3906 203.174 71.3018 204.792 70.6885C205.872 70.2968 207.026 70.1159 208.183 70.1568C209.34 70.1977 210.476 70.4595 211.522 70.9264L211.181 71.1167C211.23 69.9393 211.486 68.7776 211.939 67.6792C212.449 66.4579 213.327 65.4036 214.465 64.646C215.081 64.2469 215.787 63.9868 216.527 63.8857C217.267 63.7847 218.022 63.8454 218.733 64.0632C219.5 64.2904 220.192 64.7001 220.741 65.2526C221.328 65.809 221.674 66.5508 221.713 67.3342L221.802 69.1779L221.133 67.4413C220.969 67.031 220.969 66.5788 221.133 66.1685C221.298 65.7806 221.558 65.4344 221.89 65.1575C222.526 64.6447 223.252 64.242 224.037 63.968L228.76 62.4693C230.419 61.8231 232.25 61.6776 234.001 62.0529C234.908 62.3462 235.685 62.9153 236.211 63.6706C236.504 64.0522 236.693 64.4966 236.759 64.9637C236.825 65.4309 236.767 65.9062 236.59 66.3469L236.514 66.5016L235.945 66.1923C236.697 65.1139 237.786 64.2822 239.062 63.8124C240.337 63.3427 241.736 63.2581 243.065 63.5703C244.394 63.8826 245.587 64.5763 246.479 65.5554C247.371 66.5345 247.918 67.7505 248.043 69.0352L247.513 68.8448C248.263 68.1912 249.226 67.7961 250.245 67.724C251.264 67.652 252.279 67.9072 253.124 68.4481C253.969 68.9889 254.595 69.7836 254.899 70.7024C255.204 71.6212 255.168 72.61 254.8 73.5076L254.496 73.1507C255.618 72.9627 256.769 73.0023 257.874 73.2669C258.978 73.5315 260.009 74.0151 260.899 74.6852C261.667 75.3008 262.219 76.1219 262.481 77.0396C262.742 77.9573 262.701 78.9283 262.364 79.8237L262.124 79.5382C263.093 79.4373 264.075 79.5431 264.995 79.8479C265.915 80.1526 266.751 80.6484 267.44 81.2986C268.461 82.2742 269.079 83.5605 269.183 84.9265C269.267 85.7736 269.146 86.6277 268.83 87.4244C268.703 87.6736 268.542 87.9057 268.35 88.1143Z" fill="#455A64"/>
<path d="M238.168 49.2778C237.237 48.6972 236.195 48.2932 235.1 48.0884C233.837 47.875 232.538 47.9484 231.311 48.3025C229.706 48.7477 228.327 49.7288 227.434 51.062L227.27 51.3118L227.03 51.1334C226.128 50.4558 225.061 50.0008 223.926 49.8097C222.79 49.6186 221.622 49.6974 220.527 50.0391C219.3 50.4663 218.228 51.2151 217.438 52.1973C216.648 53.1794 216.173 54.3539 216.069 55.5821V56.2482L215.551 55.7724C215.365 55.5871 215.136 55.4447 214.882 55.3561C214.357 55.2461 213.813 55.2522 213.291 55.374C212.77 55.4957 212.285 55.7298 211.876 56.0578C211.032 56.7014 210.35 57.514 209.881 58.4368C208.957 60.1596 208.69 62.129 209.123 64.0154L209.224 64.4793L208.757 64.3485C206.763 63.8149 204.627 64.0413 202.809 64.9789C201.406 65.7149 200.287 66.8521 199.614 68.2262C199.167 69.1116 198.897 70.0673 198.819 71.0452C198.819 71.7351 198.819 72.1038 198.819 72.1038C198.819 72.1038 198.819 72.0206 198.743 71.8422C198.696 71.5789 198.675 71.3121 198.68 71.0452C198.684 69.739 199.05 68.4564 199.741 67.3238C200.432 66.1912 201.424 65.2478 202.62 64.5864C203.566 64.0722 204.611 63.7392 205.695 63.6066C206.778 63.4739 207.879 63.5441 208.934 63.8132L208.568 64.1463C208.094 62.1415 208.357 60.0448 209.313 58.1989C209.821 57.1788 210.568 56.2802 211.497 55.5702C211.989 55.1735 212.576 54.894 213.206 54.7553C213.837 54.6166 214.494 54.6227 215.122 54.7732C215.47 54.8972 215.785 55.0922 216.044 55.3442L215.475 55.5345C215.57 54.2703 216.035 53.0556 216.818 52.0249C217.601 50.9942 218.671 50.1879 219.911 49.6952C221.151 49.2025 222.511 49.0428 223.841 49.2336C225.171 49.4245 226.419 49.9586 227.447 50.7766H227.03C228.009 49.3559 229.512 48.3264 231.248 47.8862C232.552 47.5337 233.928 47.4969 235.251 47.7791C236.09 47.9573 236.884 48.2886 237.587 48.7545C237.802 48.907 237.997 49.0826 238.168 49.2778Z" fill="#455A64"/>
<path d="M137.432 39.001C137.432 39.001 137.432 38.9058 137.609 38.7393L138.203 38.0137C138.961 37.0879 139.807 36.228 140.728 35.4444C142.181 34.1309 144.075 33.3359 146.083 33.1963C147.348 33.1851 148.592 33.5108 149.669 34.136C150.293 34.4673 150.823 34.9354 151.215 35.5007C151.606 36.0659 151.847 36.7117 151.917 37.3833L151.5 37.2167C152.468 36.3304 153.615 35.6358 154.873 35.1741C156.132 34.7124 157.475 34.4929 158.825 34.5285C160.36 34.6498 161.789 35.3126 162.828 36.3841C163.398 36.933 163.819 37.6037 164.054 38.3391C164.29 39.0744 164.332 39.8524 164.179 40.6067L163.661 40.3213C164.659 39.3977 165.914 38.7575 167.28 38.474C168.646 38.1905 170.07 38.2751 171.388 38.7182C172.705 39.1613 173.864 39.945 174.731 40.9795C175.598 42.014 176.138 43.2575 176.29 44.5677V44.7342L175.848 44.4725C177.119 44.0479 178.501 44.0178 179.792 44.3869C181.083 44.756 182.214 45.5047 183.02 46.5234C183.827 47.5421 184.265 48.7772 184.272 50.0478C184.279 51.3183 183.854 52.5576 183.058 53.5839L182.755 53.12C184.362 52.8491 186.018 53.1186 187.435 53.8814C188.852 54.6443 189.939 55.852 190.506 57.2933C191.073 58.7347 191.085 60.318 190.538 61.7664C189.992 63.2148 188.922 64.4362 187.516 65.217L187.415 64.7888C188.646 64.8922 189.839 65.2456 190.912 65.8247C191.984 66.4037 192.911 67.1946 193.628 68.1431C194.705 69.5842 195.215 71.3343 195.068 73.0913C194.991 74.1907 194.663 75.2617 194.108 76.2315C193.966 76.4798 193.806 76.7183 193.628 76.9452C193.57 77.0277 193.503 77.1035 193.426 77.1712C193.426 77.1712 193.641 76.8262 193.982 76.172C194.468 75.2024 194.743 74.1508 194.79 73.0794C194.898 71.38 194.376 69.698 193.312 68.3215C192.617 67.4341 191.727 66.6977 190.703 66.1621C189.679 65.6265 188.545 65.3042 187.377 65.217H186.594L187.276 64.8363C188.449 64.1339 189.359 63.104 189.88 61.8906C190.4 60.6771 190.506 59.3408 190.181 58.0682C189.731 56.63 188.741 55.3951 187.396 54.594C186.05 53.7929 184.441 53.4804 182.869 53.7148L182.086 53.8337L182.566 53.239C183.288 52.3177 183.676 51.2018 183.673 50.0565C183.669 48.9113 183.273 47.7976 182.545 46.8806C181.817 45.9636 180.794 45.292 179.629 44.9654C178.463 44.6388 177.217 44.6745 176.075 45.0673L175.683 45.1981V44.8056V44.651C175.519 43.4307 174.993 42.2786 174.167 41.326C173.341 40.3733 172.247 39.6584 171.011 39.2626C169.832 38.9288 168.582 38.8914 167.383 39.1544C166.184 39.4173 165.08 39.9714 164.179 40.7614L163.409 41.4632L163.661 40.4759C163.787 39.809 163.738 39.1233 163.518 38.4785C163.298 37.8337 162.913 37.2494 162.398 36.7766C161.464 35.8085 160.182 35.2022 158.799 35.0757C156.223 35.0121 153.724 35.9148 151.854 37.5855L151.45 37.9066V37.419C151.403 36.8143 151.2 36.2295 150.859 35.7154C150.518 35.2013 150.049 34.7735 149.492 34.4691C148.497 33.8679 147.341 33.5461 146.159 33.5413C145.125 33.5592 144.11 33.7992 143.191 34.2431C142.401 34.6179 141.66 35.0768 140.981 35.611C140.047 36.3699 139.169 37.1886 138.354 38.0613C138.066 38.3909 137.759 38.7047 137.432 39.001Z" fill="#455A64"/>
<path d="M99.9767 105.314C99.7612 104.992 99.5834 104.649 99.4463 104.291C98.9193 102.953 98.7462 101.513 98.942 100.098C99.1378 98.6825 99.6967 97.3332 100.57 96.1668C102.041 94.2363 104.259 92.9287 106.745 92.527L106.556 92.7411C106.546 90.7266 107.246 88.7659 108.547 87.1665C109.847 85.5671 111.674 84.4194 113.742 83.9033L113.565 84.2839C112.961 83.3107 112.67 82.1932 112.728 81.0673C112.786 79.9415 113.191 78.8557 113.892 77.9422C114.593 77.0286 115.56 76.3266 116.677 75.9214C117.794 75.5163 119.011 75.4256 120.182 75.6602L119.828 76.0409C119.221 74.5157 119.186 72.8409 119.729 71.2944C120.272 69.7479 121.36 68.4228 122.813 67.5393C124.266 66.6557 125.996 66.2668 127.715 66.4372C129.435 66.6076 131.041 67.3269 132.267 68.4758L131.724 68.6067C132.174 67.167 132.907 65.8194 133.884 64.6338C134.647 63.6576 135.622 62.8445 136.742 62.248C137.863 61.6514 139.105 61.2849 140.387 61.1724C141.65 61.0754 142.919 61.2782 144.077 61.7624C145.235 62.2466 146.246 62.9966 147.017 63.9439L146.436 64.051C146.713 62.752 147.43 61.5726 148.479 60.6897C149.527 59.8068 150.852 59.2679 152.253 59.154C153.655 59.0401 155.058 59.3573 156.251 60.0579C157.445 60.7585 158.366 61.8048 158.875 63.0399H158.332C158.831 62.1988 159.567 61.5032 160.458 61.0291C161.349 60.555 162.361 60.3206 163.383 60.3517C165.272 60.3164 167.11 60.9342 168.548 62.0883C169.83 63.1308 170.9 64.3843 171.705 65.7876C172.43 67.0305 173.083 68.309 173.663 69.6177L173.41 69.5107C175.708 68.9902 178.128 69.2778 180.217 70.3195C181.765 71.0631 183.1 72.1487 184.106 73.4835C184.725 74.317 185.183 75.2473 185.457 76.2312C185.523 76.4821 185.573 76.7363 185.609 76.9925C185.623 77.0832 185.623 77.1753 185.609 77.266C185.317 75.9481 184.732 74.7034 183.892 73.6143C182.877 72.3369 181.557 71.302 180.04 70.5931C178.019 69.6277 175.696 69.3826 173.499 69.9032H173.322L173.246 69.7486C172.072 67.3696 170.834 64.4911 168.195 62.4214C166.844 61.3602 165.129 60.7979 163.371 60.8394C162.451 60.806 161.539 61.0099 160.733 61.4292C159.928 61.8485 159.259 62.4671 158.799 63.2183L158.509 63.7774L158.256 63.1945C157.793 62.0784 156.959 61.1336 155.878 60.5016C154.798 59.8697 153.529 59.5846 152.261 59.6891C150.994 59.7936 149.797 60.282 148.849 61.0813C147.901 61.8805 147.254 62.9475 147.004 64.1223L146.853 64.8241L146.424 64.2413C145.72 63.3754 144.795 62.692 143.735 62.2551C142.675 61.8182 141.514 61.6421 140.362 61.7434C139.161 61.8439 137.998 62.1845 136.948 62.7424C135.898 63.3004 134.987 64.0628 134.275 64.9788C133.346 66.1022 132.651 67.3818 132.229 68.7494L132.065 69.2371L131.674 68.8802C130.542 67.8631 129.08 67.2347 127.523 67.0964C125.966 66.9582 124.405 67.318 123.091 68.118C121.778 68.9179 120.789 70.1113 120.284 71.5056C119.779 72.8999 119.788 74.4138 120.308 75.803L120.51 76.2907L119.955 76.1836C118.894 75.9688 117.791 76.0488 116.778 76.414C115.765 76.7792 114.887 77.4137 114.25 78.2405C113.613 79.0672 113.245 80.0505 113.191 81.0706C113.136 82.0908 113.398 83.1038 113.944 83.9866L114.133 84.2839L113.779 84.3672C111.821 84.8491 110.086 85.9263 108.844 87.4318C107.602 88.9373 106.922 90.7869 106.91 92.6935V92.8719H106.72C104.329 93.2239 102.183 94.4508 100.747 96.2857C99.6634 97.6666 99.0552 99.3271 99.0044 101.044C98.9588 102.115 99.1127 103.186 99.459 104.208C99.7747 104.957 99.9767 105.302 99.9767 105.314Z" fill="#455A64"/>
<path d="M183.602 35.5393C183.945 35.6095 184.274 35.7341 184.574 35.908C185.443 36.3087 186.287 36.7575 187.1 37.2522C188.336 37.9979 189.506 38.8372 190.598 39.7619C191.322 40.3366 191.82 41.1243 192.012 41.9982C192.078 42.4896 191.994 42.9885 191.772 43.4374C191.652 43.6849 191.478 43.9053 191.26 44.0838C191.042 44.2623 190.786 44.3948 190.509 44.4723V43.9013C191.784 44.4258 192.847 45.3223 193.54 46.4587C194.256 47.6228 194.524 48.9841 194.298 50.3126C194.108 51.5174 193.531 52.6384 192.643 53.5242L192.555 53.0841C193.842 53.6831 194.849 54.708 195.384 55.9626C195.806 56.9127 195.962 57.9487 195.838 58.972C195.768 59.629 195.553 60.265 195.207 60.8394C195.088 61.0476 194.935 61.2363 194.752 61.3985C195.144 60.6274 195.392 59.7985 195.485 58.9482C195.553 57.9872 195.362 57.0256 194.929 56.1529C194.419 55.0238 193.484 54.1126 192.302 53.5955L191.936 53.429L192.214 53.1435C193.033 52.2895 193.547 51.2146 193.683 50.0707C193.819 48.9268 193.57 47.7715 192.972 46.7679C192.348 45.7477 191.398 44.9398 190.257 44.4604L189.385 44.0916L190.307 43.8894C190.68 43.7477 190.988 43.4891 191.182 43.1575C191.375 42.8259 191.441 42.4416 191.368 42.0695C191.208 41.3182 190.791 40.637 190.181 40.1307C189.119 39.2208 187.997 38.3746 186.822 37.5971C184.852 36.253 183.551 35.6107 183.602 35.5393Z" fill="#455A64"/>
<path d="M94.7111 122.252C94.6143 121.891 94.5718 121.518 94.5848 121.146C94.5623 120.084 94.6897 119.024 94.9637 117.994C95.3457 116.355 96.2228 114.856 97.4893 113.676C98.3192 112.955 99.3636 112.49 100.482 112.344C101.108 112.246 101.749 112.274 102.363 112.426C102.976 112.578 103.549 112.85 104.043 113.224L103.589 113.462C103.513 112.245 103.835 111.036 104.513 109.998C105.191 108.96 106.19 108.143 107.377 107.657C110.018 106.686 112.917 106.523 115.661 107.193L115.283 107.55C115.13 106.608 115.289 105.645 115.737 104.791C116.412 103.521 117.495 102.485 118.831 101.829C120.078 101.218 121.396 100.747 122.758 100.425C124.04 100.075 125.364 99.8791 126.699 99.8424C127.994 99.8026 129.273 100.126 130.373 100.77L129.919 101.008C129.951 100.327 130.158 99.6636 130.524 99.075C130.889 98.4864 131.401 97.9905 132.015 97.63C133.047 96.9568 134.217 96.4949 135.45 96.274C137.423 95.8985 139.444 95.7983 141.448 95.9766C142.721 96.0799 143.986 96.2547 145.237 96.5C145.739 96.5588 146.232 96.6788 146.702 96.8569C146.244 96.8336 145.788 96.7819 145.338 96.7022C144.454 96.5952 143.166 96.4167 141.549 96.3335C139.585 96.2124 137.613 96.3526 135.69 96.7498C134.527 96.9819 133.427 97.4352 132.457 98.082C131.922 98.3981 131.476 98.8314 131.157 99.3451C130.838 99.8588 130.656 100.438 130.626 101.032V101.555L130.171 101.27C128.239 100.08 125.549 100.378 123.036 101.044C121.719 101.349 120.447 101.804 119.248 102.4C118.03 102.995 117.041 103.936 116.419 105.088C116.032 105.824 115.892 106.654 116.015 107.467L116.091 107.907L115.636 107.824C113.026 107.174 110.266 107.311 107.743 108.216C106.668 108.645 105.756 109.372 105.129 110.3C104.502 111.229 104.189 112.315 104.233 113.414L104.321 114.104L103.766 113.652C103.334 113.317 102.831 113.071 102.292 112.932C101.752 112.793 101.187 112.762 100.634 112.843C99.6085 112.965 98.6477 113.38 97.8808 114.033C96.6413 115.137 95.7646 116.553 95.3551 118.113C94.9609 119.462 94.7446 120.853 94.7111 122.252Z" fill="#455A64"/>
<path d="M254.117 169.284C254.534 169.528 254.979 169.728 255.443 169.879C256.815 170.231 258.278 170.078 259.535 169.451C261.478 168.353 262.918 166.615 263.576 164.574C264.096 163.342 264.333 162.02 264.271 160.696C264.233 159.988 264.039 159.296 263.702 158.662C263.526 158.339 263.283 158.051 262.988 157.817C262.694 157.582 262.353 157.404 261.985 157.294L261.543 157.163L261.934 156.925C263.121 156.176 264.346 155.331 265.559 154.404C266.165 153.94 266.821 153.452 267.39 152.929C268.017 152.454 268.574 151.902 269.044 151.287C269.461 150.669 269.107 149.943 268.627 149.265C268.174 148.559 267.636 147.904 267.024 147.314C265.758 146.066 264.22 145.092 262.515 144.46L262.098 144.293L262.427 144.008C263.961 142.626 265.012 140.837 265.439 138.878C265.866 136.92 265.65 134.886 264.819 133.046C263.988 131.206 262.581 129.649 260.787 128.581C258.992 127.514 256.895 126.986 254.774 127.07H254.067L254.509 126.546C255.772 125.04 256.514 123.205 256.635 121.289C256.755 119.373 256.248 117.468 255.182 115.832C254.116 114.196 252.542 112.908 250.674 112.141C248.805 111.375 246.732 111.168 244.735 111.547L244.255 111.63L244.343 111.19C244.852 109.024 244.988 106.795 244.747 104.588C244.64 103.549 244.279 102.548 243.691 101.663C243.104 100.777 242.307 100.032 241.363 99.4856C239.463 98.535 237.283 98.2046 235.162 98.5459C233.116 98.8709 231.11 99.3931 229.177 100.104L228.558 100.318L228.823 99.7473C229.178 98.8589 229.273 97.8973 229.1 96.9623C228.927 96.0274 228.491 95.1531 227.838 94.4304C226.678 92.9895 225.014 91.9823 223.14 91.5875C219.516 90.8144 216.056 91.6708 213.038 92.2893L212.57 92.3845L212.81 92.0038C213.118 91.4569 213.288 90.8507 213.308 90.2321C213.328 89.6134 213.196 88.9987 212.924 88.4354C212.459 87.4024 211.682 86.5212 210.689 85.9018C209.048 84.9833 207.093 84.6978 205.233 85.1049C204.062 85.3193 202.924 85.6751 201.849 86.1635C201.117 86.4966 200.738 86.6988 200.725 86.675C200.804 86.6076 200.894 86.5515 200.99 86.5085C201.167 86.4014 201.432 86.2468 201.799 86.0683C202.867 85.5249 204.01 85.1246 205.196 84.8789C207.123 84.4273 209.161 84.7003 210.878 85.6401C211.937 86.2806 212.768 87.2043 213.265 88.2927C213.572 88.9051 213.723 89.5762 213.708 90.2532C213.693 90.9302 213.511 91.5946 213.177 92.1941L212.949 91.9087C214.535 91.5256 216.141 91.2199 217.761 90.9928C219.569 90.7289 221.412 90.7732 223.203 91.1236C225.214 91.5206 227.007 92.5842 228.255 94.1211C228.977 94.9122 229.46 95.8719 229.654 96.8994C229.847 97.927 229.743 98.9846 229.353 99.9614L228.987 99.6046C230.962 98.8891 233.011 98.3669 235.099 98.0464C237.358 97.6847 239.679 98.036 241.704 99.0455C242.731 99.6309 243.6 100.433 244.242 101.389C244.884 102.345 245.282 103.428 245.404 104.553C245.659 106.826 245.526 109.123 245.012 111.357L244.621 111C246.752 110.589 248.965 110.806 250.961 111.621C252.956 112.436 254.637 113.81 255.774 115.556C256.912 117.302 257.452 119.335 257.321 121.38C257.189 123.425 256.393 125.382 255.039 126.986L254.774 126.487C257.028 126.383 259.261 126.933 261.173 128.062C263.086 129.191 264.584 130.845 265.468 132.8C266.351 134.756 266.577 136.92 266.114 139.001C265.652 141.081 264.524 142.978 262.881 144.436L262.793 143.984C264.57 144.657 266.173 145.684 267.491 146.993C268.121 147.611 268.675 148.294 269.145 149.027C269.41 149.392 269.615 149.793 269.751 150.217C269.818 150.443 269.836 150.68 269.803 150.913C269.771 151.146 269.688 151.37 269.562 151.573C269.061 152.237 268.461 152.83 267.781 153.333C267.162 153.845 266.518 154.344 265.925 154.808C264.662 155.736 263.399 156.58 262.237 157.318V156.937C263.058 157.201 263.74 157.75 264.144 158.472C264.498 159.159 264.696 159.909 264.725 160.672C264.784 162.048 264.526 163.42 263.967 164.693C263.259 166.793 261.74 168.567 259.712 169.665C258.397 170.293 256.873 170.408 255.469 169.986C254.961 169.867 254.495 169.625 254.117 169.284Z" fill="#455A64"/>
<path d="M228.608 130.816C228.212 131.083 227.752 131.254 227.27 131.316C225.894 131.532 224.481 131.261 223.304 130.555C221.527 129.414 220.294 127.664 219.87 125.678C219.539 124.491 219.411 123.263 219.491 122.038C219.564 121.331 219.905 120.673 220.45 120.182C220.751 119.909 221.131 119.725 221.542 119.654C221.952 119.582 222.377 119.625 222.761 119.778L224.795 120.694L222.572 120.301C220.297 119.88 218.223 118.789 216.649 117.185C214.912 115.451 213.902 113.181 213.808 110.797C213.703 108.161 214.665 105.585 216.498 103.589L216.662 104.089C213.317 103.237 210.268 101.571 207.822 99.2596C205.869 97.449 204.319 95.2896 203.263 92.9078C202.569 91.3468 202.114 89.7007 201.912 88.019C201.836 87.4243 201.912 86.9723 201.836 86.663C201.818 86.5049 201.818 86.3454 201.836 86.1873C202.068 88.4491 202.668 90.6638 203.617 92.7532C204.7 95.0611 206.253 97.1464 208.188 98.8908C210.588 101.107 213.562 102.694 216.814 103.494L217.319 103.625L216.978 103.994C215.26 105.874 214.359 108.295 214.452 110.774C214.541 113.011 215.482 115.144 217.104 116.781C218.58 118.293 220.524 119.329 222.66 119.742L222.471 120.278C222.193 120.175 221.889 120.15 221.596 120.205C221.303 120.259 221.032 120.392 220.817 120.587C220.366 120.987 220.088 121.529 220.034 122.109C219.945 123.268 220.051 124.432 220.349 125.559C220.697 127.471 221.826 129.179 223.494 130.317C224.604 131.027 225.95 131.335 227.282 131.185C227.732 131.087 228.174 130.964 228.608 130.816Z" fill="#455A64"/>
<path d="M101.24 286.911L117.796 378.572C117.796 378.572 72.3337 441.995 72.3337 491.691H285.966C285.966 491.691 280.195 423.094 241.186 385.34L291.927 241.045L232.283 214.781L229.758 193.18L156.867 196.333V212.497L110.698 214.793L101.24 286.911Z" fill="#8FA38B"/>
<path d="M235.718 358.422C235.718 358.422 234.455 358.672 232.043 358.922C228.51 359.303 224.951 359.426 221.398 359.29C215.767 359.087 210.198 358.109 204.867 356.388C197.768 354.107 191.375 350.214 186.253 345.052C184.809 343.561 183.484 341.97 182.288 340.295C181.046 338.555 179.96 336.721 179.043 334.811C178.103 332.819 177.363 330.748 176.833 328.626C176.323 326.409 176.057 324.149 176.037 321.882C176.052 317.095 177.218 312.373 179.447 308.072C180.615 305.829 182.093 303.741 183.841 301.863C185.672 299.939 187.801 298.287 190.155 296.962C192.608 295.651 195.337 294.863 198.149 294.654C201.063 294.353 203.995 295.049 206.408 296.617C207.605 297.455 208.563 298.558 209.199 299.829C209.824 301.119 210.131 302.526 210.095 303.944C209.989 306.808 208.848 309.552 206.863 311.723C204.805 313.849 202.237 315.481 199.374 316.481C196.53 317.539 193.562 318.278 190.534 318.682C184.354 319.646 178.055 319.742 171.844 318.967C159.545 317.441 147.943 312.712 138.342 305.312L136.599 304.075C136.043 303.611 135.526 303.112 134.983 302.636L133.379 301.197L131.901 299.662C129.912 297.666 128.123 295.5 126.56 293.191C123.361 288.766 121.493 283.608 121.155 278.264C121.02 275.68 121.494 273.101 122.544 270.71C123.58 268.389 125.11 266.292 127.039 264.549C128.921 262.853 131.189 261.584 133.669 260.838C136.086 260.097 138.685 260.068 141.12 260.754C143.458 261.455 145.53 262.781 147.08 264.573C148.565 266.279 149.642 268.267 150.238 270.401C151.433 274.42 150.954 278.717 148.899 282.415C146.942 285.697 144.051 288.399 140.552 290.218C138.979 291.08 137.316 291.785 135.589 292.323C133.972 292.849 132.312 293.247 130.626 293.513C125.035 294.248 119.347 293.969 113.868 292.692C109.347 291.74 105.938 290.67 103.614 289.98L101 289.147L100.103 288.85L101.013 289.088L103.664 289.861C105.988 290.515 109.41 291.538 113.919 292.454C119.368 293.684 125.017 293.926 130.563 293.168C132.23 292.908 133.87 292.51 135.462 291.978C137.163 291.439 138.801 290.738 140.35 289.885C143.763 288.092 146.579 285.439 148.482 282.224C150.474 278.622 150.926 274.438 149.745 270.532C149.163 268.467 148.117 266.544 146.676 264.894C145.177 263.137 143.143 261.854 140.848 261.217C138.552 260.579 136.105 260.617 133.833 261.325C131.446 262.048 129.262 263.268 127.443 264.894C125.535 266.596 124.039 268.667 123.058 270.964C122.078 273.261 121.635 275.731 121.761 278.204C122.106 283.438 123.942 288.488 127.077 292.823C128.629 295.101 130.4 297.239 132.368 299.21L133.846 300.721L135.425 302.148C135.955 302.624 136.485 303.112 137.028 303.576L138.733 304.908C148.242 312.228 159.731 316.904 171.908 318.408C178.055 319.175 184.289 319.083 190.408 318.135C193.4 317.738 196.332 317.016 199.147 315.982C201.92 314.999 204.404 313.409 206.395 311.343C208.282 309.275 209.372 306.668 209.489 303.944C209.515 302.618 209.23 301.302 208.656 300.09C208.066 298.904 207.172 297.874 206.054 297.093C203.757 295.617 200.977 294.959 198.212 295.237C195.496 295.444 192.859 296.202 190.484 297.462C188.199 298.752 186.13 300.355 184.346 302.22C182.628 304.061 181.175 306.109 180.028 308.31C177.829 312.532 176.672 317.167 176.643 321.87C176.654 324.097 176.912 326.318 177.414 328.495C177.929 330.592 178.652 332.639 179.573 334.609C180.475 336.496 181.539 338.31 182.755 340.033C183.931 341.672 185.236 343.227 186.657 344.684C189.317 347.389 192.34 349.756 195.649 351.725C198.606 353.472 201.762 354.9 205.057 355.984C210.348 357.72 215.877 358.73 221.474 358.981C225.015 359.143 228.565 359.06 232.094 358.731C233.357 358.624 234.215 358.517 234.834 358.446L235.718 358.422Z" fill="white"/>
<g opacity="0.3">
<path d="M243.75 378.001C238.56 377.858 234.91 377.418 230.945 374.254C227.098 370.959 223.654 367.268 220.678 363.252L190.686 325.878C185.306 319.17 179.8 312.235 177.464 304.111C175.965 298.649 175.946 292.919 177.412 287.449C178.877 281.978 181.778 276.942 185.849 272.804L207.974 311.153L243.75 378.001Z" fill="black"/>
</g>
<path d="M157.108 327.936C156.945 327.997 156.775 328.041 156.602 328.067C156.261 328.126 155.769 328.233 155.112 328.305C153.281 328.549 151.43 328.644 149.581 328.59C143.424 328.449 137.408 326.827 132.103 323.879C126.799 320.932 122.382 316.755 119.273 311.747C118.328 310.227 117.518 308.635 116.849 306.99C116.609 306.419 116.47 305.955 116.369 305.645C116.268 305.336 116.217 305.17 116.243 305.158C116.562 305.72 116.845 306.3 117.089 306.894C117.824 308.467 118.668 309.993 119.614 311.462C122.78 316.329 127.163 320.391 132.38 323.294C137.597 326.197 143.49 327.852 149.543 328.115C151.374 328.204 153.21 328.176 155.037 328.031C155.723 327.951 156.416 327.919 157.108 327.936Z" fill="#263238"/>
<path d="M237.183 385.744H236.88H235.971L232.498 385.923C229.48 386.077 225.123 386.208 219.719 386.303C208.921 386.506 193.982 386.399 177.528 385.483C161.073 384.567 146.235 382.985 135.539 381.581C130.184 380.879 125.865 380.249 122.91 379.761L119.475 379.202L118.591 379.036C118.487 379.027 118.385 379.003 118.288 378.964C118.393 378.946 118.5 378.946 118.604 378.964L119.501 379.071L122.948 379.511C125.928 379.928 130.26 380.487 135.576 381.129C146.273 382.426 161.111 383.924 177.553 384.852C193.995 385.78 208.896 385.947 219.681 385.863C225.086 385.863 229.455 385.744 232.473 385.673L235.946 385.613H237.209L237.183 385.744Z" fill="#263238"/>
<g opacity="0.3">
<path d="M23.614 240.522C34.5805 247.528 47.2281 251.85 60.4132 253.096C73.5984 254.342 86.9053 252.473 99.1311 247.658C111.961 242.449 124.211 233.825 138.152 234.574C146.449 235.038 154.38 238.904 162.677 238.381C170.026 237.929 176.568 234.098 183.804 232.552C196.432 229.84 210.323 234.336 222.396 229.912C224.997 228.96 227.699 227.271 228.129 224.666C228.216 223.49 227.939 222.316 227.331 221.286C226.724 220.255 225.812 219.413 224.707 218.861C222.478 217.801 220.049 217.167 217.559 216.994C203.727 215.218 189.836 213.731 175.886 212.533C161.603 211.344 147.081 210.404 133.025 213.116C114.512 216.685 98.0703 226.284 80.8958 233.718C63.7214 241.152 44.1223 246.564 26.0892 241.212" fill="black"/>
</g>
<path d="M143.797 214.829C143.797 214.829 152.549 223.619 158.307 224.095C162.803 224.353 167.311 224.353 171.807 224.095C171.807 224.095 184.561 229.043 188.059 228.853C191.557 228.663 195.561 225.284 193.313 222.905C191.065 220.527 185.054 218.659 185.054 218.659L227.396 218.231C228.786 218.239 230.128 217.754 231.155 216.872C232.182 215.99 232.82 214.777 232.94 213.473C233.016 212.343 232.713 211.391 231.564 211.094H228.318C228.318 211.094 228.066 208.977 226.31 208.977H212.558C212.558 208.977 214.351 206.205 210.247 205.825C208.505 205.658 187.516 206.467 175.772 202.458C164.028 198.45 146.058 197.201 146.058 197.201H130.765L131.75 216.815L143.797 214.829Z" fill="#A36957"/>
<path d="M130.765 197.249C130.765 197.249 131.106 197.249 131.775 197.249H134.73L146.096 197.177C149.808 197.451 154.153 197.903 159.027 198.617C164.438 199.362 169.777 200.52 174.989 202.078C181.066 203.971 187.396 205.049 193.793 205.278C197.19 205.48 200.7 205.563 204.312 205.587C206.118 205.587 207.936 205.587 209.805 205.587C210.812 205.537 211.806 205.814 212.621 206.372C212.823 206.55 212.983 206.766 213.091 207.006C213.2 207.245 213.255 207.503 213.253 207.764C213.244 208.262 213.11 208.751 212.861 209.191L212.584 208.751H226.348C226.803 208.738 227.249 208.873 227.611 209.131C228.238 209.644 228.631 210.364 228.71 211.142L228.394 210.868H231.715C232.048 210.93 232.358 211.072 232.615 211.281C232.872 211.489 233.066 211.757 233.18 212.058C233.366 212.632 233.409 213.238 233.307 213.83C233.126 215.019 232.525 216.117 231.602 216.946C230.667 217.793 229.466 218.331 228.18 218.481C226.917 218.588 225.654 218.481 224.467 218.564L185.142 218.945L185.231 218.374C186.814 218.895 188.358 219.514 189.853 220.229C191.379 220.878 192.74 221.827 193.843 223.013C194.098 223.355 194.258 223.753 194.306 224.169C194.355 224.584 194.291 225.005 194.121 225.392C193.783 226.113 193.268 226.749 192.618 227.247C191.389 228.228 189.876 228.841 188.274 229.008C186.738 228.982 185.214 228.742 183.753 228.294C182.314 227.925 180.937 227.485 179.573 227.104C176.858 226.224 174.269 225.285 171.782 224.333H171.895C168.612 224.499 165.493 224.559 162.513 224.499C161.035 224.499 159.583 224.416 158.181 224.273C156.805 224.059 155.482 223.607 154.279 222.941C152.135 221.803 150.125 220.456 148.28 218.921C146.701 217.651 145.192 216.305 143.76 214.889H143.886L134.074 216.411L131.548 216.768L130.702 216.863L131.535 216.685L134.061 216.268L143.734 214.686H143.81C145.249 216.082 146.762 217.408 148.344 218.659C150.18 220.165 152.183 221.481 154.317 222.584C155.487 223.205 156.773 223.609 158.105 223.774C159.482 223.917 160.921 223.952 162.399 223.988C165.354 223.988 168.469 223.917 171.744 223.774H171.807C174.269 224.714 176.858 225.641 179.573 226.51C180.925 226.95 182.301 227.378 183.728 227.699C185.12 228.125 186.571 228.358 188.034 228.389C189.52 228.228 190.921 227.657 192.063 226.748C192.633 226.304 193.087 225.742 193.389 225.106C193.53 224.802 193.584 224.469 193.546 224.14C193.509 223.81 193.38 223.495 193.174 223.227C192.116 222.124 190.826 221.241 189.385 220.634C187.917 219.939 186.403 219.335 184.852 218.826L183.16 218.267H184.94L224.277 217.85C225.54 217.85 226.803 217.85 227.914 217.779C229.056 217.634 230.12 217.156 230.958 216.411C231.778 215.68 232.309 214.706 232.46 213.651C232.65 212.629 232.397 211.487 231.374 211.273H228.028V210.999C227.966 210.387 227.664 209.819 227.182 209.405C226.944 209.24 226.657 209.148 226.361 209.143H212.041L212.281 208.703C212.507 208.388 212.619 208.013 212.598 207.633C212.578 207.253 212.426 206.889 212.167 206.598C211.455 206.141 210.602 205.919 209.742 205.967C207.924 205.896 206.08 205.967 204.274 205.896C200.675 205.896 197.139 205.777 193.73 205.563C187.282 205.315 180.904 204.205 174.787 202.268C169.607 200.676 164.299 199.482 158.913 198.7C154.064 197.962 149.733 197.51 146.033 197.165L134.667 197.094H131.712L130.765 197.249Z" fill="#7C3B29"/>
<path d="M183.943 218.576C183.592 218.742 183.218 218.858 182.831 218.921C182.099 219.111 181.025 219.325 179.687 219.563C176.206 220.163 172.659 220.343 169.13 220.098C165.606 219.786 162.125 219.144 158.737 218.183C157.474 217.826 156.4 217.517 155.681 217.279C155.302 217.182 154.937 217.042 154.594 216.863C156.037 217.072 157.464 217.374 158.863 217.767C162.251 218.584 165.7 219.157 169.18 219.48C172.665 219.709 176.166 219.589 179.624 219.123C182.288 218.778 183.93 218.48 183.943 218.576Z" fill="#7C3B29"/>
<path d="M212.735 209.072C211.297 209.322 209.84 209.461 208.378 209.488C205.676 209.643 201.938 209.786 197.808 209.821C193.679 209.857 189.941 209.762 187.239 209.643C185.775 209.64 184.313 209.525 182.869 209.298C184.326 209.177 185.79 209.15 187.251 209.215H197.808L208.353 209.06C209.812 208.964 211.277 208.968 212.735 209.072Z" fill="#7C3B29"/>
<path d="M227.725 209.702C227.725 209.702 228.179 210.012 228.343 210.892C228.459 211.402 228.459 211.929 228.343 212.438C228.288 212.777 228.14 213.097 227.914 213.366C227.628 213.638 227.283 213.848 226.904 213.985C226.071 214.253 225.195 214.386 224.315 214.377L221.398 214.46L214.692 214.603C209.931 214.686 205.625 214.722 202.506 214.722C200.953 214.722 199.69 214.722 198.818 214.722C198.361 214.745 197.903 214.713 197.455 214.627C197.896 214.522 198.351 214.474 198.806 214.484L202.506 214.318C205.612 214.211 209.919 214.103 214.68 214.02L221.373 213.925C223.168 214.026 224.97 213.923 226.74 213.616C227.056 213.512 227.348 213.351 227.598 213.14C227.79 212.923 227.924 212.666 227.99 212.391C228.206 211.512 228.104 210.591 227.699 209.774L227.725 209.702Z" fill="#7C3B29"/>
<path d="M2.66361 213.925C-2.82968 228.198 -0.884929 243.888 18.6131 257.757C38.1112 271.626 102.629 288.826 102.629 288.826L108.148 233.908L129.123 226.081C130.189 225.637 131.1 224.919 131.754 224.011C132.409 223.103 132.779 222.04 132.823 220.943C133.202 210.713 133.139 196.558 133.139 196.558H111.065C111.065 196.558 14.6731 182.713 2.66361 213.925Z" fill="#8FA38B"/>
<path d="M133.139 196.773C133.158 196.895 133.158 197.019 133.139 197.141V198.188C133.139 199.164 133.139 200.567 133.139 202.244C133.139 205.813 133.429 210.868 133.341 217.172C133.434 218.843 133.294 220.519 132.924 222.156C132.243 223.909 130.892 225.36 129.136 226.224C127.318 227.117 125.436 227.888 123.504 228.532L117.493 230.744L90.6701 240.569C81.161 244.042 71.8161 246.969 62.9637 247.896C55.1198 248.697 47.1867 248.149 39.5509 246.279C34.4215 245.042 29.4311 243.341 24.6495 241.2C22.9573 240.438 21.6566 239.808 20.861 239.356L19.8886 238.844C19.7752 238.787 19.6656 238.724 19.5603 238.654C19.684 238.682 19.803 238.726 19.9139 238.785L20.9242 239.249C21.8081 239.665 23.1215 240.248 24.8137 240.974C29.6185 243.02 34.6102 244.652 39.7277 245.85C47.3127 247.647 55.1777 248.15 62.951 247.337C71.7908 246.374 80.9968 243.46 90.4933 239.986L117.328 230.209L123.365 228.02C125.27 227.399 127.127 226.651 128.921 225.784C130.573 224.986 131.851 223.638 132.508 222.001C132.87 220.412 133.014 218.785 132.937 217.16C133.088 210.88 132.937 205.777 132.937 202.244C132.937 200.484 132.937 199.116 133.013 198.188C133.013 197.748 133.013 197.403 133.013 197.13C133.037 197.006 133.08 196.886 133.139 196.773Z" fill="#263238"/>
<path d="M81.4639 253.154C81.9855 253.433 82.4799 253.756 82.9414 254.117C83.4086 254.45 83.9769 254.855 84.5957 255.366C85.2145 255.878 85.9469 256.437 86.6793 257.139C88.44 258.719 90.0736 260.421 91.5665 262.23C93.3938 264.45 95.0361 266.8 96.4789 269.259C97.8757 271.744 99.0704 274.324 100.053 276.979C100.839 279.151 101.46 281.373 101.909 283.628C102.124 284.58 102.225 285.46 102.338 286.233C102.445 286.887 102.513 287.546 102.54 288.208C102.602 288.773 102.602 289.343 102.54 289.909C102.388 289.359 102.287 288.798 102.237 288.231C102.237 287.696 102.073 287.042 101.922 286.281C101.77 285.519 101.644 284.651 101.391 283.711C100.892 281.493 100.238 279.307 99.4339 277.169C98.4295 274.556 97.2311 272.012 95.8475 269.557C94.4272 267.124 92.8235 264.791 91.0487 262.574C89.5791 260.775 87.9934 259.063 86.3005 257.448C85.5933 256.734 84.8861 256.163 84.2926 255.628C83.6991 255.093 83.1687 254.664 82.7267 254.308C82.2661 253.964 81.843 253.577 81.4639 253.154Z" fill="#263238"/>
<g opacity="0.3">
<path d="M118.919 310.772C118.427 317.016 118.225 323.487 121.9 328.709C123.71 331.348 126.11 333.583 128.933 335.257C131.755 336.932 134.932 338.005 138.241 338.403C141.56 338.736 144.914 338.214 147.943 336.892C150.972 335.57 153.563 333.498 155.44 330.898C155.705 330.544 155.878 330.136 155.945 329.708C155.918 329.275 155.742 328.862 155.444 328.532C155.145 328.201 154.741 327.971 154.291 327.876C153.387 327.704 152.455 327.704 151.551 327.876C138.367 329.53 124.968 321.929 118.919 310.724" fill="black"/>
</g>
<path d="M214.061 345.457C214.541 344.553 256.113 394.225 268.451 399.852C280.789 405.478 313.584 406.846 314.481 372.434C315.378 338.023 308.836 284.318 308.836 284.318C308.836 284.318 306.626 245.006 291.687 241.259C288.353 240.426 284.11 250.906 282.948 251.453C281.786 252 266.228 288.814 266.228 288.814L262.882 336.905L245.91 324.106L214.061 345.457Z" fill="#8FA38B"/>
<path d="M275.864 346.73C275.655 346.619 275.461 346.488 275.283 346.337L273.641 345.148L267.479 340.592L245.695 324.308H246.048L218.026 343.161L214.238 345.695V345.231C227.144 358.541 237.688 371.221 245.758 379.952C249.774 384.317 253.158 387.731 255.545 390.038C256.719 391.228 257.666 392.072 258.285 392.679L258.992 393.369C259.161 393.52 259.236 393.603 259.22 393.619L258.954 393.417L258.197 392.762C257.553 392.179 256.568 391.347 255.368 390.193C252.931 387.945 249.483 384.567 245.417 380.225C237.246 371.566 226.651 358.969 213.846 345.731L213.632 345.457L213.935 345.255L217.723 342.721L245.783 323.916L245.96 323.797L246.137 323.927C254.977 330.707 262.49 336.381 267.769 340.39L273.831 345.064L275.409 346.313C275.571 346.441 275.723 346.581 275.864 346.73Z" fill="#263238"/>
<path d="M285.259 244.554C284.966 244.75 284.658 244.925 284.337 245.077C283.463 245.544 282.619 246.061 281.811 246.623C278.782 248.686 276.162 251.235 274.07 254.153C270.983 258.488 268.785 263.329 267.592 268.426C266.197 274.686 265.473 281.062 265.432 287.458C264.927 301.101 264.17 313.46 263.778 322.405C263.526 326.83 263.323 330.434 263.185 332.991C263.109 334.181 263.033 335.156 262.995 335.87C262.957 336.583 262.894 336.869 262.881 336.869C262.846 336.533 262.846 336.194 262.881 335.858C262.881 335.144 262.881 334.181 262.957 332.979C263.046 330.41 263.185 326.806 263.336 322.381C263.715 313.389 264.233 301.066 264.801 287.434C264.841 280.991 265.59 274.569 267.036 268.272C268.242 263.115 270.488 258.225 273.653 253.867C275.804 250.934 278.51 248.398 281.634 246.385C282.475 245.842 283.357 245.357 284.274 244.934C284.587 244.776 284.917 244.648 285.259 244.554Z" fill="#263238"/>
<g opacity="0.3">
<path d="M107.112 244.138C107.112 244.138 97.7797 249.062 92.0339 250.085C86.288 251.108 51.9896 255.497 36.2422 245.684C36.2422 245.684 52.5453 248.789 64.9715 247.444C77.7892 246.053 108.148 233.908 108.148 233.908L107.112 244.138Z" fill="black"/>
</g>
<path d="M260.091 409.772L259.371 410.593C258.879 411.14 258.171 411.96 257.148 412.971C254.207 415.917 250.958 418.575 247.45 420.905C241.893 424.611 235.758 427.48 229.265 429.41C225.215 430.614 221.049 431.439 216.826 431.872C212.059 432.349 207.238 431.908 202.658 430.576C200.189 429.838 197.895 428.659 195.901 427.102C193.82 425.447 192.235 423.306 191.305 420.893C190.399 418.358 190.267 415.633 190.926 413.031C191.597 410.333 192.891 407.807 194.714 405.632C196.553 403.358 198.909 401.5 201.609 400.197C204.419 398.861 207.565 398.28 210.702 398.519C213.947 398.828 217.093 399.752 219.949 401.236C222.805 402.72 225.312 404.734 227.321 407.155C229.472 409.627 231.124 412.449 232.195 415.481C233.262 418.582 233.74 421.835 233.609 425.092C233.226 431.806 230.988 438.308 227.118 443.957C226.163 445.411 225.121 446.812 223.999 448.156C223.456 448.846 222.837 449.476 222.257 450.143C221.676 450.809 220.994 451.332 220.35 451.998L218.418 453.866C217.748 454.472 217.003 454.984 216.296 455.543L214.149 457.208C213.429 457.767 212.621 458.195 211.851 458.695C205.56 462.671 198.529 465.496 191.128 467.021C176.459 470.184 161.07 468.232 147.813 461.526C144.687 459.872 141.728 457.953 138.973 455.793C136.297 453.637 133.92 451.171 131.901 448.453C129.91 445.783 128.49 442.773 127.721 439.592C126.983 436.432 127.171 433.143 128.264 430.076C129.251 427.071 131.163 424.409 133.758 422.428C136.319 420.498 139.569 419.566 142.837 419.823C145.981 420.137 148.951 421.335 151.361 423.26C152.543 424.176 153.584 425.24 154.455 426.424C155.333 427.581 156.019 428.856 156.489 430.207C157.399 432.838 157.616 435.639 157.12 438.367C156.675 440.987 155.711 443.505 154.279 445.789C151.554 450.075 147.548 453.509 142.762 455.662C138.437 457.642 133.795 458.936 129.022 459.492C124.811 460.022 120.549 460.106 116.318 459.742C112.637 459.412 108.997 458.759 105.445 457.791C102.456 456.995 99.5418 455.968 96.7316 454.722C92.8347 453.023 89.1605 450.903 85.7829 448.406C84.6085 447.573 83.7876 446.848 83.2572 446.384L82.4111 445.658C82.4111 445.658 82.7268 445.884 83.2951 446.336C83.8634 446.788 84.7095 447.526 85.8965 448.311C89.2971 450.759 92.9831 452.835 96.8831 454.496C99.6845 455.727 102.591 456.734 105.571 457.505C109.104 458.451 112.723 459.084 116.381 459.397C120.589 459.738 124.825 459.638 129.009 459.099C133.702 458.538 138.264 457.248 142.509 455.281C147.204 453.156 151.13 449.776 153.799 445.563C155.197 443.33 156.135 440.868 156.564 438.307C157.043 435.658 156.826 432.938 155.933 430.385C154.947 427.726 153.188 425.38 150.858 423.614C148.528 421.847 145.718 420.732 142.749 420.394C139.628 420.151 136.527 421.045 134.086 422.892C131.587 424.808 129.746 427.378 128.795 430.278C127.756 433.229 127.582 436.389 128.29 439.425C129.039 442.536 130.429 445.478 132.381 448.085C134.37 450.761 136.712 453.187 139.352 455.305C142.076 457.433 144.996 459.328 148.078 460.967C161.191 467.581 176.403 469.5 190.901 466.367C198.217 464.861 205.169 462.077 211.396 458.16C212.154 457.66 212.962 457.232 213.669 456.685L215.791 455.043C216.485 454.484 217.231 453.973 217.875 453.378L219.794 451.546C220.413 450.928 221.057 450.357 221.676 449.702C222.294 449.048 222.863 448.418 223.393 447.74C224.502 446.416 225.531 445.034 226.474 443.6C230.295 438.043 232.51 431.643 232.902 425.033C233.038 421.851 232.585 418.671 231.564 415.636C230.51 412.679 228.897 409.927 226.803 407.512C224.849 405.148 222.407 403.181 219.625 401.73C216.843 400.278 213.777 399.372 210.613 399.067C207.565 398.815 204.504 399.372 201.774 400.672C199.145 401.94 196.85 403.744 195.055 405.954C193.303 408.055 192.058 410.49 191.406 413.09C190.763 415.604 190.881 418.237 191.747 420.691C192.643 423.026 194.171 425.101 196.179 426.71C198.126 428.232 200.363 429.391 202.771 430.124C207.291 431.439 212.045 431.884 216.751 431.432C220.945 431.024 225.086 430.227 229.114 429.053C239.709 425.951 249.304 420.384 257.01 412.864C258.058 411.877 258.778 411.068 259.283 410.545C259.788 410.022 260.091 409.772 260.091 409.772Z" fill="white"/>
<path d="M51.1939 246.41C51.1013 246.339 51.0166 246.259 50.9414 246.172L50.2216 245.434C49.8303 245.033 49.4675 244.608 49.1355 244.161C48.6785 243.57 48.2569 242.954 47.8727 242.318C46.7392 240.571 45.8238 238.707 45.145 236.763C44.2764 234.174 43.7919 231.484 43.7054 228.77C43.5923 225.476 44.1011 222.19 45.2081 219.064C46.4908 215.448 48.653 212.165 51.5223 209.476C54.8174 206.442 58.8084 204.162 63.1875 202.811C67.5666 201.46 72.2166 201.075 76.7788 201.685C79.1748 202.044 81.5128 202.688 83.737 203.6C85.9461 204.454 87.9072 205.791 89.4576 207.502C90.1971 208.36 90.7265 209.362 91.0081 210.435C91.2897 211.508 91.3165 212.627 91.0866 213.711C90.8428 214.775 90.2563 215.743 89.4071 216.482C88.5747 217.191 87.5606 217.683 86.4647 217.91C84.405 218.289 82.2808 218.224 80.2516 217.719C78.3626 217.295 76.5028 216.763 74.6825 216.126C71.3374 215.051 68.2726 213.32 65.6912 211.046C64.5898 210.036 63.6649 208.868 62.9508 207.585C62.3309 206.433 61.9049 205.197 61.688 203.922C61.3574 201.872 61.6192 199.776 62.4457 197.855C62.991 196.64 63.8611 195.579 64.9714 194.774C65.3595 194.489 65.7837 194.249 66.2342 194.061C66.2342 194.061 65.8175 194.311 65.1103 194.882C64.0434 195.698 63.2172 196.759 62.7109 197.962C61.9394 199.856 61.7213 201.91 62.0795 203.91C62.2937 205.155 62.7201 206.36 63.3423 207.478C64.0445 208.716 64.9526 209.841 66.0322 210.809C68.5846 212.995 71.5962 214.653 74.8719 215.674C76.6743 216.288 78.5126 216.804 80.3779 217.22C82.3236 217.685 84.3542 217.742 86.3258 217.386C87.3152 217.171 88.2315 216.725 88.9903 216.09C89.7356 215.417 90.2539 214.552 90.4805 213.604C90.6842 212.607 90.6529 211.58 90.3889 210.595C90.1249 209.611 89.6345 208.693 88.9525 207.906C87.468 206.27 85.5885 204.993 83.4718 204.183C81.3037 203.297 79.025 202.674 76.6904 202.328C72.2124 201.708 67.6431 202.064 63.3345 203.37C59.0258 204.675 55.0926 206.894 51.838 209.857C49.0423 212.486 46.9252 215.685 45.6501 219.206C44.5586 222.271 44.0332 225.49 44.0968 228.722C44.1606 231.4 44.6109 234.057 45.4354 236.62C46.0603 238.545 46.9073 240.4 47.9611 242.151C48.9433 243.633 50.023 245.055 51.1939 246.41Z" fill="white"/>
<path d="M64.4158 246.433C64.5834 246.812 64.6857 247.213 64.7189 247.623C64.8108 248.075 64.8783 248.532 64.9209 248.99C64.9209 249.526 65.0472 250.18 65.0346 250.822C65.0687 252.416 64.9419 254.009 64.6557 255.58C63.9566 259.452 62.3614 263.131 59.9833 266.357C59.0146 267.662 57.9197 268.881 56.7126 269.997C56.2519 270.418 55.7671 270.815 55.2603 271.186C54.9003 271.499 54.5115 271.782 54.0985 272.031C53.7779 272.286 53.4209 272.499 53.0377 272.661C52.962 272.554 54.4142 271.59 56.3716 269.652C57.5196 268.523 58.5592 267.301 59.4782 266C61.7499 262.812 63.3096 259.223 64.0622 255.449C64.3655 253.911 64.5344 252.351 64.5674 250.787C64.6179 248.098 64.2895 246.445 64.4158 246.433Z" fill="white"/>
<path d="M264.549 268.676C264.333 268.643 264.121 268.587 263.918 268.51C263.526 268.367 262.907 268.212 262.162 267.903C260.034 267.084 257.996 266.072 256.075 264.882C249.633 260.985 244.576 255.362 241.553 248.735C238.531 242.109 237.682 234.783 239.116 227.699C239.521 225.565 240.147 223.474 240.985 221.454C241.262 220.741 241.565 220.205 241.73 219.837C241.808 219.645 241.914 219.465 242.045 219.301C242.045 219.301 241.755 220.098 241.225 221.537C240.492 223.569 239.939 225.653 239.57 227.77C238.277 234.774 239.172 241.982 242.147 248.515C245.122 255.049 250.049 260.628 256.328 264.573C258.21 265.777 260.195 266.832 262.263 267.725C263.046 267.996 263.809 268.314 264.549 268.676Z" fill="white"/>
<path d="M307.485 281.356H306.222C305.032 281.36 303.844 281.424 302.661 281.547C298.317 282.049 294.146 283.455 290.449 285.662C284.951 288.951 280.891 293.991 279.008 299.864C277.876 303.293 277.481 306.9 277.846 310.475C278.038 312.354 278.462 314.206 279.109 315.994C279.781 317.821 280.897 319.474 282.367 320.823C283.861 322.121 285.804 322.865 287.835 322.916C288.807 322.926 289.766 322.715 290.632 322.301C291.499 321.887 292.246 321.282 292.811 320.538C293.873 319.042 294.44 317.282 294.44 315.482C294.487 313.743 294.165 312.012 293.493 310.391C292.275 307.353 290.18 304.696 287.444 302.719C285.078 300.987 282.214 299.963 279.223 299.781C276.745 299.712 274.292 300.262 272.113 301.375C270.487 302.227 269.064 303.385 267.933 304.777C266.982 305.991 266.271 307.357 265.837 308.809C265.817 308.711 265.817 308.61 265.837 308.512C265.837 308.322 265.951 308.024 266.052 307.656C266.434 306.578 266.983 305.56 267.681 304.634C268.819 303.169 270.279 301.952 271.962 301.066C274.185 299.881 276.706 299.281 279.261 299.329C282.36 299.484 285.337 300.521 287.797 302.303C290.646 304.316 292.835 307.045 294.112 310.177C294.821 311.864 295.164 313.668 295.122 315.482C295.123 317.404 294.521 319.282 293.392 320.882C292.763 321.701 291.934 322.366 290.976 322.821C290.018 323.276 288.959 323.509 287.886 323.499C285.69 323.445 283.59 322.642 281.976 321.239C280.422 319.832 279.248 318.094 278.554 316.172C277.87 314.338 277.424 312.433 277.228 310.498C276.876 306.839 277.305 303.151 278.49 299.65C279.549 296.485 281.223 293.532 283.428 290.943C285.359 288.705 287.667 286.78 290.26 285.246C294.028 283.042 298.284 281.682 302.699 281.273C304.292 281.126 305.898 281.154 307.485 281.356Z" fill="white"/>
<path d="M308.659 391.49C308.42 391.665 308.162 391.817 307.889 391.942C307.142 392.359 306.366 392.729 305.565 393.048C302.607 394.2 299.446 394.821 296.246 394.88C291.48 394.958 286.763 393.971 282.481 392.001C277.272 389.505 272.835 385.785 269.6 381.201C266.36 376.645 264.135 371.518 263.059 366.13C262.191 361.747 261.923 357.278 262.263 352.832C262.488 349.845 262.931 346.876 263.589 343.946C263.829 342.911 264.031 342.114 264.183 341.567C264.256 341.29 264.344 341.016 264.448 340.747C264.435 341.031 264.393 341.314 264.321 341.591C264.195 342.198 264.031 342.995 263.842 343.97C263.277 346.904 262.902 349.867 262.718 352.844C262.455 357.248 262.769 361.667 263.652 365.999C264.742 371.302 266.95 376.345 270.143 380.832C273.33 385.325 277.675 388.984 282.771 391.466C286.961 393.428 291.58 394.438 296.258 394.416C299.417 394.392 302.546 393.844 305.502 392.798C306.302 392.506 307.086 392.177 307.851 391.811C308.112 391.686 308.382 391.578 308.659 391.49Z" fill="white"/>
<path d="M216.22 297.39L216.397 297.093C216.397 297.093 203.996 235.692 203.769 234.051C203.15 229.947 198.718 224.535 195.699 230.351L194.588 222.965C194.588 222.965 187.352 222.418 188.274 230.411C188.274 230.411 183.223 230.316 184.081 240.521C184.801 249.288 185.521 268.343 185.521 268.343C185.521 268.343 181.126 259.113 179.207 254.866C177.287 250.62 172.628 250.109 169.698 253.677C169.698 253.677 178.437 273.708 177.59 276.622C176.744 279.536 178.437 297.842 186.607 303.98C187.841 304.877 189.155 305.673 190.534 306.359L211.56 334.359L218.077 343.042L243.333 325.485L216.22 297.39Z" fill="#A36957"/>
<path d="M191.999 263.562C191.915 263.294 191.86 263.019 191.835 262.741C191.746 262.158 191.633 261.361 191.481 260.362C191.166 258.233 190.724 255.188 190.218 251.37C189.713 247.551 189.019 242.889 188.4 237.607C188.261 236.287 188.11 234.919 187.958 233.528C187.75 232.079 187.75 230.611 187.958 229.162C188.201 227.605 188.931 226.152 190.054 224.987C191.259 223.791 192.847 223.001 194.575 222.739H194.891V223.048C195.548 229.59 196.469 236.727 197.417 244.15C198.768 255.176 200.106 265.56 200.801 274.6V274.921H200.409C200.091 274.97 199.801 275.121 199.589 275.349C199.304 275.601 199.054 275.884 198.844 276.194C198.412 276.822 198.036 277.483 197.72 278.168C197.117 279.496 196.607 280.859 196.192 282.248C195.358 284.948 194.752 287.53 194.108 289.873C192.845 294.548 191.848 298.413 191.077 301.28C191.072 302.11 191.29 302.928 191.709 303.659C192.005 304.192 192.347 304.701 192.731 305.181C193.376 305.955 193.78 306.311 193.754 306.371C193.346 306.047 192.969 305.689 192.63 305.3C192.208 304.828 191.836 304.318 191.519 303.778C191.066 303.027 190.823 302.18 190.812 301.316L193.679 289.873C194.285 287.494 194.878 284.948 195.686 282.213C196.1 280.795 196.61 279.405 197.215 278.05C197.534 277.332 197.923 276.643 198.376 275.992C198.613 275.648 198.888 275.329 199.197 275.04C199.366 274.855 199.578 274.709 199.817 274.615C200.056 274.52 200.315 274.478 200.574 274.493L200.195 274.767C199.462 265.75 198.099 255.378 196.747 244.352C195.825 236.929 194.916 229.793 194.222 223.239L194.563 223.5C192.978 223.744 191.52 224.466 190.408 225.558C189.366 226.642 188.685 227.99 188.45 229.436C188.248 230.837 188.248 232.257 188.45 233.658C188.589 235.05 188.728 236.418 188.867 237.738C189.436 243.008 190.042 247.658 190.547 251.512C191.052 255.366 191.406 258.376 191.671 260.517C191.784 261.54 191.86 262.337 191.923 262.896C191.963 263.116 191.988 263.338 191.999 263.562Z" fill="#7C3B29"/>
<path d="M182.793 262.194C183.249 262.655 183.624 263.181 183.905 263.752C184.713 265.188 185.348 266.704 185.799 268.272L185.571 268.07C187.309 268.439 188.964 269.096 190.459 270.009C192.969 271.511 194.978 273.651 196.255 276.182C196.641 276.944 196.941 277.741 197.152 278.561C197.278 279.144 197.328 279.465 197.278 279.477C197.227 279.489 196.886 278.216 195.838 276.396C194.49 274.016 192.516 272.001 190.105 270.544C188.671 269.673 187.098 269.027 185.445 268.629H185.268V268.462C184.622 266.314 183.794 264.218 182.793 262.194Z" fill="#7C3B29"/>
<path d="M379.663 92.3915L374.416 100.523L387.894 108.239L393.141 100.108L379.663 92.3915Z" fill="#263238"/>
<path d="M386.608 90.3651L375.798 107.113L361.276 98.7866C363.231 92.3969 366.963 86.6151 372.086 82.0388L386.608 90.3651Z" fill="#455A64"/>
<path d="M377.554 104.306C377.377 104.579 373.841 102.879 369.649 100.511C365.456 98.1444 362.186 95.9915 362.362 95.7536C362.539 95.5157 366.075 97.1809 370.268 99.5599C374.46 101.939 377.769 104.044 377.554 104.306Z" fill="#263238"/>
<path d="M379.612 101.118C379.423 101.38 375.824 99.5122 371.656 96.9786C367.489 94.4451 364.155 92.2207 364.269 92.0185C364.383 91.8163 368.057 93.4816 372.313 96.0152C376.569 98.5488 379.789 100.856 379.612 101.118Z" fill="#263238"/>
<path d="M382.352 96.8717C382.176 97.1334 378.564 95.2302 374.346 92.6491C370.128 90.0679 366.769 87.7722 366.933 87.5581C367.097 87.344 370.722 89.1044 375.003 91.6975C379.284 94.2905 382.529 96.61 382.352 96.8717Z" fill="#263238"/>
<path d="M384.828 92.9106C384.651 93.1841 381.115 91.4356 376.935 89.021C372.755 86.6063 369.51 84.4296 369.674 84.1679C369.838 83.9062 373.387 85.6429 377.567 88.0575C381.747 90.4721 385.005 92.6013 384.828 92.9106Z" fill="#263238"/>
<path d="M511.644 61.0606L502.749 56.5508L495.273 69.6328L504.169 74.1427L511.644 61.0606Z" fill="#263238"/>
<path d="M514.154 67.3965L495.855 58.1067L503.912 44.0115C510.795 45.5283 517.122 48.7523 522.236 53.3488L514.154 67.3965Z" fill="#455A64"/>
<path d="M498.924 59.6648C498.634 59.5221 500.187 56.0964 502.549 52.0284C504.91 47.9604 506.943 44.7845 507.234 44.8915C507.524 44.9986 505.971 48.46 503.609 52.528C501.248 56.596 499.215 59.8075 498.924 59.6648Z" fill="#263238"/>
<path d="M502.422 61.4372C502.132 61.2826 503.925 57.8688 506.387 53.7413C508.85 49.6138 511.047 46.4379 511.262 46.5331C511.477 46.6282 509.911 50.2086 507.474 54.3004C505.036 58.3922 502.713 61.5918 502.422 61.4372Z" fill="#263238"/>
<path d="M507.069 63.7924C506.779 63.6377 508.61 60.224 511.123 56.037C513.636 51.8501 515.896 48.6861 516.174 48.805C516.452 48.924 514.735 52.4805 512.209 56.608C509.683 60.7354 507.36 63.947 507.069 63.7924Z" fill="#263238"/>
<path d="M511.388 65.9097C511.098 65.767 512.765 62.3413 515.101 58.2852C517.437 54.2291 519.584 51.0532 519.874 51.1483C520.165 51.2435 518.498 54.7167 516.162 58.7728C513.825 62.829 511.628 66.0643 511.388 65.9097Z" fill="#263238"/>
<path d="M439.589 48.5761L428.216 52.0588L433.987 68.7779L445.36 65.2951L439.589 48.5761Z" fill="#263238"/>
<path d="M447.414 51.7193L423.988 58.8561L417.775 40.8356C424.769 36.5337 432.857 34.0698 441.201 33.6987L447.414 51.7193Z" fill="#80937B"/>
<path d="M441.504 33.6866C441.744 33.8412 437.564 38.04 430.58 40.1692C423.597 42.2983 417.611 41.3587 417.712 41.0851C417.813 40.8115 423.546 41.204 430.201 39.0868C436.856 36.9695 441.264 33.4011 441.504 33.6866Z" fill="#263238"/>
<path d="M431.716 56.4652C431.401 56.5723 429.948 53.1822 428.471 48.9239C426.993 44.6656 426.059 41.1091 426.375 41.0139C426.69 40.9188 428.142 44.2969 429.62 48.5671C431.098 52.8373 432.07 56.37 431.716 56.4652Z" fill="#263238"/>
<path d="M436.212 55.2043C435.884 55.3113 434.432 51.9094 432.954 47.6273C431.477 43.3452 430.53 39.7768 430.845 39.6816C431.161 39.5865 432.626 42.9884 434.103 47.2705C435.581 51.5526 436.528 55.1091 436.212 55.2043Z" fill="#263238"/>
<path d="M440.645 53.7768C440.329 53.872 438.864 50.4701 437.386 46.188C435.909 41.9058 434.962 38.3493 435.278 38.2542C435.593 38.159 437.058 41.549 438.536 45.843C440.013 50.137 440.91 53.6816 440.645 53.7768Z" fill="#263238"/>
<path d="M444.357 52.635C444.029 52.7301 442.476 49.0665 440.885 44.4276C439.293 39.7886 438.245 35.9585 438.561 35.8634C438.877 35.7682 440.43 39.4318 442.034 44.0708C443.638 48.7097 444.698 52.5398 444.357 52.635Z" fill="#263238"/>
<path d="M427.474 57.6903C427.158 57.7855 425.605 54.1219 424.001 49.4711C422.397 44.8202 421.362 41.002 421.677 40.9068C421.993 40.8117 423.546 44.4753 425.15 49.1261C426.754 53.7769 427.789 57.5952 427.474 57.6903Z" fill="#263238"/>
<path d="M546.243 165.607C561.094 122.554 536.08 76.3122 490.371 62.3233C444.663 48.3344 395.57 71.8958 380.718 114.949C365.866 158.002 390.881 204.244 436.589 218.233C482.298 232.222 531.391 208.661 546.243 165.607Z" fill="#80937B"/>
<path d="M536.225 142.405C537.859 104.42 506.491 72.3793 466.164 70.8404C425.836 69.3014 391.819 98.8471 390.185 136.832C388.552 174.818 419.919 206.858 460.247 208.397C500.575 209.936 534.591 180.391 536.225 142.405Z" fill="#FAFAFA"/>
<path d="M532.717 118.342C532.717 118.342 532.528 118.009 532.225 117.319C531.922 116.629 531.492 115.582 530.962 114.285C530.684 113.607 530.369 112.858 530.015 112.049C529.661 111.24 529.131 110.384 528.626 109.444C527.523 107.261 526.257 105.154 524.837 103.14C521.099 97.5251 516.48 92.4759 511.136 88.1646C503.36 81.7964 494.242 77.0509 484.38 74.2402C474.518 71.4294 464.136 70.6172 453.917 71.8569C450.861 72.2423 447.836 72.8225 444.863 73.5935C443.36 73.998 441.807 74.3191 440.304 74.783L435.859 76.4245C435.113 76.71 434.331 76.9479 433.598 77.269L431.413 78.3157C429.961 79.0175 428.458 79.6718 427.019 80.4449C421.158 83.7467 415.772 87.7444 410.994 92.3397C409.794 93.5291 408.695 94.8257 407.533 96.0746C406.362 97.3257 405.286 98.6533 404.313 100.047C402.225 102.814 400.331 105.707 398.643 108.707C397.039 111.818 395.651 115.025 394.488 118.306C392.076 125.044 390.835 132.106 390.814 139.217C390.66 153.963 395.627 168.352 404.957 180.194C409.411 185.937 414.822 190.962 420.982 195.075C426.84 199.162 433.372 202.312 440.316 204.4C441.962 204.989 443.65 205.466 445.368 205.827C447.085 206.196 448.777 206.636 450.495 206.934C453.894 207.476 457.328 207.798 460.774 207.897C464.144 208.02 467.519 207.933 470.877 207.635C472.518 207.457 474.147 207.148 475.764 206.922L478.176 206.553C478.971 206.41 479.754 206.172 480.537 205.982L485.172 204.793C486.7 204.352 488.152 203.746 489.617 203.246C492.5 202.24 495.306 201.048 498.015 199.678C507.053 195.019 514.942 188.612 521.165 180.877C527.387 173.142 531.802 164.255 534.119 154.799C535.743 148.348 536.326 141.704 535.849 135.089C535.736 132.674 535.445 130.27 534.978 127.893C534.788 126.858 534.662 125.895 534.473 125.026C534.283 124.158 534.031 123.397 533.841 122.647C533.475 121.291 533.185 120.269 532.983 119.472C532.78 118.675 532.743 118.377 532.743 118.377C532.743 118.377 532.882 118.734 533.109 119.436C533.336 120.138 533.652 121.244 534.069 122.588C534.283 123.29 534.511 124.063 534.763 124.967C535.016 125.871 535.129 126.799 535.331 127.845C535.848 130.226 536.178 132.639 536.316 135.066C536.886 141.722 536.367 148.422 534.776 154.93C532.511 164.517 528.104 173.539 521.848 181.397C515.592 189.254 507.631 195.766 498.495 200.499C495.756 201.915 492.916 203.151 489.996 204.198C488.506 204.721 487.028 205.328 485.488 205.78L480.79 206.969C479.994 207.16 479.211 207.397 478.403 207.552L475.953 207.933C474.312 208.171 472.657 208.48 470.99 208.658C467.592 208.973 464.174 209.072 460.761 208.956C457.261 208.863 453.771 208.541 450.318 207.992C448.575 207.695 446.858 207.255 445.102 206.886C443.344 206.516 441.615 206.035 439.925 205.447C432.869 203.322 426.228 200.128 420.263 195.99C414.001 191.809 408.497 186.704 403.96 180.872C394.472 168.845 389.425 154.223 389.589 139.241C389.635 132.014 390.914 124.841 393.377 117.997C394.562 114.661 395.979 111.403 397.62 108.243C399.334 105.198 401.258 102.262 403.379 99.4527C404.377 98.0412 405.473 96.6941 406.662 95.4204C407.849 94.1596 408.973 92.8511 410.185 91.6379C412.64 89.286 415.26 87.0924 418.027 85.072C420.723 83.097 423.549 81.2853 426.488 79.648C427.953 78.8748 429.481 78.2087 430.959 77.495L433.181 76.4483C433.926 76.1152 434.709 75.8773 435.467 75.5919L440.026 73.9623C441.554 73.4746 443.12 73.1534 444.648 72.7728C447.668 72.009 450.74 71.4368 453.841 71.06C464.175 69.8091 474.672 70.645 484.636 73.5122C494.6 76.3794 503.801 81.2121 511.628 87.6888C516.983 92.0723 521.587 97.2078 525.279 102.914C526.662 104.939 527.882 107.058 528.929 109.254C529.409 110.206 529.901 111.062 530.268 111.883C530.634 112.703 530.899 113.465 531.164 114.155C531.669 115.475 532.061 116.534 532.351 117.235C532.642 117.937 532.717 118.342 532.717 118.342Z" fill="#263238"/>
<path d="M522.211 120.435C515.897 122.469 510.643 123.766 510.479 123.326C510.315 122.886 515.202 120.673 521.415 118.378C527.628 116.082 532.869 114.809 533.134 115.487C533.399 116.165 528.512 118.401 522.211 120.435Z" fill="#263238"/>
<path d="M519.495 165.052C513.484 162.317 508.787 159.759 508.989 159.343C509.191 158.927 514.33 160.532 520.455 163.066C526.58 165.6 531.278 168.109 530.949 168.787C530.621 169.465 525.519 167.788 519.495 165.052Z" fill="#263238"/>
<path d="M484.237 194.991C482.015 189.044 480.588 184.132 481.042 183.977C481.497 183.822 483.909 188.39 486.409 194.218C488.91 200.047 490.337 204.924 489.604 205.233C488.872 205.542 486.472 200.903 484.237 194.991Z" fill="#263238"/>
<path d="M436.831 192.921C439.672 187.236 442.337 182.775 442.791 182.966C443.246 183.156 441.529 188.009 439.003 193.802C436.477 199.594 433.762 204.055 433.055 203.746C432.348 203.436 434.002 198.595 436.831 192.921Z" fill="#263238"/>
<path d="M404.667 160.045C410.981 157.88 416.146 156.476 416.323 156.928C416.5 157.38 411.676 159.664 405.513 162.079C399.35 164.493 394.148 165.897 393.844 165.207C393.541 164.517 398.416 162.209 404.667 160.045Z" fill="#263238"/>
<path d="M406.346 115.38C412.408 117.985 417.169 120.447 416.979 120.875C416.79 121.304 411.612 119.686 405.425 117.378C399.237 115.071 394.488 112.561 394.804 111.883C395.12 111.205 400.285 112.823 406.346 115.38Z" fill="#263238"/>
<path d="M440.91 84.7271C443.272 90.5912 444.812 95.4918 444.358 95.6702C443.903 95.8487 441.39 91.3049 438.763 85.5359C436.137 79.767 434.596 74.8307 435.316 74.5928C436.036 74.3549 438.523 78.8511 440.91 84.7271Z" fill="#263238"/>
<path d="M488.329 85.8097C485.627 91.543 483.063 96.0511 482.609 95.8727C482.154 95.6943 483.758 90.8055 486.195 84.9652C488.632 79.1249 491.183 74.6168 491.916 74.9022C492.648 75.1877 491.032 80.0646 488.329 85.8097Z" fill="#263238"/>
<path d="M521.251 117.997C515.038 120.292 509.885 121.803 509.658 121.363C509.431 120.923 514.267 118.532 520.367 115.986C526.466 113.441 531.644 111.942 531.947 112.62C532.25 113.298 527.451 115.713 521.251 117.997Z" fill="#263238"/>
<path d="M411.777 77.0666C410.806 78 409.777 78.8778 408.695 79.6954C405.885 82.0478 403.232 84.5625 400.752 87.2248C392.506 95.9757 386.418 106.337 382.925 117.565C379.432 128.794 378.62 140.611 380.547 152.17C381.113 155.67 381.906 159.134 382.921 162.542C383.355 163.78 383.718 165.038 384.007 166.313C384.007 166.313 383.805 166.016 383.54 165.397C383.275 164.778 382.871 163.874 382.466 162.673C381.269 159.283 380.348 155.812 379.713 152.289C377.518 140.607 378.217 128.606 381.757 117.22C385.297 105.835 391.582 95.3743 400.121 86.6538C402.673 84.0139 405.438 81.5642 408.392 79.3266C409.428 78.5059 410.299 77.9706 410.918 77.5662C411.537 77.1618 411.751 77.031 411.777 77.0666Z" fill="white"/>
<path d="M433.421 65.7671C433.535 66.0763 430.024 67.6107 425.731 69.5377C421.437 71.4646 417.939 73.1061 417.762 72.7731C417.585 72.44 420.856 70.3941 425.213 68.5147C429.57 66.6354 433.333 65.4816 433.421 65.7671Z" fill="white"/>
<g opacity="0.4">
<path d="M421.235 195.991C421.235 195.991 475.739 238.502 522.148 193.968C570.59 147.484 515.72 91.7332 515.72 91.7332C515.72 91.7332 561.182 135.625 516.124 187.129C504.897 199.951 489.478 204.686 477.343 207.172C446.315 213.535 421.235 195.991 421.235 195.991Z" fill="black"/>
</g>
<path d="M470.574 98.9058C474.236 108.4 477.243 118.106 479.578 127.965C480.556 131.504 480.981 135.158 480.841 138.813C480.707 142.48 479.068 145.955 476.269 148.507C473.352 150.886 468.781 151.683 465.497 149.696L470.574 98.9058Z" fill="#E0E0E0"/>
<path d="M459.916 134.923L471.344 87.1296L471.711 137.028L464.677 141.608L459.916 134.923Z" fill="#80937B"/>
<g opacity="0.4">
<path d="M471.344 87.1296L466.747 133.805L471.71 137.028L471.344 87.1296Z" fill="black"/>
</g>
<path d="M472.809 139.122C473.331 140.637 473.364 142.263 472.904 143.796C472.444 145.329 471.513 146.699 470.227 147.732C468.94 148.766 467.358 149.418 465.678 149.604C463.999 149.791 462.299 149.504 460.793 148.781C459.287 148.057 458.042 146.929 457.216 145.539C456.39 144.15 456.021 142.56 456.154 140.973C456.287 139.385 456.917 137.87 457.964 136.62C459.011 135.369 460.429 134.439 462.037 133.948C463.105 133.621 464.231 133.496 465.35 133.579C466.469 133.663 467.56 133.953 468.561 134.433C469.561 134.914 470.451 135.575 471.18 136.38C471.909 137.184 472.462 138.116 472.809 139.122Z" fill="#FAFAFA"/>
<path d="M472.809 139.122C472.708 139.122 472.468 138.468 471.71 137.445C470.651 136.005 469.121 134.932 467.353 134.388C465.943 133.946 464.43 133.882 462.983 134.202C461.536 134.522 460.212 135.214 459.157 136.201C458.103 137.188 457.36 138.431 457.012 139.792C456.663 141.153 456.722 142.579 457.183 143.91C457.643 145.241 458.487 146.426 459.62 147.332C460.753 148.239 462.13 148.831 463.6 149.044C465.069 149.256 466.572 149.081 467.941 148.537C469.311 147.992 470.493 147.101 471.357 145.961C472.44 144.542 473.007 142.832 472.973 141.084C472.973 139.895 472.708 139.146 472.809 139.122C473.193 139.702 473.411 140.366 473.44 141.049C473.666 142.935 473.174 144.836 472.051 146.413C471.214 147.601 470.07 148.568 468.727 149.226C467.384 149.883 465.886 150.209 464.373 150.172C462.497 150.129 460.681 149.539 459.176 148.483C457.67 147.427 456.55 145.957 455.97 144.276C455.389 142.595 455.377 140.786 455.934 139.097C456.492 137.409 457.591 135.926 459.082 134.852C460.286 133.988 461.703 133.426 463.2 133.218C464.697 133.01 466.226 133.163 467.644 133.662C469.535 134.317 471.119 135.581 472.114 137.231C472.514 137.795 472.753 138.446 472.809 139.122Z" fill="#263238"/>
<path d="M470.738 139.752C471.114 140.87 471.132 142.067 470.788 143.194C470.444 144.321 469.754 145.327 468.805 146.085C467.856 146.844 466.69 147.322 465.454 147.458C464.218 147.595 462.966 147.384 461.857 146.852C460.747 146.321 459.829 145.492 459.218 144.47C458.607 143.449 458.33 142.28 458.423 141.111C458.515 139.942 458.972 138.824 459.736 137.899C460.5 136.974 461.538 136.282 462.719 135.91C463.513 135.66 464.352 135.562 465.187 135.62C466.022 135.678 466.836 135.893 467.582 136.25C468.328 136.608 468.992 137.101 469.533 137.703C470.075 138.304 470.485 139.001 470.738 139.752Z" fill="#455A64"/>
<path d="M418.027 0.000895102C418.027 0.000895102 418.027 0.107944 417.939 0.322049L417.636 1.24984C417.234 2.46769 416.749 3.65967 416.184 4.81826C412.555 12.2593 406.438 18.3758 398.769 22.2322C395.084 24.077 391.097 25.3311 386.975 25.9433C377.162 27.3794 367.132 25.3366 358.826 20.2101L359.281 19.8294C364.181 29.1192 364.168 41.6444 358.157 52.0285C355.827 56.096 352.597 59.6452 348.686 62.4364C343.353 66.1659 337.078 68.5158 330.482 69.2524C323.887 69.9891 317.202 69.0868 311.091 66.6352L311.382 66.1713C317.442 70.3636 321.724 76.4462 323.467 83.3354C324.525 87.6801 324.516 92.1948 323.442 96.5359C322.367 100.877 320.255 104.93 317.267 108.386C316.458 109.345 315.562 110.237 314.589 111.05C314.589 111.05 314.589 111.05 314.741 110.872L315.246 110.36C315.701 109.908 316.345 109.171 317.14 108.291C319.397 105.572 321.136 102.505 322.28 99.2268C324.103 94.1364 324.357 88.6634 323.012 83.4425C321.24 76.6651 316.971 70.7005 310.965 66.6114L308.692 65.0651L311.218 66.1476C319.027 69.2982 327.75 69.8191 335.918 67.6225C340.359 66.4558 344.532 64.5284 348.231 61.9368C352.08 59.202 355.262 55.722 357.563 51.7311C363.473 41.5373 363.499 29.2025 358.712 20.0911L358.195 19.1157L359.167 19.7224C367.362 24.7901 377.259 26.8198 386.949 25.42C394.525 24.2678 401.562 21.0077 407.155 16.0588C410.823 12.8256 413.821 8.97759 415.994 4.71121C416.576 3.57306 417.09 2.4056 417.535 1.21415L417.889 0.298264C417.964 0.096053 418.015 -0.0109996 418.027 0.000895102Z" fill="#263238"/>
<path d="M489.049 17.6646C488.488 17.8664 487.909 18.0216 487.319 18.1284C486.632 18.3074 485.931 18.4347 485.223 18.5091C484.298 18.6432 483.366 18.7266 482.432 18.7589H480.79C480.222 18.7589 479.628 18.6994 479.01 18.6756C477.704 18.595 476.405 18.4401 475.12 18.2117C472.174 17.6601 469.311 16.7693 466.596 15.5592C463.909 14.2912 461.394 12.7216 459.107 10.8845C458.123 10.0736 457.195 9.20348 456.329 8.2796C455.925 7.85139 455.508 7.44697 455.167 7.01876L454.182 5.82928C453.627 5.1151 453.121 4.36817 452.667 3.59307C452.289 3.02976 451.964 2.43679 451.695 1.82076C451.411 1.32062 451.183 0.794522 451.013 0.250651C451.152 0.179282 452.099 2.46307 454.561 5.5676L455.559 6.75708C455.9 7.17339 456.329 7.55402 456.733 7.94655C457.604 8.83986 458.532 9.68201 459.511 10.4682C461.776 12.2445 464.251 13.7691 466.886 15.012C469.55 16.1989 472.351 17.0891 475.234 17.6646C476.486 17.9007 477.75 18.0715 479.022 18.176C479.628 18.176 480.209 18.2831 480.778 18.295H482.381C486.536 18.2236 489.024 17.5099 489.049 17.6646Z" fill="#263238"/>
<path d="M599.041 159.795C599.041 159.795 598.928 159.866 598.7 159.973L597.665 160.437C597.21 160.628 596.642 160.877 595.998 161.21C595.354 161.543 594.583 161.9 593.763 162.4C585.625 166.882 579.045 173.494 574.82 181.431C572.825 185.208 571.43 189.239 570.678 193.398C568.886 203.203 570.563 213.291 575.452 222.111L575.767 222.659L575.111 222.54C566.666 221.03 557.932 222.032 550.119 225.406C546.385 226.999 542.935 229.125 539.89 231.711C536.979 234.223 534.469 237.12 532.44 240.31C528.635 246.237 526.578 253.012 526.479 259.937V260.567L525.987 260.139C522.921 257.509 519.38 255.418 515.531 253.966C513.744 253.289 511.908 252.732 510.037 252.3C508.256 251.928 506.45 251.666 504.632 251.515C498.49 250.974 492.298 251.788 486.549 253.894C482.827 255.234 479.363 257.139 476.295 259.532C475.221 260.353 474.527 261.114 473.984 261.566L473.39 262.09C473.264 262.209 473.188 262.268 473.175 262.256C474.125 261.257 475.128 260.305 476.181 259.401C479.221 256.931 482.684 254.965 486.422 253.585C492.217 251.43 498.465 250.579 504.67 251.099C506.512 251.251 508.342 251.509 510.151 251.872C512.05 252.304 513.916 252.86 515.733 253.537C519.653 255.002 523.263 257.117 526.391 259.782L525.886 259.984C525.948 254.584 527.185 249.253 529.52 244.321C531.855 239.389 535.238 234.959 539.461 231.306C542.544 228.668 546.047 226.501 549.842 224.883C557.782 221.458 566.66 220.451 575.237 222.004L574.896 222.433C569.951 213.501 568.277 203.282 570.135 193.362C570.909 189.157 572.343 185.084 574.391 181.277C576.156 178.013 578.326 174.959 580.857 172.177C584.472 168.214 588.792 164.873 593.624 162.305C595.351 161.326 597.164 160.486 599.041 159.795Z" fill="#263238"/>
<path d="M586.627 128.286C586.468 128.145 586.324 127.99 586.198 127.822C585.799 127.367 585.436 126.886 585.112 126.383C583.531 123.973 582.581 121.244 582.342 118.421C582.102 115.598 582.58 112.761 583.735 110.146C585.565 106.103 588.877 102.814 593.068 100.88V101.427C587.832 100.25 582.799 98.384 578.116 95.8844C572.376 92.8908 567.625 88.4616 564.389 83.0857C561.873 78.6031 560.793 73.5285 561.282 68.479C561.588 65.0837 562.785 61.8135 564.768 58.9632L565.778 57.6904C566.081 57.3217 566.397 57.06 566.611 56.8221C566.837 56.5831 567.082 56.3605 567.344 56.156C567.154 56.4208 566.943 56.6713 566.712 56.9054C566.51 57.1552 566.22 57.4287 565.929 57.7975C565.639 58.1662 565.336 58.6182 564.982 59.094C563.117 61.9442 562.009 65.1755 561.749 68.5146C561.336 73.4601 562.436 78.4135 564.919 82.7883C568.16 88.0687 572.877 92.4095 578.558 95.3373C583.192 97.8008 588.164 99.6538 593.333 100.845L594.166 101.047L593.383 101.392C589.319 103.257 586.091 106.423 584.278 110.325C582.863 113.405 582.425 116.804 583.016 120.114C583.392 122.279 584.179 124.362 585.339 126.264C586.135 127.596 586.665 128.286 586.627 128.286Z" fill="#263238"/>
</svg>
